<svg width="222" height="199" viewBox="0 0 222 199" fill="none" xmlns="http://www.w3.org/2000/svg">
<path opacity="0.64" d="M209.538 87.1807C210.403 85.7677 212.25 85.3237 213.663 86.1889C215.076 87.0541 215.52 88.901 214.654 90.314L209.538 87.1807ZM96.1182 83.1239L95.988 80.1267L95.9889 80.1266L96.1182 83.1239ZM120.148 146.502L118.076 144.333L118.076 144.332L120.148 146.502ZM16.1518 73.4503C16.0249 71.7984 17.2612 70.3563 18.9132 70.2294C20.5652 70.1026 22.0073 71.3389 22.1342 72.9909L16.1518 73.4503ZM218.615 102.675C218.895 104.309 217.798 105.859 216.165 106.139C214.532 106.419 212.981 105.322 212.701 103.689L218.615 102.675ZM212.974 87.5183L212.849 84.5209C214.357 84.4578 215.677 85.5243 215.931 87.0117L212.974 87.5183ZM196.819 90.8576C195.166 90.7551 193.908 89.3313 194.011 87.6777C194.113 86.024 195.537 84.7666 197.191 84.8691L196.819 90.8576ZM212.096 88.7473C214.654 90.314 214.654 90.315 214.653 90.3163C214.653 90.317 214.652 90.3185 214.651 90.32C214.649 90.323 214.647 90.3269 214.644 90.3319C214.637 90.3417 214.629 90.3554 214.618 90.3728C214.597 90.4077 214.566 90.4577 214.525 90.5223C214.444 90.6515 214.326 90.8391 214.171 91.0808C213.861 91.5642 213.405 92.2644 212.809 93.1476C211.619 94.9135 209.871 97.4134 207.623 100.376C203.134 106.294 196.624 114.094 188.559 121.582C172.564 136.432 149.743 150.693 124.134 145.219L125.388 139.351C148.016 144.188 168.862 131.681 184.476 117.184C192.215 109.999 198.495 102.481 202.843 96.7494C205.015 93.8872 206.698 91.4794 207.834 89.7939C208.402 88.9513 208.833 88.2898 209.12 87.843C209.263 87.6195 209.37 87.4498 209.44 87.3381C209.475 87.2822 209.5 87.2407 209.517 87.2143C209.525 87.2011 209.531 87.1917 209.534 87.1861C209.536 87.1832 209.537 87.1814 209.538 87.1805C209.538 87.18 209.538 87.1801 209.538 87.1799C209.538 87.1801 209.538 87.1807 212.096 88.7473ZM124.134 145.219C99.0102 139.848 85.6846 124.53 81.6147 109.987C79.5992 102.784 79.835 95.6583 82.2282 90.1123C84.6612 84.4743 89.4038 80.4125 95.988 80.1267L96.2483 86.121C92.3703 86.2894 89.4325 88.5609 87.7372 92.4896C86.0021 96.5103 85.6618 102.184 87.3927 108.37C90.8159 120.602 102.274 134.41 125.388 139.351L124.134 145.219ZM95.9889 80.1266C102.141 79.8613 108.572 82.5193 114.196 86.6966C119.86 90.9041 124.977 96.8453 128.526 103.643C135.644 117.274 136.638 134.903 122.22 148.672L118.076 144.332C130.027 132.92 129.468 118.409 123.208 106.42C120.069 100.408 115.541 95.17 110.618 91.5132C105.655 87.8262 100.556 85.9352 96.2474 86.1211L95.9889 80.1266ZM122.22 148.672C114.795 155.763 104.472 158.026 93.5328 156.79C82.5975 155.555 70.7646 150.812 59.7646 143.495C37.8018 128.884 18.4609 103.517 16.1518 73.4503L22.1342 72.9909C24.2678 100.773 42.249 124.636 63.0878 138.499C73.4885 145.418 84.4263 149.723 94.2065 150.828C103.983 151.933 112.32 149.83 118.076 144.333L122.22 148.672ZM212.701 103.689L210.018 88.0249L215.931 87.0117L218.615 102.675L212.701 103.689ZM212.974 87.5183C213.1 90.5157 213.1 90.5157 213.1 90.5157C213.1 90.5157 213.1 90.5157 213.099 90.5157C213.099 90.5157 213.098 90.5158 213.097 90.5158C213.096 90.5159 213.093 90.516 213.09 90.5161C213.084 90.5164 213.074 90.5168 213.062 90.5173C213.037 90.5183 213 90.5198 212.952 90.5218C212.857 90.5257 212.716 90.5314 212.537 90.5387C212.177 90.5531 211.661 90.5735 211.031 90.5973C209.773 90.6449 208.062 90.7065 206.251 90.762C202.714 90.8704 198.552 90.9651 196.819 90.8576L197.191 84.8691C198.577 84.9551 202.4 84.8773 206.068 84.7648C207.859 84.7099 209.556 84.6489 210.804 84.6016C211.429 84.578 211.94 84.5578 212.296 84.5435C212.474 84.5364 212.612 84.5307 212.706 84.5268C212.753 84.5249 212.789 84.5234 212.813 84.5224C212.825 84.5219 212.834 84.5216 212.84 84.5213C212.843 84.5212 212.845 84.5211 212.847 84.521C212.847 84.521 212.848 84.521 212.848 84.521C212.849 84.521 212.849 84.521 212.849 84.5209C212.849 84.5209 212.849 84.5209 212.974 87.5183Z" fill="url(#paint0_linear_1_6614)"/>
<defs>
<linearGradient id="paint0_linear_1_6614" x1="221.77" y1="92.5963" x2="39.2292" y2="183.847" gradientUnits="userSpaceOnUse">
<stop stop-color="#008CDA"/>
<stop offset="0.500371" stop-color="#34D4F2"/>
<stop offset="1" stop-color="#ACE2E1"/>
</linearGradient>
</defs>
</svg>
