<svg width="265" height="265" viewBox="0 0 265 265" fill="none" xmlns="http://www.w3.org/2000/svg">
<path opacity="0.64" d="M12.2407 149.831C11.0392 148.69 9.14037 148.739 7.99947 149.94C6.85858 151.142 6.90767 153.041 8.10913 154.182L12.2407 149.831ZM144.945 108.799L144.295 105.87L144.294 105.87L144.945 108.799ZM136.648 190.996L138.088 188.364L138.087 188.364L136.648 190.996ZM235.395 72.3041C235.089 70.6756 233.522 69.6026 231.894 69.9077C230.265 70.2127 229.192 71.7801 229.497 73.4087L235.395 72.3041ZM7.54762 170.4C7.70003 172.05 9.16103 173.264 10.8109 173.112C12.4607 172.959 13.6746 171.498 13.5222 169.848L7.54762 170.4ZM8.75309 150.836L8.09865 147.909C6.62596 148.238 5.62699 149.61 5.76581 151.112L8.75309 150.836ZM28.6175 149.049C30.1883 148.522 31.0344 146.821 30.5073 145.25C29.9802 143.68 28.2796 142.834 26.7088 143.361L28.6175 149.049ZM10.1749 152.006C8.10913 154.182 8.11005 154.182 8.11121 154.184C8.11194 154.184 8.11336 154.186 8.11481 154.187C8.11771 154.19 8.12162 154.193 8.12654 154.198C8.13637 154.207 8.15021 154.22 8.16804 154.237C8.20368 154.271 8.25525 154.319 8.32242 154.382C8.45678 154.507 8.65361 154.688 8.91052 154.923C9.4243 155.391 10.1786 156.068 11.154 156.916C13.1046 158.613 15.9419 160.997 19.5117 163.767C26.6443 169.302 36.7368 176.408 48.5511 182.657C72.0164 195.068 103.125 204.53 131.252 190.158L128.521 184.815C103.109 197.8 74.3623 189.522 51.3564 177.353C39.9352 171.312 30.1382 164.419 23.1903 159.027C19.7199 156.334 16.9691 154.022 15.0917 152.389C14.1532 151.573 13.4335 150.927 12.9518 150.488C12.7109 150.268 12.5297 150.101 12.4103 149.99C12.3507 149.934 12.3065 149.893 12.2781 149.866C12.2639 149.853 12.2537 149.843 12.2475 149.837C12.2443 149.834 12.2422 149.832 12.2411 149.831C12.2405 149.831 12.2404 149.83 12.2401 149.83C12.2403 149.83 12.2407 149.831 10.1749 152.006ZM131.252 190.158C158.936 176.012 169.637 153.986 169.838 135.843C169.937 126.843 167.442 118.684 162.988 113.052C158.471 107.341 151.847 104.194 144.295 105.87L145.595 111.727C150.503 110.638 154.92 112.524 158.282 116.774C161.705 121.103 163.926 127.832 163.838 135.776C163.664 151.52 154.376 171.604 128.521 184.815L131.252 190.158ZM144.294 105.87C137.164 107.455 130.55 112.494 125.303 119.116C120.024 125.777 115.917 134.295 113.904 143.323C109.869 161.418 114.217 182.146 135.208 193.628L138.087 188.364C120.089 178.519 116.128 160.916 119.76 144.629C121.58 136.466 125.301 128.779 130.006 122.842C134.742 116.865 140.268 112.911 145.596 111.727L144.294 105.87ZM135.208 193.628C145.965 199.514 158.618 198.961 170.988 194.101C183.354 189.243 195.707 179.999 206.297 167.973C227.448 143.954 242.115 108.184 235.395 72.3041L229.497 73.4087C235.795 107.037 222.053 141.002 201.794 164.007C191.68 175.493 180.078 184.084 168.794 188.517C157.513 192.948 146.82 193.142 138.088 188.364L135.208 193.628ZM13.5222 169.848L11.7404 150.56L5.76581 151.112L7.54762 170.4L13.5222 169.848ZM8.75309 150.836C9.40752 153.764 9.40761 153.764 9.40777 153.764C9.4079 153.764 9.40811 153.764 9.40836 153.764C9.40888 153.764 9.40962 153.764 9.4106 153.763C9.41255 153.763 9.41542 153.762 9.41921 153.761C9.42677 153.76 9.43797 153.757 9.4527 153.754C9.48216 153.747 9.52575 153.738 9.58265 153.725C9.69644 153.699 9.86345 153.662 10.0771 153.614C10.5044 153.517 11.1183 153.378 11.8661 153.208C13.3613 152.868 15.3939 152.401 17.541 151.895C21.7537 150.904 26.6471 149.71 28.6175 149.049L26.7088 143.361C25.0675 143.911 20.5059 145.033 16.1665 146.055C14.0376 146.556 12.0198 147.019 10.5337 147.358C9.79081 147.527 9.18134 147.665 8.75788 147.76C8.54616 147.808 8.38098 147.845 8.2689 147.87C8.21287 147.883 8.17011 147.893 8.14146 147.899C8.12714 147.902 8.11634 147.905 8.10917 147.906C8.10558 147.907 8.10291 147.908 8.10115 147.908C8.10027 147.908 8.09962 147.908 8.09921 147.908C8.099 147.908 8.09886 147.908 8.09875 147.908C8.09867 147.909 8.09865 147.909 8.75309 150.836Z" fill="url(#paint0_linear_24_561)"/>
<defs>
<linearGradient id="paint0_linear_24_561" x1="0.000118877" y1="159.589" x2="243.696" y2="209.436" gradientUnits="userSpaceOnUse">
<stop stop-color="#008CDA"/>
<stop offset="0.500371" stop-color="#34D4F2"/>
<stop offset="1" stop-color="#ACE2E1"/>
</linearGradient>
</defs>
</svg>
