<svg width="1440" height="491" viewBox="0 0 1440 491" fill="none" xmlns="http://www.w3.org/2000/svg">
<g opacity="0.2" clip-path="url(#clip0_4112_532)">
<path d="M220.381 452.808C226.447 466.71 226.021 473.371 228.227 491C248.001 491 267.774 491 288.147 491C288.147 462.839 283.347 441.998 271.719 416.813C261.793 395.248 258.755 371.844 267.134 349.131C268.898 344.758 270.797 340.472 272.781 336.194C289.669 299.796 294.588 258.575 281.182 219.9C278.407 212.498 274.958 205.352 271.514 198.242C267.638 190.144 265.336 182.81 262.626 174.011C242.852 174.011 223.079 174.011 202.706 174.011C203.996 192.047 203.996 192.047 206.174 198.811C206.414 199.592 206.654 200.373 206.902 201.178C209.404 209.014 212.744 216.439 216.153 223.914C217.793 227.586 219.308 231.308 220.807 235.04C221.329 236.333 221.851 237.626 222.389 238.958C230.867 261.793 227.921 286.204 218.241 308.122C217.142 310.445 216.015 312.754 214.883 315.061C192.754 360.159 199.545 408.922 220.381 452.808Z" fill="white" fill-opacity="0.4"/>
<path d="M-63.6044 174.011C-61.1986 193.235 -56.74 208.392 -49.1099 225.801C-39.015 248.918 -34.1311 273.78 -43.6311 298.147C-46.3178 304.414 -49.1624 310.61 -52.0186 316.802C-59.0833 332.331 -63.7078 348.288 -63.8687 365.427C-63.8777 366.354 -63.8867 367.282 -63.8959 368.237C-63.9112 370.201 -63.9231 372.165 -63.9319 374.128C-63.9445 376.097 -63.967 378.065 -64.0001 380.034C-64.433 405.858 -57.4902 427.423 -46.7421 450.681C-40.3657 464.598 -39.6147 474.935 -38.083 491C-18.3094 491 1.46411 491 21.8368 491C21.8368 462.029 17.4923 442.067 5.50074 416.412C-3.64157 396.662 -7.33656 372.064 0.0821 350.984C3.06912 343.945 6.35747 337.025 9.61903 330.11C13.5198 321.778 16.4499 313.781 18.508 304.797C18.947 303.227 19.3862 301.656 19.8256 300.086C24.3665 279.153 24.0204 253.484 18.508 232.754C18.2191 231.62 17.9303 230.487 17.6327 229.319C14.7099 218.412 10.3655 208.55 5.56304 198.36C4.99304 197.123 4.42303 195.886 3.83575 194.611C3.06751 192.983 3.06751 192.983 2.28374 191.322C0.147706 185.722 -1.1198 179.825 -2.57494 174.011C-22.7146 174.011 -42.8544 174.011 -63.6044 174.011Z" fill="white" fill-opacity="0.4"/>
<path d="M83.8789 452.881C90.4663 467.358 89.2965 470.634 91.7433 491C111.517 491 131.29 491 151.663 491C151.663 470.093 151.663 470.093 150.415 462.321C150.268 461.396 150.122 460.47 149.971 459.516C147.372 444.39 141.708 430.556 135.196 416.725C125.312 395.667 122.813 372.349 130.283 350.028C132.868 343.116 135.946 336.422 139.028 329.722C143.795 319.127 146.925 308.353 149.444 297.038C149.756 295.649 149.756 295.649 150.075 294.231C156.19 264.332 151.2 232.484 138.316 205.125C136.681 201.642 135.157 198.117 133.632 194.585C133.145 193.489 132.659 192.393 132.158 191.264C129.9 185.607 128.07 179.789 126.142 174.011C106.368 174.011 86.5946 174.011 66.2219 174.011C68.6914 196.211 74.0373 212.252 83.1066 232.003C92.1519 251.854 93.8061 275.135 86.6806 295.999C85.1684 299.903 83.4693 303.698 81.7003 307.49C58.7604 356.726 61.0925 404.133 83.8789 452.881Z" fill="white" fill-opacity="0.4"/>
<path d="M331.156 374.818C331.145 377.284 331.111 379.749 331.076 382.215C330.912 404.401 336.573 424.582 345.917 444.588C353.405 460.681 355.846 472.361 356.944 491C370.492 491 384.041 491 398 491C398.126 453.178 398.225 415.357 398.283 377.536C398.29 373.063 398.297 368.591 398.305 364.119C398.306 363.228 398.308 362.338 398.309 361.421C398.333 347.034 398.377 332.647 398.428 318.26C398.48 303.481 398.511 288.702 398.522 273.923C398.53 264.814 398.554 255.706 398.599 246.598C398.628 240.339 398.637 234.081 398.63 227.822C398.626 224.219 398.634 220.617 398.661 217.014C398.689 213.088 398.682 209.164 398.667 205.238C398.683 204.126 398.7 203.013 398.716 201.866C398.607 191.249 395.919 185.092 392.452 174.011C372.678 174.011 352.905 174.011 332.532 174.011C332.532 195.118 340.706 214.045 349.361 232.941C354.888 245.128 356.237 254.425 356.25 267.875C356.291 270.013 356.291 270.013 356.333 272.193C356.374 285.789 352.732 297.099 347.027 309.299C346.247 311.019 345.468 312.74 344.69 314.46C343.424 317.235 342.149 320.005 340.867 322.773C333.499 339.362 331.203 356.804 331.156 374.818Z" fill="white" fill-opacity="0.4"/>
<path d="M112.621 61.726C112.618 64.0604 112.598 66.3943 112.577 68.7287C112.488 90.0548 117.843 109.234 126.384 128.647C133.246 144.255 137.005 156.578 138.348 174.011C158.121 174.011 177.895 174.011 198.267 174.011C198.267 147.715 193.958 127.336 182.496 104.016C172.601 83.8075 169.73 59.0029 176.656 37.303C179.441 30.4133 182.603 23.7249 185.927 17.0799C191.61 5.55316 191.61 5.55316 191.61 -3.45468e-06C170.005 -2.51032e-06 148.401 -1.56596e-06 126.142 -5.92981e-07C117.19 22.3527 112.618 38.4654 112.621 61.726Z" fill="white" fill-opacity="0.4"/>
<path d="M-4.17861 141.12C0.775102 152.553 0.493707 160.328 1.86365 174.011C21.6372 174.011 41.4107 174.011 61.7834 174.011C61.7834 162.72 61.6042 152.793 59.5642 141.869C59.3568 140.62 59.1494 139.372 58.9357 138.085C56.4363 125.877 51.2269 114.884 45.8984 103.691C39.5525 90.1699 36.8031 78.5952 36.9556 63.661C36.9427 62.3958 36.9298 61.1307 36.9165 59.8272C36.9661 45.3885 41.4667 34.236 47.497 21.2665C48.7092 18.6534 49.9145 16.037 51.1119 13.4171C51.6428 12.2758 52.1736 11.1345 52.7206 9.95866C54.016 6.65011 54.016 6.65011 55.1257 -3.48091e-06C33.5213 -2.53655e-06 11.9168 -1.59219e-06 -10.3422 -6.19218e-07C-19.2977 21.724 -19.2977 21.724 -20.745 28.8864C-20.9123 29.6258 -21.0797 30.3652 -21.2521 31.1269C-29.8076 70.112 -20.5985 106.051 -4.17861 141.12Z" fill="white" fill-opacity="0.4"/>
<path d="M242.388 51.7635C242.379 52.6908 242.37 53.6181 242.361 54.5736C242.346 56.5373 242.334 58.501 242.325 60.4647C242.312 62.4333 242.29 64.4018 242.257 66.3702C241.865 89.7099 246.869 110.227 257.159 131.178C264.161 145.444 266.833 157.944 268.174 174.011C287.947 174.011 307.721 174.011 328.094 174.011C328.094 148.493 323.098 127.972 312.42 105.016C302.42 83.384 298.173 61.0322 305.901 37.684C308.2 31.6415 310.899 25.7891 313.668 19.9503C314.92 17.2964 316.168 14.6407 317.413 11.9841C317.948 10.8711 318.483 9.75808 319.035 8.61137C320.326 5.54176 320.326 5.54176 321.436 -3.46196e-06C299.831 -2.5176e-06 278.227 -1.57325e-06 255.968 -6.0027e-07C248.294 16.6073 248.294 16.6073 246.189 25.4228C245.964 26.3065 245.739 27.1902 245.507 28.1006C243.514 36.0427 242.465 43.5812 242.388 51.7635Z" fill="white" fill-opacity="0.4"/>
</g>
<g opacity="0.2" clip-path="url(#clip1_4112_532)">
<path d="M478.151 456.181C483.436 468.311 482.42 475.616 483.761 491C503.925 491 524.089 491 544.864 491C544.864 470.182 544.864 470.182 543.614 462.945C543.467 462.075 543.321 461.205 543.17 460.308C540.42 445.146 535.232 431.331 528.416 417.554C518.537 397.433 515.773 374.521 521.98 352.789C524.523 345.503 528.046 338.594 531.364 331.636C547.319 297.674 550.245 256.967 537.968 221.276C534.902 213.009 531.121 205.001 527.397 197.014C526.552 195.184 526.552 195.184 525.691 193.316C525.185 192.239 524.68 191.162 524.158 190.053C522.114 184.854 520.785 179.399 519.312 174.011C499.514 174.011 479.717 174.011 459.32 174.011C460.951 195.169 467.059 212.763 475.75 231.855C481.091 243.877 483.207 255.092 483.066 268.221C483.086 270.026 483.086 270.026 483.105 271.867C483.054 286.27 478.691 298.327 472.822 311.31C468.369 321.166 464.2 330.85 461.542 341.372C461.043 343.329 461.043 343.329 460.535 345.325C451.682 384.381 461.382 421.135 478.151 456.181Z" fill="white" fill-opacity="0.4"/>
<path d="M1009.17 452.808C1015.24 466.71 1014.81 473.371 1017.02 491C1036.82 491 1056.62 491 1077.01 491C1077.01 462.839 1072.21 441.998 1060.57 416.813C1050.63 395.248 1047.59 371.844 1055.98 349.131C1057.74 344.758 1059.64 340.472 1061.63 336.194C1078.54 299.796 1083.46 258.575 1070.04 219.9C1067.26 212.498 1063.81 205.352 1060.36 198.242C1056.48 190.144 1054.18 182.81 1051.46 174.011C1031.67 174.011 1011.87 174.011 991.471 174.011C992.762 192.047 992.762 192.047 994.942 198.811C995.183 199.592 995.424 200.373 995.672 201.178C998.177 209.014 1001.52 216.439 1004.93 223.914C1006.58 227.586 1008.09 231.308 1009.59 235.04C1010.12 236.333 1010.64 237.626 1011.18 238.958C1019.67 261.793 1016.72 286.204 1007.02 308.122C1005.92 310.445 1004.8 312.754 1003.66 315.061C981.506 360.159 988.306 408.922 1009.17 452.808Z" fill="white" fill-opacity="0.4"/>
<path d="M724.84 174.011C727.248 193.235 731.712 208.392 739.351 225.801C749.459 248.918 754.348 273.78 744.837 298.147C742.147 304.414 739.299 310.61 736.439 316.802C729.366 332.331 724.736 348.288 724.575 365.427C724.566 366.354 724.557 367.282 724.548 368.237C724.532 370.201 724.52 372.165 724.512 374.128C724.499 376.097 724.476 378.065 724.443 380.034C724.01 405.858 730.961 427.423 741.722 450.681C748.106 464.598 748.858 474.935 750.392 491C770.189 491 789.986 491 810.384 491C810.384 462.029 806.034 442.067 794.028 416.412C784.875 396.662 781.175 372.064 788.603 350.984C791.593 343.945 794.886 337.025 798.151 330.11C802.057 321.778 804.99 313.781 807.051 304.797C807.49 303.227 807.93 301.656 808.37 300.086C812.916 279.153 812.57 253.484 807.051 232.754C806.762 231.62 806.472 230.487 806.174 229.319C803.248 218.412 798.899 208.55 794.09 198.36C793.52 197.123 792.949 195.886 792.361 194.611C791.592 192.983 791.592 192.983 790.807 191.322C788.668 185.722 787.399 179.825 785.942 174.011C765.778 174.011 745.615 174.011 724.84 174.011Z" fill="white" fill-opacity="0.4"/>
<path d="M872.501 452.881C879.096 467.358 877.925 470.634 880.374 491C900.172 491 919.969 491 940.366 491C940.366 470.093 940.366 470.093 939.117 462.321C938.97 461.396 938.823 460.47 938.672 459.516C936.07 444.39 930.399 430.556 923.879 416.725C913.983 395.667 911.481 372.349 918.961 350.028C921.549 343.116 924.631 336.422 927.716 329.722C932.489 319.127 935.623 308.353 938.144 297.038C938.457 295.649 938.457 295.649 938.776 294.231C944.899 264.332 939.903 232.484 927.003 205.125C925.367 201.642 923.84 198.117 922.313 194.585C921.826 193.489 921.339 192.393 920.838 191.264C918.577 185.607 916.745 179.789 914.814 174.011C895.017 174.011 875.22 174.011 854.822 174.011C857.295 196.211 862.647 212.252 871.727 232.003C880.783 251.854 882.44 275.135 875.306 295.999C873.792 299.903 872.09 303.698 870.319 307.49C847.352 356.726 849.687 404.133 872.501 452.881Z" fill="white" fill-opacity="0.4"/>
<path d="M587.985 375.167C587.983 377.65 587.963 380.133 587.942 382.615C587.845 406.964 594.288 427.291 604.547 449.21C611.318 463.823 612.746 474.091 613.743 491C633.541 491 653.338 491 673.735 491C673.735 468.829 673.735 468.829 672.486 461.144C672.339 460.223 672.192 459.302 672.041 458.353C669.429 443.252 663.759 429.427 657.248 415.617C648.192 396.346 644.83 371.647 651.954 351.144C652.536 349.729 653.133 348.32 653.738 346.914C654.18 345.887 654.621 344.859 655.076 343.801C657.162 338.995 659.263 334.198 661.447 329.436C666.484 318.413 670.682 307.424 672.347 295.376C672.482 294.412 672.616 293.448 672.755 292.456C673.825 283.832 674.052 275.241 674.083 266.559C674.092 264.657 674.092 264.657 674.101 262.716C674.028 254.031 673.049 245.73 671.513 237.187C671.289 235.816 671.064 234.444 670.832 233.031C668.232 220.976 663.113 210.092 657.831 199.01C657.212 197.692 656.593 196.375 655.956 195.018C655.396 193.854 654.837 192.69 654.261 191.491C652.055 185.848 650.766 179.886 649.294 174.011C629.497 174.011 609.7 174.011 589.302 174.011C589.302 183.756 589.555 190.31 592.427 199.157C592.762 200.228 593.098 201.298 593.443 202.402C597.062 213.506 601.808 224.096 606.683 234.698C611.793 245.908 612.833 255.873 612.841 268.083C612.854 269.233 612.868 270.383 612.882 271.568C612.909 285.975 608.571 298.088 602.465 311.018C592.434 332.312 587.983 351.696 587.985 375.167Z" fill="white" fill-opacity="0.4"/>
<path d="M1120.08 374.818C1120.06 377.284 1120.03 379.749 1120 382.215C1119.83 404.401 1125.5 424.582 1134.85 444.588C1142.35 460.681 1144.8 472.361 1145.89 491C1159.46 491 1173.02 491 1187 491C1187.13 453.178 1187.23 415.357 1187.28 377.536C1187.29 373.063 1187.3 368.591 1187.31 364.119C1187.31 363.228 1187.31 362.338 1187.31 361.421C1187.33 347.034 1187.38 332.647 1187.43 318.26C1187.48 303.481 1187.51 288.702 1187.52 273.923C1187.53 264.814 1187.55 255.706 1187.6 246.598C1187.63 240.339 1187.64 234.081 1187.63 227.822C1187.63 224.219 1187.64 220.617 1187.66 217.014C1187.69 213.088 1187.68 209.164 1187.67 205.238C1187.68 204.126 1187.7 203.013 1187.72 201.866C1187.61 191.249 1184.92 185.092 1181.45 174.011C1161.65 174.011 1141.85 174.011 1121.45 174.011C1121.45 195.118 1129.64 214.045 1138.3 232.941C1143.84 245.128 1145.19 254.425 1145.2 267.875C1145.24 270.013 1145.24 270.013 1145.28 272.193C1145.32 285.789 1141.68 297.099 1135.97 309.299C1135.18 311.019 1134.41 312.74 1133.63 314.46C1132.36 317.235 1131.08 320.005 1129.8 322.773C1122.42 339.362 1120.12 356.804 1120.08 374.818Z" fill="white" fill-opacity="0.4"/>
<path d="M901.277 61.726C901.274 64.0604 901.254 66.3943 901.233 68.7287C901.144 90.0548 906.505 109.234 915.057 128.647C921.927 144.255 925.691 156.578 927.035 174.011C946.832 174.011 966.629 174.011 987.027 174.011C987.027 147.715 982.712 127.336 971.236 104.016C961.329 83.8075 958.455 59.0029 965.389 37.303C968.178 30.4133 971.344 23.7249 974.672 17.0799C980.361 5.55316 980.361 5.55316 980.361 -3.45884e-06C958.73 -2.51334e-06 937.1 -1.56784e-06 914.814 -5.93696e-07C905.852 22.3527 901.274 38.4654 901.277 61.726Z" fill="white" fill-opacity="0.4"/>
<path d="M637.073 94.2099C637.398 95.8215 637.398 95.8215 637.729 97.4657C640.94 111.72 646.873 125.18 652.942 138.417C653.302 139.205 653.662 139.992 654.033 140.804C654.51 141.836 654.51 141.836 654.998 142.889C659.59 153.89 659.032 160.323 660.404 174.011C680.568 174.011 700.732 174.011 721.507 174.011C721.507 149.064 716.249 128.558 705.814 106.125C696.142 85.1437 690.857 62.0294 698.176 39.1387C700.999 31.5771 704.657 24.4205 708.392 17.2747C711.214 11.8083 713.73 6.23548 713.73 -3.48635e-06C692.466 -2.55688e-06 671.202 -1.62741e-06 649.294 -6.69774e-07C641.477 15.5979 641.477 15.5979 639.573 22.4441C639.235 23.6444 639.235 23.6444 638.891 24.8689C633.025 46.6696 632.387 72.0979 637.073 94.2099Z" fill="white" fill-opacity="0.4"/>
<path d="M511.535 127.46C511.924 128.339 512.314 129.217 512.715 130.122C515.936 137.355 515.936 137.355 517.462 140.652C520.879 148.101 522.849 154.961 523.269 163.205C523.646 170.36 523.646 170.36 524.866 174.011C544.664 174.011 564.461 174.011 584.858 174.011C582.731 146.418 579.353 127.332 568.055 103.423C559.253 84.6858 555.151 61.2816 561.528 41.009C563.528 35.5228 565.826 30.1651 568.156 24.8124C569.805 21.0158 571.416 17.2039 573.026 13.3911C573.823 11.5049 574.623 9.62013 575.427 7.73681C578.193 1.23097 578.193 1.23097 578.193 -3.5312e-06C556.562 -2.5857e-06 534.932 -1.6402e-06 512.646 -6.66055e-07C504.932 15.3917 504.932 15.3917 502.925 23.2061C502.709 23.9769 502.492 24.7477 502.27 25.5419C493.093 59.673 497.31 95.4649 511.535 127.46Z" fill="white" fill-opacity="0.4"/>
<path d="M784.337 141.12C789.297 152.553 789.015 160.328 790.386 174.011C810.184 174.011 829.981 174.011 850.378 174.011C850.378 162.72 850.199 152.793 848.156 141.869C847.949 140.62 847.741 139.372 847.527 138.085C845.025 125.877 839.809 114.884 834.474 103.691C828.121 90.1699 825.368 78.5952 825.521 63.661C825.508 62.3958 825.495 61.1307 825.482 59.8272C825.531 45.3885 830.037 34.236 836.075 21.2665C837.288 18.6534 838.495 16.037 839.694 13.4171C840.226 12.2758 840.757 11.1345 841.305 9.95866C842.602 6.65011 842.602 6.65011 843.713 -3.48511e-06C822.082 -2.53961e-06 800.452 -1.59411e-06 778.166 -6.19964e-07C769.2 21.724 769.2 21.724 767.751 28.8864C767.583 29.6258 767.415 30.3652 767.243 31.1269C758.677 70.112 767.897 106.051 784.337 141.12Z" fill="white" fill-opacity="0.4"/>
<path d="M385.163 134.665C391.188 147.94 393.005 159.013 394.884 174.011C414.681 174.011 434.479 174.011 454.876 174.011C454.876 148.955 450.398 128.94 439.785 106.325C428.916 82.9911 425.094 59.1617 433.932 34.5294C436.132 28.9817 438.891 23.7228 441.687 18.4567C448.21 6.06981 448.21 6.06981 448.21 -3.50206e-06C426.58 -2.55656e-06 404.949 -1.61106e-06 382.663 -6.36916e-07C374.962 16.6459 374.962 16.6459 372.873 25.2843C372.647 26.1494 372.422 27.0145 372.189 27.9058C363.02 64.1048 370.063 101.419 385.163 134.665Z" fill="white" fill-opacity="0.4"/>
<path d="M1031.2 51.7635C1031.19 52.6908 1031.18 53.6181 1031.17 54.5736C1031.16 56.5373 1031.15 58.501 1031.14 60.4647C1031.12 62.4333 1031.1 64.4018 1031.07 66.3702C1030.68 89.7099 1035.69 110.227 1045.99 131.178C1053 145.444 1055.68 157.944 1057.02 174.011C1076.81 174.011 1096.61 174.011 1117.01 174.011C1117.01 148.493 1112.01 127.972 1101.32 105.016C1091.3 83.384 1087.05 61.0322 1094.79 37.684C1097.09 31.6415 1099.79 25.7891 1102.57 19.9503C1103.82 17.2964 1105.07 14.6407 1106.32 11.9841C1106.85 10.8711 1107.39 9.75808 1107.94 8.61137C1109.23 5.54176 1109.23 5.54176 1110.34 -3.46613e-06C1088.71 -2.52064e-06 1067.08 -1.57514e-06 1044.8 -6.00993e-07C1037.11 16.6073 1037.11 16.6073 1035.01 25.4228C1034.78 26.3065 1034.56 27.1902 1034.32 28.1006C1032.33 36.0427 1031.28 43.5812 1031.2 51.7635Z" fill="white" fill-opacity="0.4"/>
<path d="M1185.89 410.09C1186.26 410.09 1186.62 410.09 1187 410.09C1187 388.511 1187 366.931 1187 344.698C1185.09 347.558 1184.1 349.604 1183.04 352.802C1182.63 354.03 1182.63 354.03 1182.2 355.283C1177.4 372.445 1178.98 393.759 1185.89 410.09Z" fill="#008CDA"/>
</g>
<g opacity="0.2" clip-path="url(#clip2_4112_532)">
<path d="M1210 456.181C1215.28 468.311 1214.27 475.616 1215.61 491C1235.75 491 1255.89 491 1276.64 491C1276.64 470.182 1276.64 470.182 1275.39 462.945C1275.24 462.075 1275.1 461.205 1274.94 460.308C1272.2 445.146 1267.02 431.331 1260.21 417.554C1250.34 397.433 1247.58 374.521 1253.78 352.789C1256.32 345.503 1259.84 338.594 1263.15 331.636C1279.09 297.674 1282.01 256.967 1269.75 221.276C1266.69 213.009 1262.91 205.001 1259.19 197.014C1258.35 195.184 1258.35 195.184 1257.49 193.316C1256.98 192.239 1256.48 191.162 1255.96 190.053C1253.91 184.854 1252.59 179.399 1251.11 174.011C1231.34 174.011 1211.57 174.011 1191.2 174.011C1192.82 195.169 1198.93 212.763 1207.61 231.855C1212.94 243.877 1215.05 255.092 1214.91 268.221C1214.93 270.026 1214.93 270.026 1214.95 271.867C1214.9 286.27 1210.54 298.327 1204.68 311.31C1200.23 321.166 1196.07 330.85 1193.41 341.372C1192.92 343.329 1192.92 343.329 1192.41 345.325C1183.57 384.381 1193.25 421.135 1210 456.181Z" fill="white" fill-opacity="0.4"/>
<path d="M1319.71 375.167C1319.7 377.65 1319.68 380.133 1319.66 382.615C1319.57 406.964 1326 427.291 1336.25 449.21C1343.01 463.823 1344.44 474.091 1345.43 491C1365.21 491 1384.98 491 1405.35 491C1405.35 468.829 1405.35 468.829 1404.1 461.144C1403.96 460.223 1403.81 459.302 1403.66 458.353C1401.05 443.252 1395.39 429.427 1388.89 415.617C1379.84 396.346 1376.48 371.647 1383.6 351.144C1384.18 349.729 1384.78 348.32 1385.38 346.914C1385.82 345.887 1386.26 344.859 1386.72 343.801C1388.8 338.995 1390.9 334.198 1393.08 329.436C1398.11 318.413 1402.3 307.424 1403.97 295.376C1404.1 294.412 1404.24 293.448 1404.37 292.456C1405.44 283.832 1405.67 275.241 1405.7 266.559C1405.71 264.657 1405.71 264.657 1405.72 262.716C1405.65 254.031 1404.67 245.73 1403.13 237.187C1402.91 235.816 1402.68 234.444 1402.45 233.031C1399.86 220.976 1394.74 210.092 1389.47 199.01C1388.85 197.692 1388.23 196.375 1387.59 195.018C1387.04 193.854 1386.48 192.69 1385.9 191.491C1383.7 185.848 1382.41 179.886 1380.94 174.011C1361.17 174.011 1341.39 174.011 1321.02 174.011C1321.02 183.756 1321.27 190.31 1324.14 199.157C1324.48 200.228 1324.81 201.298 1325.16 202.402C1328.77 213.506 1333.51 224.096 1338.38 234.698C1343.49 245.908 1344.52 255.873 1344.53 268.083C1344.55 269.233 1344.56 270.383 1344.57 271.568C1344.6 285.975 1340.27 298.088 1334.17 311.018C1324.15 332.312 1319.7 351.696 1319.71 375.167Z" fill="white" fill-opacity="0.4"/>
<path d="M1368.74 94.2099C1369.06 95.8215 1369.06 95.8215 1369.39 97.4657C1372.6 111.72 1378.52 125.18 1384.59 138.417C1384.94 139.205 1385.3 139.992 1385.67 140.804C1386.15 141.836 1386.15 141.836 1386.64 142.889C1391.23 153.89 1390.67 160.323 1392.04 174.011C1412.18 174.011 1432.32 174.011 1453.07 174.011C1453.07 149.064 1447.82 128.558 1437.39 106.125C1427.73 85.1437 1422.45 62.0294 1429.76 39.1387C1432.58 31.5771 1436.24 24.4205 1439.97 17.2747C1442.79 11.8083 1445.3 6.23548 1445.3 -3.48216e-06C1424.06 -2.55381e-06 1402.82 -1.62545e-06 1380.94 -6.68968e-07C1373.13 15.5979 1373.13 15.5979 1371.23 22.4441C1370.89 23.6444 1370.89 23.6444 1370.55 24.8689C1364.69 46.6696 1364.05 72.0979 1368.74 94.2099Z" fill="white" fill-opacity="0.4"/>
<path d="M1243.35 127.46C1243.74 128.339 1244.13 129.217 1244.53 130.122C1247.74 137.355 1247.74 137.355 1249.27 140.652C1252.68 148.101 1254.65 154.961 1255.07 163.205C1255.44 170.36 1255.44 170.36 1256.66 174.011C1276.44 174.011 1296.21 174.011 1316.58 174.011C1314.46 146.418 1311.08 127.332 1299.8 103.423C1291.01 84.6858 1286.91 61.2816 1293.28 41.009C1295.28 35.5228 1297.57 30.1651 1299.9 24.8124C1301.55 21.0158 1303.16 17.2039 1304.76 13.3911C1305.56 11.5049 1306.36 9.62013 1307.16 7.73681C1309.93 1.23097 1309.93 1.23097 1309.93 -3.52695e-06C1288.32 -2.58259e-06 1266.72 -1.63823e-06 1244.46 -6.65254e-07C1236.75 15.3917 1236.75 15.3917 1234.75 23.2061C1234.53 23.9769 1234.32 24.7477 1234.09 25.5419C1224.93 59.673 1229.14 95.4649 1243.35 127.46Z" fill="white" fill-opacity="0.4"/>
<path d="M1117.13 134.665C1123.15 147.94 1124.96 159.013 1126.84 174.011C1146.61 174.011 1166.38 174.011 1186.76 174.011C1186.76 148.955 1182.28 128.94 1171.68 106.325C1160.83 82.9911 1157.01 59.1617 1165.84 34.5294C1168.04 28.9817 1170.79 23.7228 1173.58 18.4567C1180.1 6.06981 1180.1 6.06981 1180.1 -3.49784e-06C1158.49 -2.55348e-06 1136.89 -1.60912e-06 1114.63 -6.36149e-07C1106.94 16.6459 1106.94 16.6459 1104.85 25.2843C1104.63 26.1494 1104.4 27.0145 1104.17 27.9058C1095.01 64.1048 1102.05 101.419 1117.13 134.665Z" fill="white" fill-opacity="0.4"/>
</g>
<defs>
<clipPath id="clip0_4112_532">
<rect width="491" height="830" fill="white" transform="matrix(4.37114e-08 1 1 -4.37114e-08 -432 0)"/>
</clipPath>
<clipPath id="clip1_4112_532">
<rect width="491" height="831" fill="white" transform="matrix(4.37114e-08 1 1 -4.37114e-08 356 0)"/>
</clipPath>
<clipPath id="clip2_4112_532">
<rect width="491" height="830" fill="white" transform="matrix(4.37114e-08 1 1 -4.37114e-08 1088 0)"/>
</clipPath>
</defs>
</svg>
