<svg width="203" height="203" viewBox="0 0 203 203" fill="none" xmlns="http://www.w3.org/2000/svg">
<path opacity="0.64" d="M9.85823 114.238C8.65676 113.097 6.7579 113.147 5.617 114.348C4.4761 115.55 4.5252 117.448 5.72666 118.589L9.85823 114.238ZM111.006 83.3234L110.356 80.3947L110.355 80.3949L111.006 83.3234ZM104.652 146.274L106.092 143.642L106.091 143.642L104.652 146.274ZM180.967 55.2448C180.662 53.6163 179.095 52.5434 177.466 52.8484C175.837 53.1534 174.765 54.7209 175.07 56.3494L180.967 55.2448ZM5.08086 130.566C5.23327 132.215 6.69427 133.429 8.3441 133.277C9.99393 133.124 11.2078 131.663 11.0554 130.014L5.08086 130.566ZM6.70354 115.518L6.0491 112.59C4.57641 112.919 3.57745 114.291 3.71626 115.794L6.70354 115.518ZM22.1401 114.815C23.7109 114.288 24.557 112.587 24.0299 111.017C23.5029 109.446 21.8022 108.6 20.2314 109.127L22.1401 114.815ZM7.79245 116.414C5.72666 118.589 5.72752 118.59 5.72857 118.591C5.72917 118.592 5.73042 118.593 5.73163 118.594C5.73406 118.596 5.73727 118.599 5.74124 118.603C5.74919 118.611 5.76021 118.621 5.77429 118.634C5.80244 118.661 5.84279 118.699 5.89512 118.747C5.99978 118.845 6.15234 118.986 6.35098 119.167C6.74822 119.529 7.32991 120.051 8.08129 120.704C9.58366 122.011 11.7668 123.845 14.5124 125.976C19.9964 130.232 27.7604 135.699 36.8544 140.509C54.879 150.042 78.98 157.427 100.838 146.258L98.1083 140.915C78.9645 150.697 57.2249 144.496 39.6597 135.205C30.9587 130.603 23.4904 125.348 18.1909 121.236C15.5447 119.182 13.4482 117.42 12.019 116.177C11.3045 115.556 10.7574 115.064 10.3922 114.732C10.2097 114.565 10.0727 114.439 9.98303 114.355C9.93822 114.314 9.90526 114.283 9.88438 114.263C9.87394 114.253 9.86652 114.246 9.86216 114.242C9.85997 114.24 9.85855 114.239 9.85789 114.238C9.85756 114.238 9.85765 114.238 9.85748 114.238C9.85776 114.238 9.85823 114.238 7.79245 116.414ZM100.838 146.258C122.254 135.315 130.616 118.219 130.773 104.043C130.85 97.0267 128.907 90.6107 125.375 86.145C121.78 81.6006 116.45 79.0422 110.356 80.3947L111.656 86.2522C115.105 85.4866 118.229 86.783 120.669 89.8671C123.17 93.0299 124.839 98.016 124.773 103.976C124.643 115.753 117.695 130.907 98.1083 140.915L100.838 146.258ZM110.355 80.3949C104.684 81.6553 99.491 85.6418 95.4126 90.7884C91.3028 95.9747 88.1119 102.595 86.5474 109.611C83.4098 123.681 86.7851 139.921 103.212 148.906L106.091 143.642C92.6575 136.294 89.6692 123.179 92.4036 110.917C93.7751 104.767 96.579 98.9773 100.115 94.5149C103.683 90.0128 107.787 87.112 111.657 86.252L110.355 80.3949ZM103.211 148.906C111.687 153.544 121.607 153.078 131.208 149.306C140.805 145.536 150.353 138.379 158.519 129.106C174.822 110.593 186.163 82.9874 180.967 55.2448L175.07 56.3494C179.844 81.84 169.427 107.64 154.016 125.141C146.326 133.874 137.529 140.376 129.014 143.722C120.502 147.066 112.542 147.172 106.092 143.642L103.211 148.906ZM11.0554 130.014L9.69082 115.242L3.71626 115.794L5.08086 130.566L11.0554 130.014ZM6.70354 115.518C7.35797 118.446 7.35805 118.446 7.35818 118.446C7.35828 118.446 7.35845 118.446 7.35865 118.445C7.35906 118.445 7.35964 118.445 7.3604 118.445C7.36192 118.445 7.36414 118.444 7.36706 118.444C7.3729 118.442 7.38152 118.44 7.39285 118.438C7.41551 118.433 7.44899 118.425 7.49267 118.415C7.58001 118.396 7.70813 118.367 7.87199 118.33C8.19967 118.256 8.67037 118.15 9.24367 118.019C10.3898 117.758 11.9482 117.4 13.5947 117.013C16.8061 116.257 20.5926 115.334 22.1401 114.815L20.2314 109.127C19.013 109.536 15.5584 110.387 12.2201 111.172C10.5918 111.555 9.04827 111.91 7.91118 112.169C7.34286 112.299 6.87662 112.404 6.55276 112.477C6.39085 112.513 6.26455 112.542 6.17892 112.561C6.13611 112.571 6.10346 112.578 6.08161 112.583C6.07069 112.585 6.06247 112.587 6.05702 112.588C6.0543 112.589 6.05227 112.589 6.05095 112.59C6.05029 112.59 6.0498 112.59 6.0495 112.59C6.04934 112.59 6.04924 112.59 6.04917 112.59C6.04911 112.59 6.0491 112.59 6.70354 115.518Z" fill="white"/>
</svg>
