<svg width="187" height="131" viewBox="0 0 187 131" fill="none" xmlns="http://www.w3.org/2000/svg">
<g opacity="0.5">
<path fill-rule="evenodd" clip-rule="evenodd" d="M200.256 66.3229C200.161 66.31 200.066 66.2898 199.971 66.2602C198.99 65.9673 198.431 64.9369 198.727 63.9564C201.278 55.4292 196.323 38.5681 190.368 27.0326C189.897 26.1226 190.255 25.0066 191.164 24.5387C192.079 24.0696 193.196 24.4277 193.662 25.3351C200.11 37.821 205.14 55.4585 202.277 65.0182C202.014 65.9021 201.144 66.4426 200.256 66.3229ZM28.5498 32.7005C48.5292 19.8753 80.9523 13.5304 113.655 17.9401C132.339 20.4594 151.116 26.4903 167.707 36.8284C168.587 37.3784 169.728 37.1047 170.27 36.2364C170.392 36.0446 170.47 35.8396 170.515 35.6318C182.808 46.2361 187.717 63.3229 181.678 78.219C172.201 101.595 136.773 118.412 65.7477 96.2683C67.1114 94.5061 68.2235 92.7721 68.9765 91.1228C69.4009 90.1891 68.9846 89.0878 68.0426 88.663C67.0885 88.2441 65.9908 88.6523 65.5648 89.5839C64.7653 91.3361 63.5072 93.1864 61.9535 95.0581C58.757 94.0123 55.7005 92.9337 52.7875 91.8251C52.685 90.2926 52.5284 88.7798 52.375 87.2987L52.3731 87.2806C52.1091 84.7558 51.8639 82.372 51.899 80.1085C51.9166 79.0807 51.0743 78.2254 50.0591 78.2177C49.0247 78.1981 48.1723 79.0141 48.1569 80.0385C48.1162 82.526 48.3862 85.1322 48.6489 87.6532L48.6492 87.6558C48.741 88.5415 48.8323 89.4224 48.9121 90.2979C26.4029 81.1114 13.4075 70.0377 11.8932 58.4944C10.715 49.5127 16.6291 40.3528 28.5498 32.7005ZM49.1599 94.4184C17.8861 82.0871 9.46348 68.5946 8.20283 58.9775C6.8258 48.4895 13.3355 38.0467 26.535 29.5747C56.8909 10.0872 115.057 5.06638 160.842 28.6607C160.743 28.2517 160.781 27.8067 160.98 27.4004C161.437 26.4812 162.555 26.1108 163.474 26.5553C183.651 36.488 193.163 59.7967 185.13 79.6146C177.026 99.6067 151.627 115.266 103.951 108.839C91.8195 107.203 78.2452 104.137 63.146 99.3476C54.1307 109.237 39.2511 118.982 37.111 118.81L37.0924 118.809L37.0645 118.806C37.0472 118.805 37.0299 118.803 37.0122 118.801C36.2664 118.7 35.6136 118.148 35.4144 117.426C35.0032 115.951 35.9074 115.254 39.7973 112.532C47.734 106.989 49.2744 100.878 49.1599 94.4184ZM52.895 95.8448C52.8234 99.0979 52.2986 102.39 50.7973 105.608C53.7178 103.274 56.6765 100.692 59.2274 98.0726C57.0265 97.3358 54.9169 96.5928 52.895 95.8448ZM213.356 61.7432C213.441 61.7659 213.526 61.7831 213.61 61.7944C214.529 61.9183 215.421 61.3538 215.675 60.4428C217.447 54.0726 215.961 35.8408 209.273 27.6413C208.614 26.8412 207.431 26.7156 206.621 27.3611C205.813 28.0087 205.688 29.188 206.344 29.9916C212.329 37.3265 213.431 54.4424 212.041 59.4395C211.766 60.4344 212.353 61.4664 213.356 61.7432Z" fill="white"/>
</g>
</svg>
