<svg width="160" height="56" viewBox="0 0 160 56" fill="none" xmlns="http://www.w3.org/2000/svg">
<path d="M13.0262 2.69336C16.3967 2.69336 19.7672 2.69336 23.2398 2.69336C23.2398 6.32309 23.2398 9.95281 23.2398 13.6925C22.4897 13.8314 22.4897 13.8314 21.7246 13.9731C18.556 14.7566 15.5785 16.5142 13.6435 19.1921C13.5957 19.2565 13.5477 19.3209 13.4997 19.3852C12.0068 21.4084 11.1301 23.7727 10.8376 26.263C10.8302 26.324 10.8227 26.385 10.815 26.4478C10.6758 27.8613 10.7691 29.3199 11.1182 30.6964C11.1336 30.7591 11.1489 30.8218 11.1647 30.8864C11.2183 31.039 11.2183 31.039 11.3453 31.115C12.3338 31.4493 13.3561 31.2936 14.2819 30.8682C15.525 30.2974 17.0795 30.0993 18.3943 30.5828C18.7427 30.7215 19.0833 30.8761 19.4237 31.0331C20.129 31.3562 21.0904 31.4089 21.8279 31.1512C22.003 31.0808 22.1721 31.0036 22.3419 30.9208C23.5822 30.3325 25.0924 30.1056 26.4242 30.5387C26.869 30.6985 27.2987 30.8949 27.7292 31.0892C28.1282 31.2659 28.52 31.2692 28.9498 31.2716C29.0025 31.2727 29.0551 31.2739 29.1094 31.2751C29.6463 31.278 30.078 31.1265 30.562 30.9061C32.0302 30.2381 33.5208 30.1425 35.0474 30.7115C35.2101 30.7775 35.3699 30.8479 35.5296 30.9208C35.6475 30.9729 35.7656 31.0243 35.8839 31.0752C35.9358 31.098 35.9876 31.1209 36.0411 31.1444C36.393 31.2683 36.7533 31.2678 37.122 31.2681C37.1669 31.2687 37.2117 31.2694 37.2579 31.2701C37.7134 31.2712 38.1263 31.1623 38.56 31.0331C38.5662 30.9915 38.5723 30.9499 38.5787 30.907C38.6396 30.5021 38.7069 30.0989 38.7815 29.6962C38.8638 29.2431 38.9057 28.7952 38.9101 28.3348C38.9109 28.2638 38.9109 28.2638 38.9118 28.1913C38.9485 24.2197 37.5815 20.6918 34.8014 17.8335C34.465 17.4938 34.1117 17.1847 33.7339 16.8913C33.6774 16.8464 33.621 16.8016 33.5629 16.7554C32.807 16.1585 32.0058 15.6536 31.1524 15.2077C31.1117 15.1864 31.0709 15.1651 31.029 15.1431C29.5578 14.3845 28.0068 13.9633 26.3824 13.6925C26.3824 10.0628 26.3824 6.43308 26.3824 2.69336C29.7528 2.69336 33.1233 2.69336 36.5959 2.69336C36.5959 3.54523 36.5959 4.39711 36.5959 5.2748C34.0773 5.2748 31.5587 5.2748 28.9638 5.2748C28.9638 7.33041 28.9638 9.38602 28.9638 11.5039C29.0749 11.5224 29.186 11.541 29.3005 11.56C29.9357 11.7137 30.5581 11.905 31.1524 12.1773C31.2366 12.2141 31.3207 12.2508 31.405 12.2874C32.7398 12.8714 33.992 13.5715 35.1368 14.4782C35.187 14.5176 35.2372 14.557 35.289 14.5977C36.2332 15.3538 37.149 16.2117 37.8866 17.1719C37.9299 17.2261 37.9733 17.2804 38.0179 17.3363C38.6296 18.1113 39.1647 18.9369 39.6263 19.8094C39.6451 19.8448 39.6638 19.8802 39.6832 19.9166C41.3591 23.1043 42.0053 26.7939 41.4221 30.3596C41.4035 30.3967 41.385 30.4337 41.3659 30.4719C41.359 30.5425 41.3521 30.6131 41.3449 30.6858C41.1036 32.9615 39.9579 35.5255 38.56 37.3183C38.477 37.4305 38.394 37.5427 38.311 37.655C37.4489 38.7986 36.452 39.9311 35.3052 40.7976C35.2373 40.8502 35.1695 40.9028 35.1017 40.9555C33.637 42.0831 32.008 42.985 30.2511 43.5668C30.1498 43.601 30.0495 43.6377 29.9492 43.6746C26.1255 45.0492 21.5263 44.6558 17.8807 42.9386C17.7211 42.8619 17.5622 42.784 17.4035 42.7057C17.3563 42.6827 17.3092 42.6598 17.2607 42.6362C16.245 42.1391 15.3091 41.5061 14.4292 40.7976C14.3541 40.7387 14.3541 40.7387 14.2775 40.6786C13.8187 40.313 13.3942 39.9116 12.9701 39.5069C12.903 39.4433 12.903 39.4433 12.8344 39.3785C12.5846 39.1361 12.365 38.8748 12.1474 38.6033C12.0165 38.4412 11.8815 38.2833 11.746 38.125C11.1637 37.4246 10.6761 36.6708 10.2352 35.8748C10.1694 35.7563 10.1023 35.6385 10.0351 35.5208C9.42934 34.4403 9.00404 33.2694 8.68727 32.0748C8.65384 31.9491 8.61891 31.8239 8.58325 31.6988C8.2373 30.4254 8.13114 29.1165 8.12992 27.8028C8.12983 27.7493 8.12974 27.6958 8.12964 27.6406C8.12955 26.8241 8.1675 26.0295 8.2917 25.2211C8.30976 25.1014 8.3251 24.9819 8.33861 24.8616C8.50992 23.4269 9.01507 21.8869 9.65914 20.5951C9.67936 20.5543 9.69958 20.5136 9.72041 20.4716C10.202 19.5106 10.7517 18.5918 11.3988 17.733C11.4234 17.7004 11.448 17.6677 11.4733 17.634C11.7915 17.214 12.1262 16.8153 12.4868 16.4311C12.6217 16.2865 12.7522 16.1388 12.8824 15.9899C13.6849 15.0997 14.6614 14.3434 15.6638 13.6925C15.7228 13.6542 15.7819 13.6159 15.8427 13.5763C16.0243 13.4619 16.2078 13.3515 16.3933 13.2436C16.4329 13.2205 16.4725 13.1973 16.5133 13.1735C19.2982 11.56 19.2982 11.56 20.6022 11.56C20.6022 9.50443 20.6022 7.44882 20.6022 5.33092C18.1021 5.33092 15.6021 5.33092 13.0262 5.33092C13.0262 4.46052 13.0262 3.59013 13.0262 2.69336Z" fill="#FDFEFE"/>
<path d="M2.47628 8.02441C7.16159 8.02441 11.8469 8.02441 16.6742 8.02441C15.6118 9.44095 14.116 10.3098 12.3737 10.61C11.6973 10.7034 11.011 10.6757 10.3298 10.6729C10.1774 10.6727 10.025 10.6726 9.87264 10.6724C9.51452 10.6721 9.1564 10.6712 8.79828 10.6701C8.39004 10.6688 7.9818 10.6682 7.57356 10.6676C6.73494 10.6665 5.89633 10.6645 5.05772 10.662C5.06233 12.8824 5.06751 15.1029 5.07344 17.3233C5.07414 17.5865 5.07484 17.8496 5.07553 18.1128C5.07567 18.1652 5.07581 18.2175 5.07595 18.2715C5.07817 19.1156 5.08001 19.9597 5.08171 20.8038C5.08347 21.6723 5.08564 22.5407 5.08818 23.4092C5.08973 23.9435 5.09097 24.4779 5.0918 25.0122C5.0924 25.3804 5.09341 25.7486 5.09471 26.1168C5.09545 26.3281 5.09603 26.5394 5.09612 26.7507C5.0966 27.6169 5.11397 28.4797 5.16717 29.3443C5.16956 29.3831 5.17194 29.4219 5.1744 29.4619C5.21125 30.0491 5.26522 30.6305 5.35585 31.2118C5.36821 31.2943 5.38057 31.3769 5.39292 31.4594C5.49232 32.1111 5.61977 32.7522 5.78726 33.3899C5.80097 33.4434 5.81469 33.4969 5.82883 33.5521C6.91754 37.7677 9.34022 41.7105 12.7672 44.4399C12.9252 44.5661 13.0792 44.6966 13.2334 44.8274C14.6642 46.0188 16.2629 47.0049 17.9088 47.8684C17.989 47.9108 17.989 47.9108 18.0709 47.9542C19.7973 48.8628 21.6085 49.5748 23.4645 50.1692C23.5273 50.1896 23.5901 50.2101 23.6548 50.2311C23.8166 50.2833 23.9788 50.3337 24.1414 50.3832C24.1854 50.3971 24.2294 50.4111 24.2747 50.4255C24.7699 50.5681 25.2329 50.4599 25.7162 50.3165C25.7656 50.3021 25.815 50.2876 25.8659 50.2727C29.0205 49.3286 32.0939 47.9582 34.8004 46.0726C34.8316 46.051 34.8628 46.0295 34.8949 46.0073C35.7626 45.4063 36.5917 44.7519 37.3818 44.0523C37.4342 44.0062 37.4866 43.9602 37.5405 43.9127C38.2605 43.2661 38.9887 42.589 39.5827 41.8229C39.6807 41.6979 39.7847 41.5834 39.8931 41.4674C40.2521 41.0676 40.5535 40.6197 40.8611 40.1802C40.8992 40.1261 40.8992 40.1261 40.938 40.0709C41.5564 39.1857 42.082 38.2368 42.5447 37.262C42.5638 37.2226 42.5829 37.1832 42.6026 37.1425C43.606 35.0644 44.1617 32.8404 44.4228 30.5552C44.4404 30.4033 44.4601 30.2523 44.482 30.1009C44.5932 29.2705 44.5824 28.4369 44.5827 27.6008C44.5829 27.3729 44.5838 27.145 44.5845 26.9171C44.5858 26.5234 44.5866 26.1297 44.5872 25.736C44.588 25.1668 44.5895 24.5975 44.591 24.0283C44.5936 23.1045 44.5956 22.1807 44.5974 21.2569C44.5991 20.3601 44.601 19.4634 44.6033 18.5666C44.6034 18.5112 44.6035 18.4558 44.6037 18.3988C44.6044 18.1209 44.6051 17.843 44.6058 17.5651C44.6116 15.2641 44.6166 12.963 44.6211 10.662C44.5672 10.6623 44.5672 10.6623 44.5122 10.6626C43.6323 10.6676 42.7524 10.6713 41.8724 10.6736C41.4469 10.6748 41.0213 10.6763 40.5958 10.6789C40.2243 10.6812 39.8528 10.6826 39.4813 10.6831C39.2851 10.6834 39.089 10.684 38.8928 10.6857C37.6454 10.6958 36.5128 10.6026 35.3616 10.1008C35.303 10.0755 35.2445 10.0502 35.1842 10.0241C34.2592 9.59265 33.4115 8.87898 32.7801 8.08053C32.7801 8.06201 32.7801 8.04349 32.7801 8.02441C37.558 8.02441 42.3359 8.02441 47.2586 8.02441C47.2654 13.2353 47.2654 13.2353 47.2668 15.4201C47.2672 15.92 47.2675 16.42 47.2679 16.92C47.2679 17.0139 47.2679 17.0139 47.268 17.1098C47.2687 18.1178 47.2701 19.1259 47.2716 20.1339C47.2732 21.1704 47.2741 22.2069 47.2745 23.2434C47.2747 23.8817 47.2754 24.5199 47.2768 25.1582C47.2777 25.5974 47.278 26.0366 47.2777 26.4758C47.2776 26.7282 47.2778 26.9806 47.2787 27.2331C47.2828 28.4363 47.2345 29.613 47.0903 30.8084C47.0833 30.8672 47.0763 30.9259 47.0691 30.9864C46.9137 32.2762 46.6775 33.5477 46.3046 34.7928C46.2855 34.8567 46.2855 34.8567 46.266 34.9219C46.1883 35.1791 46.1077 35.4353 46.024 35.6907C45.9995 35.7663 45.9995 35.7663 45.9745 35.8434C45.0549 38.6486 43.5502 41.2823 41.5907 43.4911C41.5217 43.5706 41.4527 43.6501 41.3837 43.7296C41.3218 43.7998 41.2599 43.87 41.1979 43.9401C41.1626 43.9801 41.1274 44.0201 41.091 44.0613C40.7884 44.4015 40.4745 44.7283 40.1519 45.0495C40.0717 45.1294 39.9917 45.2096 39.9118 45.2899C39.6201 45.5812 39.3238 45.8621 39.0092 46.1287C38.95 46.1799 38.8907 46.2311 38.8315 46.2824C38.4476 46.6096 38.0576 46.9261 37.6541 47.229C37.5818 47.2834 37.5097 47.338 37.4377 47.3928C36.2454 48.2992 34.9845 49.1014 33.678 49.8325C33.618 49.8662 33.5581 49.8999 33.4963 49.9346C31.3242 51.1467 29.032 52.0573 26.6632 52.8068C26.5927 52.8291 26.5221 52.8515 26.4494 52.8745C23.6843 53.7367 20.348 51.9884 17.8527 50.7865C17.762 50.743 17.762 50.743 17.6695 50.6986C16.4521 50.1116 15.284 49.4433 14.1489 48.7101C14.0979 48.6772 14.0979 48.6772 14.0459 48.6437C13.1798 48.0816 12.3467 47.475 11.5476 46.8213C11.4627 46.7521 11.3771 46.6837 11.2914 46.6153C10.9415 46.3346 10.6113 46.0368 10.2837 45.7306C10.1327 45.5895 9.97903 45.4519 9.82426 45.315C9.38355 44.9195 8.95962 44.5018 8.57585 44.0506C8.46754 43.9245 8.35499 43.8028 8.24243 43.6805C7.92894 43.3326 7.6432 42.9648 7.35857 42.5932C7.33083 42.5572 7.30308 42.5211 7.2745 42.4839C4.57089 38.96 2.90476 34.6659 2.55179 30.2346C2.54823 30.1906 2.54467 30.1467 2.541 30.1014C2.46172 29.1008 2.45308 28.1031 2.45674 27.1C2.45749 26.8425 2.45722 26.5851 2.4571 26.3276C2.45701 25.8843 2.45752 25.4409 2.45848 24.9976C2.45987 24.3567 2.46029 23.7157 2.4605 23.0748C2.46087 22.0342 2.46198 20.9937 2.46358 19.9531C2.46513 18.9439 2.46632 17.9347 2.46703 16.9254C2.46708 16.8623 2.46712 16.7992 2.46717 16.7342C2.46752 16.2404 2.46785 15.7466 2.46817 15.2528C2.46975 12.8434 2.47314 10.4339 2.47628 8.02441Z" fill="#FDFEFE"/>
<path d="M122.064 10.8866C123.37 10.884 124.676 10.882 125.982 10.8808C126.589 10.8803 127.195 10.8795 127.801 10.8782C128.331 10.8771 128.86 10.8763 129.389 10.8761C129.668 10.8759 129.948 10.8756 130.228 10.8748C130.492 10.874 130.756 10.8738 131.02 10.874C131.116 10.8739 131.212 10.8737 131.309 10.8733C132.17 10.8696 133.041 10.9106 133.881 11.1181C133.929 11.1299 133.977 11.1417 134.027 11.1539C135.019 11.4108 135.933 11.9085 136.711 12.5702C136.75 12.6019 136.789 12.6336 136.83 12.6662C137.695 13.3832 138.251 14.4505 138.451 15.5445C138.466 15.6226 138.466 15.6226 138.481 15.7023C138.643 16.8418 138.405 17.9995 137.732 18.9409C136.854 20.0871 135.694 20.7476 134.354 21.2124C134.354 21.2309 134.354 21.2494 134.354 21.2685C134.439 21.2876 134.439 21.2876 134.526 21.3071C136.215 21.7345 137.941 22.5976 138.866 24.1341C139.495 25.2918 139.682 26.6636 139.347 27.9502C139.153 28.6057 138.852 29.2317 138.395 29.7424C138.359 29.7863 138.324 29.8302 138.287 29.8754C137.713 30.5638 136.96 31.0099 136.15 31.3698C136.115 31.3856 136.079 31.4015 136.043 31.4178C134.16 32.2499 132.077 32.1728 130.062 32.1668C129.779 32.1661 129.497 32.1661 129.215 32.1659C128.683 32.1656 128.151 32.1647 127.62 32.1635C127.013 32.1623 126.407 32.1617 125.8 32.1611C124.555 32.1599 123.309 32.158 122.064 32.1555C122.098 31.8724 122.139 31.6088 122.216 31.3334C122.235 31.263 122.254 31.1925 122.274 31.1199C122.313 30.977 122.353 30.8342 122.393 30.6916C122.716 29.506 122.828 28.3162 122.822 27.0911C122.822 26.9565 122.822 26.8219 122.823 26.6873C122.824 26.3266 122.823 25.9659 122.822 25.6052C122.821 25.2636 122.822 24.922 122.822 24.5804C122.822 23.9034 122.821 23.2265 122.82 22.5495C122.819 21.8964 122.818 21.2433 122.819 20.5902C122.819 19.8745 122.82 19.1588 122.819 18.4431C122.819 18.3664 122.819 18.2897 122.818 18.2131C122.818 18.1754 122.818 18.1377 122.818 18.0989C122.818 17.8364 122.818 17.5739 122.818 17.3114C122.819 16.9566 122.818 16.6019 122.817 16.2471C122.817 16.118 122.817 15.989 122.817 15.86C122.819 14.5687 122.668 13.3508 122.334 12.1037C122.295 11.9544 122.256 11.8051 122.218 11.6557C122.194 11.5643 122.17 11.473 122.145 11.3818C122.101 11.2121 122.064 11.063 122.064 10.8866Z" fill="white"/>
<path d="M146.195 10.9424C147.973 10.9424 149.75 10.9424 151.582 10.9424C151.839 11.5844 152.091 12.221 152.328 12.8697C152.436 13.1658 152.551 13.4595 152.668 13.7524C152.756 13.9776 152.839 14.2044 152.919 14.433C153.174 15.1659 153.45 15.891 153.725 16.6169C153.768 16.7307 153.811 16.8445 153.854 16.9584C154.223 17.9372 154.595 18.9147 154.973 19.8903C155.173 20.4083 155.37 20.9271 155.548 21.4531C155.641 21.7239 155.74 21.9912 155.845 22.2572C156.026 22.7187 156.201 23.1825 156.375 23.6468C156.389 23.6831 156.402 23.7193 156.416 23.7567C156.473 23.9076 156.529 24.0584 156.585 24.2093C156.822 24.8438 157.061 25.4779 157.299 26.112C157.383 26.3358 157.467 26.5596 157.551 26.7835C158.216 28.5577 158.911 30.3002 159.949 31.8954C160 31.9867 160 31.9867 160 32.099C157.667 32.099 155.333 32.099 152.929 32.099C152.991 31.5375 152.991 31.5375 153.027 31.312C153.317 29.4209 153.01 27.8556 152.312 26.0943C152.254 25.9489 152.197 25.8034 152.14 25.6579C152.106 25.5696 152.071 25.4814 152.036 25.3933C151.919 25.0966 151.919 25.0966 151.919 24.9719C149.382 24.9719 146.845 24.9719 144.231 24.9719C144.175 25.1571 144.12 25.3423 144.062 25.5331C144.015 25.6693 143.967 25.8055 143.919 25.9414C143.436 27.3238 143.305 28.6854 143.557 30.1348C143.571 30.2196 143.584 30.3043 143.597 30.3891C143.669 30.8276 143.761 31.2434 143.907 31.6649C143.95 31.8184 143.95 31.8184 143.95 32.099C142.58 32.099 141.209 32.099 139.797 32.099C139.851 31.8842 139.922 31.725 140.022 31.5283C140.058 31.4567 140.093 31.385 140.129 31.3133C140.148 31.2752 140.167 31.2371 140.187 31.1978C141.01 29.5417 141.685 27.8214 142.316 26.0843C142.444 25.7322 142.576 25.3819 142.708 25.0316C142.866 24.6131 143.018 24.1932 143.164 23.7707C143.341 23.2625 143.523 22.7564 143.705 22.2502C143.722 22.203 143.738 22.1559 143.756 22.1073C144.074 21.2233 144.393 20.3397 144.712 19.4563C144.82 19.1567 144.928 18.8571 145.036 18.5574C145.098 18.3842 145.161 18.211 145.223 18.0378C145.239 17.9956 145.254 17.9533 145.269 17.9098C145.469 17.3574 145.671 16.8063 145.876 16.2561C146.053 15.7804 146.226 15.3038 146.395 14.8251C146.414 14.7721 146.432 14.7192 146.452 14.6646C146.608 14.2151 146.654 13.8157 146.654 13.3414C146.655 13.2915 146.656 13.2415 146.656 13.19C146.657 12.8392 146.612 12.5179 146.532 12.177C146.518 12.1148 146.504 12.0527 146.49 11.9887C146.43 11.7437 146.372 11.5063 146.268 11.2756C146.195 11.1107 146.195 11.1107 146.195 10.9424Z" fill="white"/>
<path d="M95.9691 10.7744C96.0108 10.7819 96.0525 10.7894 96.0955 10.7972C97.5237 11.0649 98.9305 11.7227 100.066 12.6263C100.096 12.6506 100.127 12.6749 100.158 12.6999C101.976 14.1575 103.199 16.1644 103.752 18.424C103.768 18.4887 103.768 18.4887 103.784 18.5546C103.996 19.4649 104.078 20.3629 104.072 21.2961C104.071 21.4648 104.072 21.6335 104.073 21.8023C104.074 22.5177 104.012 23.2028 103.882 23.9061C103.87 23.971 103.87 23.971 103.858 24.0373C103.371 26.6867 101.809 29.1928 99.5915 30.7331C97.4089 32.2138 94.7218 32.7929 92.1182 32.3146C90.296 31.9471 88.5839 31.1229 87.2435 29.8245C87.1558 29.7398 87.067 29.6563 86.9781 29.5727C85.3556 28.0244 84.3536 25.8243 84.0159 23.6255C84.0034 23.546 84.0034 23.546 83.9907 23.465C83.546 20.5325 84.0052 17.235 85.7979 14.7973C85.8325 14.7505 85.8325 14.7505 85.8678 14.7027C85.8903 14.6713 85.9128 14.64 85.936 14.6077C87.4374 12.5234 89.737 11.1341 92.2653 10.7183C92.3351 10.7067 92.4049 10.6952 92.4768 10.6832C93.6335 10.511 94.8222 10.5632 95.9691 10.7744Z" fill="white"/>
<path d="M95.6661 12.3592C95.9162 12.5421 96.1412 12.7456 96.3619 12.9627C96.4262 13.0259 96.4262 13.0259 96.4917 13.0903C97.1269 13.7542 97.5084 14.6012 97.8771 15.4319C97.9178 15.5233 97.9178 15.5233 97.9593 15.6165C98.1848 16.1625 98.3164 16.7389 98.4587 17.3108C98.4866 17.4215 98.5166 17.5316 98.5472 17.6416C98.6892 18.153 98.7479 18.6794 98.812 19.2051C98.8292 19.3444 98.8478 19.4833 98.8666 19.6224C99.0491 21.062 98.97 22.5292 98.775 23.9619C98.7634 24.0556 98.7518 24.1492 98.7402 24.2429C98.4792 26.2132 97.8151 28.4541 96.4742 29.9665C96.4341 30.0128 96.394 30.059 96.3527 30.1066C95.7188 30.7901 94.848 31.1993 93.9173 31.2362C92.9 31.1966 92.1201 30.67 91.4397 29.9512C91.1629 29.6459 90.9513 29.3148 90.7501 28.9564C90.7158 28.8969 90.7158 28.8969 90.6809 28.8361C90.3279 28.2183 90.0558 27.594 89.8427 26.9154C89.7957 26.7665 89.7462 26.6186 89.6966 26.4706C89.4717 25.7753 89.3308 25.0746 89.2139 24.3547C89.2067 24.3112 89.1996 24.2676 89.1922 24.2228C88.7804 21.6832 88.9554 19.0197 89.6839 16.5543C89.6963 16.5111 89.7087 16.4679 89.7215 16.4234C90.2331 14.6694 91.1527 12.9853 92.7844 12.0754C93.6996 11.6801 94.8401 11.8259 95.6661 12.3592Z" fill="#16ABE4"/>
<path d="M78.4139 10.9649C78.5941 11.0032 78.7747 11.0396 78.9554 11.076C79.6639 11.2212 80.3615 11.3852 81.0541 11.5938C81.3656 11.6847 81.681 11.7617 81.9958 11.8404C81.9958 13.6183 81.9958 15.3961 81.9958 17.2278C81.9218 17.2278 81.8477 17.2278 81.7714 17.2278C81.6682 17.0998 81.5817 16.9767 81.4943 16.8385C81.4398 16.7557 81.385 16.6732 81.3301 16.5907C81.3015 16.5478 81.2729 16.5048 81.2434 16.4605C80.0052 14.6498 78.2458 12.4946 75.9728 12.0283C74.9052 11.8894 73.9029 12.1316 73.0415 12.7699C72.939 12.852 72.8372 12.9349 72.7363 13.0189C72.6997 13.047 72.6631 13.0752 72.6254 13.1042C71.5078 13.9896 70.7894 15.5643 70.3794 16.8911C70.3601 16.9513 70.3409 17.0116 70.3211 17.0737C69.2914 20.4652 69.4707 24.6301 71.1043 27.8007C71.885 29.2609 72.9035 30.496 74.5326 31.0063C75.166 31.1566 75.7671 31.1172 76.384 30.9206C76.441 30.9028 76.498 30.885 76.5568 30.8667C78.0894 30.3344 79.4068 28.9827 80.3684 27.7219C80.4292 27.6451 80.49 27.5684 80.551 27.4917C80.9126 27.0348 81.2611 26.5752 81.5721 26.0818C81.642 25.9748 81.642 25.9748 81.7714 25.8139C81.8454 25.8139 81.9195 25.8139 81.9958 25.8139C81.9958 27.5917 81.9958 29.3695 81.9958 31.2012C81.6625 31.2938 81.3292 31.3864 80.9857 31.4818C80.7661 31.5466 80.7661 31.5466 80.5466 31.6119C77.2494 32.5889 73.3823 33.069 70.211 31.4818C70.1558 31.4548 70.1558 31.4548 70.0994 31.4272C69.5553 31.1598 69.0648 30.8397 68.5836 30.4717C68.505 30.4121 68.505 30.4121 68.4249 30.3513C67.3961 29.5407 66.5723 28.5327 65.946 27.3852C65.9171 27.3324 65.9171 27.3324 65.8876 27.2786C64.4026 24.5323 64.1102 21.0395 64.951 18.0483C65.417 16.4928 66.1583 15.013 67.2801 13.8271C67.4073 13.6934 67.4073 13.6934 67.5219 13.5455C67.6856 13.3421 67.8783 13.1855 68.0785 13.0189C68.1227 12.9816 68.1227 12.9816 68.1678 12.9436C71.0415 10.5297 74.85 10.2046 78.4139 10.9649Z" fill="white"/>
<path d="M105.846 10.8867C107.865 10.8867 109.883 10.8867 111.963 10.8867C111.926 11.2617 111.884 11.5696 111.781 11.9214C111.659 12.3622 111.561 12.8052 111.476 13.2542C111.459 13.3394 111.459 13.3394 111.441 13.4263C111.226 14.5888 111.217 15.7726 111.216 16.9509C111.215 17.1037 111.215 17.2565 111.214 17.4093C111.213 17.7352 111.212 18.0611 111.211 18.387C111.21 18.8582 111.209 19.3294 111.207 19.8006C111.205 20.5655 111.203 21.3303 111.201 22.0952C111.199 22.8373 111.197 23.5793 111.195 24.3213C111.195 24.3672 111.195 24.4132 111.195 24.4605C111.194 24.6908 111.193 24.9212 111.193 25.1516C111.187 27.056 111.182 28.9604 111.177 30.8648C111.648 30.8627 112.118 30.8593 112.588 30.8545C112.807 30.8523 113.025 30.8505 113.244 30.8496C113.455 30.8487 113.667 30.8468 113.878 30.8441C113.958 30.8433 114.038 30.8429 114.118 30.8428C115.63 30.841 116.778 30.0391 117.83 29.0331C117.946 28.9247 118.065 28.8217 118.185 28.7183C118.373 28.552 118.539 28.377 118.701 28.1854C118.834 28.0308 118.972 27.882 119.111 27.7327C119.358 27.4664 119.59 27.1914 119.816 26.9069C119.941 26.7571 120.067 26.6183 120.212 26.4876C120.268 26.4876 120.324 26.4876 120.381 26.4876C120.381 28.3395 120.381 30.1914 120.381 32.0994C115.584 32.0994 110.788 32.0994 105.846 32.0994C105.909 31.5327 105.909 31.5327 105.974 31.3184C105.994 31.2467 105.994 31.2467 106.016 31.1737C106.03 31.1238 106.045 31.074 106.06 31.0226C106.183 30.5907 106.286 30.1599 106.365 29.7179C106.374 29.6709 106.382 29.6239 106.391 29.5755C106.417 29.4256 106.44 29.2754 106.463 29.1251C106.473 29.0696 106.482 29.014 106.492 28.9568C106.594 28.2971 106.592 27.6425 106.591 26.9762C106.591 26.8459 106.592 26.7157 106.592 26.5854C106.593 26.2337 106.593 25.882 106.593 25.5304C106.593 25.1982 106.593 24.866 106.593 24.5338C106.594 23.8353 106.594 23.1367 106.593 22.4382C106.593 21.8021 106.594 21.1659 106.595 20.5297C106.596 19.8736 106.596 19.2175 106.596 18.5614C106.596 18.1942 106.596 17.827 106.597 17.4598C106.598 17.114 106.598 16.7682 106.597 16.4224C106.597 16.2965 106.597 16.1706 106.597 16.0447C106.601 14.9849 106.489 13.9625 106.274 12.9245C106.262 12.8667 106.251 12.8089 106.239 12.7494C106.152 12.3286 106.05 11.9129 105.932 11.4997C105.87 11.2813 105.846 11.1176 105.846 10.8867Z" fill="white"/>
<path d="M23.6327 16.7227C24.4476 16.7227 25.2624 16.7227 26.1019 16.7227C26.1204 19.0931 26.139 21.4635 26.158 23.9058C27.8062 22.2576 29.4544 20.6094 31.1526 18.9113C31.332 19.001 31.4143 19.0468 31.5468 19.1805C31.5782 19.2119 31.6096 19.2434 31.642 19.2758C31.6753 19.3096 31.7085 19.3434 31.7427 19.3782C31.7772 19.4129 31.8118 19.4476 31.8474 19.4834C31.9574 19.5941 32.0671 19.7051 32.1767 19.8162C32.2514 19.8914 32.3261 19.9666 32.4008 20.0417C32.5836 20.2258 32.7661 20.4102 32.9483 20.5948C32.6933 20.9006 32.4228 21.1842 32.1407 21.465C32.0939 21.5117 32.0472 21.5585 31.999 21.6067C31.8486 21.757 31.6981 21.9071 31.5476 22.0572C31.4543 22.1504 31.361 22.2436 31.2678 22.3368C30.9232 22.6811 30.5784 23.0251 30.2336 23.3692C29.0773 24.5237 29.0773 24.5237 27.8977 25.7016C30.2681 25.7201 32.6386 25.7386 35.0808 25.7577C35.0808 26.5725 35.0808 27.3874 35.0808 28.2269C34.1603 28.2307 33.2398 28.2338 32.3193 28.2356C31.8918 28.2365 31.4644 28.2377 31.0369 28.2396C30.6642 28.2413 30.2915 28.2424 29.9187 28.2427C29.7215 28.243 29.5243 28.2435 29.3271 28.2447C29.1065 28.2461 28.886 28.2461 28.6654 28.246C28.6006 28.2466 28.5357 28.2472 28.469 28.2478C27.9759 28.246 27.5454 28.1924 27.1787 27.8376C27.1083 27.7711 27.1083 27.7711 27.0364 27.7032C26.9321 27.5983 26.8305 27.4928 26.73 27.3845C26.2466 26.8679 25.7558 26.483 25.0246 26.4495C24.2616 26.4447 23.7772 26.631 23.2316 27.167C23.1312 27.2679 23.0319 27.3697 22.9326 27.4717C22.2669 28.1545 22.2669 28.1545 21.8145 28.1777C21.7609 28.1776 21.7072 28.1776 21.652 28.1775C21.5904 28.1776 21.5287 28.1777 21.4653 28.1778C21.3976 28.1776 21.33 28.1774 21.2604 28.1771C21.1892 28.1772 21.118 28.1772 21.0447 28.1772C20.8494 28.1772 20.6542 28.1769 20.459 28.1765C20.2549 28.1761 20.0509 28.1761 19.8469 28.176C19.4605 28.1758 19.0742 28.1754 18.6878 28.1748C18.248 28.1742 17.8081 28.1739 17.3683 28.1736C16.4635 28.173 15.5586 28.172 14.6538 28.1708C14.6538 27.3745 14.6538 26.5781 14.6538 25.7577C17.0242 25.7392 19.3947 25.7207 21.8369 25.7016C20.1702 24.0349 18.5035 22.3681 16.7863 20.6509C16.876 20.4715 16.9219 20.3892 17.0555 20.2567C17.087 20.2253 17.1184 20.1939 17.1508 20.1615C17.1846 20.1282 17.2184 20.095 17.2532 20.0608C17.2879 20.0263 17.3227 19.9917 17.3584 19.9561C17.4691 19.8461 17.5801 19.7364 17.6912 19.6268C17.7664 19.5521 17.8416 19.4774 17.9168 19.4027C18.1008 19.2199 18.2852 19.0374 18.4698 18.8551C18.7756 19.1102 19.0592 19.3807 19.34 19.6628C19.3868 19.7096 19.4335 19.7563 19.4817 19.8045C19.632 19.9549 19.7821 20.1054 19.9322 20.2559C20.0254 20.3492 20.1186 20.4424 20.2118 20.5357C20.5561 20.8803 20.9001 21.2251 21.2442 21.5699C22.0139 22.3407 22.7836 23.1116 23.5766 23.9058C23.6044 20.3501 23.6044 20.3501 23.6327 16.7227Z" fill="#FDFEFE"/>
<path d="M18.5121 33.1092C18.6979 33.1925 18.8899 33.2547 19.0836 33.3166C19.1205 33.3286 19.1573 33.3407 19.1953 33.3531C20.6808 33.8128 22.272 33.4541 23.6233 32.7915C24.3147 32.5008 25.2384 32.474 25.9364 32.7538C25.991 32.7787 26.0456 32.8035 26.1019 32.829C26.174 32.8606 26.2461 32.8921 26.3183 32.9235C26.4345 32.9744 26.5507 33.0254 26.6667 33.077C27.4517 33.425 28.138 33.5125 28.992 33.513C29.0986 33.514 29.0986 33.514 29.2075 33.5151C29.5912 33.5157 29.9421 33.4996 30.3108 33.3902C30.3774 33.3709 30.444 33.3516 30.5126 33.3317C30.9325 33.193 31.3375 33.0371 31.7394 32.8521C32.4789 32.5147 33.346 32.4764 34.1152 32.7538C34.3657 32.8585 34.6149 32.966 34.8628 33.077C35.6001 33.4064 36.2479 33.5032 37.0484 33.534C37.1077 33.5364 37.167 33.5389 37.2281 33.5414C37.3728 33.5473 37.5175 33.553 37.6622 33.5586C37.4541 34.2614 37.0309 34.9191 36.6346 35.5297C36.607 35.5733 36.5795 35.6168 36.5511 35.6616C36.359 35.9498 36.359 35.9498 36.1821 36.0385C35.9684 36.0229 35.7939 35.94 35.6034 35.8489C35.5226 35.8121 35.4418 35.7753 35.361 35.7386C35.2863 35.7041 35.2116 35.6695 35.1369 35.6349C33.9699 35.1013 32.4755 35.0588 31.2613 35.4868C30.9395 35.6088 30.6292 35.7555 30.3178 35.9015C30.056 36.022 29.8098 36.0972 29.5251 36.14C29.4573 36.1513 29.4573 36.1513 29.3881 36.1628C28.6551 36.2589 27.9966 36.1168 27.3365 35.8033C26.7569 35.5525 26.7569 35.5525 26.158 35.3544C26.1168 35.3428 26.0755 35.3312 26.0331 35.3193C24.7975 35.0369 23.4273 35.2773 22.3003 35.8215C21.4418 36.2358 20.5607 36.3123 19.6483 36.0278C19.4357 35.9444 19.2296 35.8475 19.0229 35.7506C18.7294 35.6144 18.4367 35.5045 18.1261 35.414C18.0883 35.4028 18.0504 35.3916 18.0115 35.3801C16.62 34.9912 15.2053 35.2918 13.9433 35.9256C13.7896 35.9795 13.7377 35.9731 13.5875 35.9155C13.504 35.8264 13.504 35.8264 13.4257 35.7104C13.3964 35.6673 13.3671 35.6242 13.3368 35.5799C13.3061 35.5332 13.2754 35.4866 13.2438 35.4385C13.196 35.3671 13.196 35.3671 13.1472 35.2943C12.9365 34.9765 12.7337 34.6544 12.5388 34.3267C12.5158 34.2882 12.4929 34.2497 12.4692 34.2101C12.3461 33.9981 12.2533 33.7956 12.1846 33.5586C12.2552 33.5565 12.3258 33.5544 12.3985 33.5522C13.5841 33.5103 14.49 33.2373 15.5646 32.7462C16.5741 32.3412 17.5989 32.6251 18.5121 33.1092Z" fill="#1DB4E8"/>
<path d="M127.451 21.998C132.319 21.998 132.319 21.998 133.46 23.0608C134.343 24.0027 134.701 25.1094 134.701 26.3805C134.701 26.4967 134.702 26.6129 134.703 26.7292C134.708 27.8554 134.445 28.9446 133.651 29.779C132.018 31.3336 129.495 30.8647 127.451 30.8647C127.451 27.9387 127.451 25.0127 127.451 21.998Z" fill="#16ABE4"/>
<path d="M18.3316 37.8402C19.0298 38.1969 19.7159 38.3344 20.49 38.3845C20.5669 38.3896 20.5669 38.3896 20.6452 38.3948C20.782 38.3988 20.9147 38.3936 21.0512 38.3845C21.1193 38.3807 21.1874 38.3768 21.2575 38.3729C22.1216 38.3071 22.9236 38.0015 23.6931 37.6135C24.0836 37.445 24.444 37.4114 24.8637 37.413C24.911 37.4121 24.9583 37.4112 25.007 37.4102C25.5059 37.4098 25.9021 37.5795 26.3511 37.7819C27.2082 38.1663 27.9413 38.3473 28.8832 38.3529C28.9556 38.3535 29.028 38.3541 29.1026 38.3547C29.8433 38.3479 30.5163 38.2265 31.1876 37.911C31.2892 37.8659 31.3909 37.8211 31.4927 37.7764C31.5406 37.7553 31.5885 37.7342 31.6378 37.7125C32.4507 37.3583 33.2961 37.2953 34.1401 37.5894C34.308 37.6604 34.4698 37.7398 34.6318 37.8233C34.4185 38.0837 34.1978 38.3179 33.9409 38.5353C33.9072 38.5639 33.8735 38.5925 33.8388 38.6219C32.8543 39.4428 31.7469 40.0818 30.5913 40.6292C30.5056 40.6711 30.5056 40.6711 30.4181 40.7139C27.5191 42.0502 23.9659 42.2046 20.939 41.2465C20.9002 41.2343 20.8614 41.222 20.8214 41.2094C18.7791 40.5438 16.8316 39.2922 15.3271 37.7672C15.4095 37.6026 15.5089 37.5949 15.6814 37.5357C16.6031 37.2644 17.4929 37.4063 18.3316 37.8402Z" fill="#27C2EB"/>
<path d="M127.451 12.1777C131.516 12.1777 131.516 12.1777 132.522 13.1381C133.417 14.117 133.734 15.3943 133.7 16.6944C133.642 17.894 133.169 19.1548 132.278 19.9782C130.872 21.0894 129.219 20.7638 127.451 20.7638C127.451 17.9304 127.451 15.097 127.451 12.1777Z" fill="#16ABE4"/>
<path d="M129.135 39.5638C129.617 39.5638 130.098 39.5638 130.594 39.5638C130.613 40.4897 130.631 41.4157 130.65 42.3697C130.909 42.0919 131.169 41.8141 131.436 41.5279C131.713 41.2508 131.713 41.2508 131.832 41.1331C131.937 41.0273 132.034 40.9182 132.13 40.8054C132.339 40.5614 132.567 40.3385 132.797 40.1142C132.946 39.9732 132.946 39.9732 133.016 39.851C133.098 39.7247 133.162 39.6484 133.288 39.5638C133.567 39.5152 133.841 39.5267 134.123 39.5392C134.199 39.5412 134.276 39.543 134.353 39.5446C134.541 39.5492 134.728 39.5557 134.915 39.5638C134.537 40.0065 134.155 40.4427 133.754 40.865C133.442 41.1958 133.131 41.5279 132.823 41.8634C132.7 41.9974 132.576 42.1302 132.446 42.2575C132.534 42.5537 132.727 42.7565 132.923 42.987C132.995 43.0727 133.067 43.1585 133.138 43.2444C133.173 43.2865 133.209 43.3287 133.245 43.3721C133.424 43.5893 133.593 43.8136 133.764 44.0377C133.956 44.2891 134.154 44.5351 134.353 44.7815C134.38 44.815 134.407 44.8485 134.434 44.883C134.458 44.9124 134.482 44.9419 134.506 44.9722C134.588 45.076 134.668 45.1817 134.747 45.2878C135.016 44.7653 135.257 44.2332 135.494 43.6955C135.573 43.5164 135.652 43.3374 135.732 43.1584C135.752 43.1125 135.772 43.0666 135.793 43.0192C136.043 42.4538 136.296 41.8897 136.549 41.3255C136.812 40.7396 137.072 40.1524 137.328 39.5638C137.81 39.5638 138.291 39.5638 138.787 39.5638C139.012 40.0057 139.223 40.4499 139.422 40.9036C139.481 41.0371 139.54 41.1706 139.599 41.3041C139.623 41.3572 139.623 41.3572 139.646 41.4113C139.772 41.6953 139.899 41.9788 140.026 42.2621C140.045 42.306 140.065 42.3499 140.085 42.3951C140.126 42.4851 140.166 42.5751 140.206 42.665C140.542 43.413 140.875 44.1618 141.204 44.9126C141.221 44.9516 141.238 44.9907 141.256 45.031C141.304 45.1397 141.351 45.2485 141.399 45.3573C141.426 45.4187 141.452 45.4801 141.48 45.5433C141.537 45.6807 141.537 45.6807 141.537 45.7368C141.037 45.7368 140.537 45.7368 140.022 45.7368C139.812 45.2992 139.658 44.9165 139.517 44.4461C138.554 44.4461 137.591 44.4461 136.599 44.4461C136.543 44.6313 136.488 44.8165 136.43 45.0073C136.374 45.1419 136.315 45.2754 136.252 45.4071C136.222 45.4697 136.192 45.5324 136.161 45.5969C136.139 45.6431 136.117 45.6892 136.094 45.7368C135.711 45.7525 135.329 45.7633 134.947 45.7707C134.817 45.7738 134.687 45.778 134.557 45.7834C133.416 45.8292 133.416 45.8292 133.152 45.6069C133.023 45.4498 132.932 45.2991 132.839 45.1195C132.761 45.0208 132.682 44.9235 132.6 44.8284C132.511 44.7197 132.423 44.6109 132.334 44.5022C132.304 44.4653 132.273 44.4283 132.242 44.3903C132.143 44.2686 132.044 44.1469 131.944 44.0252C131.913 43.9862 131.881 43.9472 131.848 43.907C131.818 43.8702 131.788 43.8334 131.757 43.7955C131.73 43.7626 131.703 43.7298 131.676 43.696C131.611 43.6124 131.551 43.5243 131.492 43.4359C131.139 43.5987 130.813 43.8016 130.65 44.1655C130.555 44.6818 130.579 45.2142 130.594 45.7368C130.113 45.7368 129.631 45.7368 129.135 45.7368C129.135 43.6997 129.135 41.6626 129.135 39.5638Z" fill="white"/>
<path d="M147.935 14.5342C147.972 14.5342 148.009 14.5342 148.047 14.5342C148.06 14.5697 148.073 14.6052 148.087 14.6418C148.437 15.5818 148.437 15.5818 148.801 16.5164C148.904 16.7781 148.998 17.0427 149.091 17.3083C149.323 17.9709 149.573 18.6267 149.822 19.2832C149.872 19.4161 149.922 19.549 149.972 19.6819C150.242 20.3953 150.513 21.1081 150.79 21.819C150.816 21.887 150.842 21.9549 150.87 22.0249C150.917 22.1481 150.965 22.2713 151.013 22.3945C151.105 22.6315 151.197 22.8686 151.288 23.1062C151.313 23.1719 151.338 23.2376 151.364 23.3053C151.414 23.457 151.414 23.457 151.414 23.6253C149.21 23.6253 147.006 23.6253 144.736 23.6253C144.862 23.121 144.862 23.121 144.938 22.9197C144.954 22.874 144.971 22.8283 144.989 22.7812C145.016 22.7077 145.016 22.7077 145.044 22.6327C145.214 22.1729 145.377 21.7113 145.536 21.2473C146.305 18.9993 147.124 16.7677 147.935 14.5342Z" fill="#16ABE4"/>
<path d="M122.681 39.563C123.194 39.5595 123.707 39.5561 124.235 39.5525C124.396 39.5509 124.556 39.5494 124.721 39.5478C124.85 39.5473 124.98 39.5469 125.109 39.5466C125.175 39.5457 125.24 39.5448 125.307 39.5439C126.097 39.5437 126.776 39.7207 127.413 40.1978C127.875 40.6598 128.073 41.1586 128.09 41.8077C128.073 42.4146 127.909 42.8619 127.508 43.3229C127.366 43.449 127.218 43.557 127.059 43.6596C127.003 43.6967 126.948 43.7337 126.89 43.7719C126.981 44.0525 127.147 44.2689 127.318 44.5049C127.379 44.5897 127.44 44.6745 127.5 44.7594C127.53 44.8011 127.56 44.8428 127.59 44.8857C128.125 45.6402 128.125 45.6402 128.125 45.736C127.727 45.767 127.33 45.7849 126.931 45.7772C126.865 45.7762 126.8 45.7752 126.733 45.7741C126.503 45.7252 126.418 45.6344 126.269 45.4554C126.229 45.3613 126.188 45.267 126.152 45.171C126.057 44.954 125.909 44.7672 125.771 44.5751C125.718 44.4977 125.665 44.4204 125.612 44.3429C125.505 44.1795 125.505 44.1795 125.431 44.1086C125.335 44.0997 125.239 44.0945 125.143 44.0908C125.091 44.0887 125.039 44.0865 124.985 44.0843C124.918 44.0819 124.851 44.0795 124.782 44.077C124.571 44.0689 124.359 44.0608 124.14 44.0525C124.14 44.6265 124.14 45.2006 124.14 45.7921C123.659 45.7921 123.177 45.7921 122.681 45.7921C122.681 43.7365 122.681 41.6809 122.681 39.563Z" fill="white"/>
<path d="M96.5864 39.5635C96.9938 39.5635 97.4013 39.5635 97.821 39.5635C98.0283 39.8049 98.119 39.9151 98.2266 40.1898C98.297 40.3573 98.3957 40.5056 98.4929 40.6587C98.5694 40.7846 98.6459 40.9106 98.7224 41.0366C98.7635 41.1042 98.8046 41.1718 98.8457 41.2394C99.0551 41.5841 99.2632 41.9294 99.4691 42.2762C99.5079 42.3416 99.5468 42.4069 99.5857 42.4723C99.659 42.5958 99.7322 42.7194 99.805 42.8433C99.8377 42.8983 99.8705 42.9534 99.9042 43.0101C99.9328 43.0586 99.9614 43.1071 99.9909 43.1571C100.058 43.2746 100.058 43.2746 100.178 43.3234C100.193 43.2828 100.208 43.2422 100.224 43.2004C100.289 43.0453 100.364 42.9093 100.452 42.7657C100.485 42.7116 100.517 42.6576 100.551 42.6018C100.586 42.5437 100.622 42.4855 100.659 42.4255C100.735 42.2999 100.81 42.1743 100.886 42.0487C100.916 41.9995 100.916 41.9995 100.946 41.9494C101.224 41.4888 101.494 41.024 101.765 40.5595C101.784 40.5263 101.803 40.4932 101.823 40.459C101.876 40.3696 101.928 40.28 101.98 40.1905C102.106 39.9795 102.236 39.7717 102.367 39.5635C102.774 39.5635 103.181 39.5635 103.601 39.5635C103.601 41.6006 103.601 43.6377 103.601 45.7365C103.138 45.7365 102.675 45.7365 102.198 45.7365C102.18 44.5883 102.161 43.4401 102.142 42.2572C101.999 42.5025 101.855 42.7479 101.707 43.0007C101.378 43.5626 101.047 44.1231 100.711 44.6805C100.685 44.7225 100.66 44.7644 100.634 44.8077C100.612 44.8438 100.59 44.8798 100.568 44.917C100.529 44.983 100.493 45.0507 100.459 45.1192C100.354 45.1329 100.248 45.1427 100.143 45.1507C100.084 45.1566 100.026 45.1625 99.9654 45.1685C99.6737 45.0887 99.5936 44.8664 99.4485 44.6141C99.3733 44.4916 99.298 44.3691 99.2227 44.2467C99.141 44.1121 99.0597 43.9773 98.9785 43.8425C98.9173 43.7413 98.8562 43.6401 98.795 43.5389C98.7391 43.4466 98.6834 43.3542 98.6276 43.2619C98.4349 42.9449 98.2399 42.6292 98.0455 42.3133C98.027 43.4429 98.0085 44.5726 97.9894 45.7365C97.5264 45.7365 97.0634 45.7365 96.5864 45.7365C96.5864 43.6994 96.5864 41.6623 96.5864 39.5635Z" fill="white"/>
<path d="M107.529 39.5635C107.918 39.5635 108.307 39.5635 108.708 39.5635C109.107 40.0607 109.107 40.0607 109.22 40.3042C109.391 40.6555 109.591 40.9843 109.795 41.3172C109.866 41.4354 109.937 41.5537 110.007 41.6721C110.337 42.2247 110.673 42.774 111.009 43.3234C111.358 42.7676 111.703 42.2101 112.033 41.6427C112.099 41.5305 112.165 41.4186 112.231 41.3071C112.4 41.0226 112.554 40.7389 112.692 40.4384C112.735 40.3522 112.735 40.3522 112.778 40.2644C112.862 40.0993 112.862 40.0993 112.925 39.934C113.001 39.7862 113.001 39.7862 113.253 39.5635C113.661 39.5635 114.068 39.5635 114.488 39.5635C114.488 41.6006 114.488 43.6377 114.488 45.7365C114.044 45.7365 113.599 45.7365 113.141 45.7365C113.123 44.5698 113.104 43.4031 113.085 42.201C112.944 42.4325 112.803 42.664 112.657 42.9025C112.587 43.0172 112.587 43.0172 112.515 43.1342C112.305 43.4767 112.102 43.8203 111.916 44.1766C111.867 44.2696 111.867 44.2696 111.816 44.3645C111.754 44.4819 111.693 44.6003 111.636 44.7199C111.55 44.8791 111.479 44.9976 111.345 45.1192C111.107 45.1884 110.911 45.1839 110.672 45.1192C110.531 44.9908 110.486 44.9319 110.409 44.7684C110.364 44.6869 110.319 44.6054 110.274 44.524C110.237 44.4538 110.237 44.4538 110.199 44.3821C110.095 44.1932 109.984 44.0093 109.872 43.8256C109.85 43.791 109.829 43.7565 109.807 43.7208C109.764 43.6504 109.721 43.5799 109.677 43.5094C109.573 43.3402 109.47 43.1704 109.368 43.0005C109.332 42.9424 109.297 42.8844 109.261 42.8246C109.149 42.6369 109.041 42.4469 108.932 42.2572C108.914 43.4053 108.895 44.5535 108.876 45.7365C108.432 45.7365 107.987 45.7365 107.529 45.7365C107.529 43.6994 107.529 41.6623 107.529 39.5635Z" fill="white"/>
<path d="M82.08 39.5566C82.1409 39.5569 82.2017 39.5572 82.2644 39.5575C82.33 39.5577 82.3957 39.5579 82.4633 39.5581C82.5324 39.5585 82.6016 39.559 82.6728 39.5595C82.7768 39.5599 82.7768 39.5599 82.8829 39.5603C83.0549 39.5609 83.2268 39.5619 83.3988 39.563C83.421 39.613 83.4432 39.6631 83.4661 39.7146C83.5734 39.9564 83.6808 40.1981 83.7881 40.4399C83.8081 40.4849 83.8281 40.5299 83.8487 40.5763C84.1374 41.2261 84.4272 41.8753 84.7179 42.5242C85.0379 43.2384 85.3574 43.9529 85.6746 44.6684C85.7121 44.7529 85.7497 44.8375 85.7874 44.922C85.8391 45.038 85.8905 45.1542 85.9419 45.2704C85.9711 45.3362 86.0003 45.402 86.0304 45.4697C86.0925 45.6238 86.0925 45.6238 86.0925 45.736C85.5925 45.736 85.0925 45.736 84.5773 45.736C84.494 45.5439 84.4106 45.3517 84.3248 45.1538C84.2852 45.063 84.2852 45.063 84.2449 44.9704C84.2243 44.9229 84.2038 44.8753 84.1827 44.8263C84.1616 44.7775 84.1404 44.7287 84.1186 44.6785C84.0722 44.5575 84.0722 44.5575 84.0722 44.4453C82.6555 44.4731 82.6555 44.4731 81.2102 44.5014C81.0435 44.8903 80.8769 45.2792 80.7051 45.6799C80.649 45.736 80.649 45.736 80.5087 45.7424C80.4479 45.7421 80.387 45.7418 80.3244 45.7415C80.2259 45.7412 80.2259 45.7412 80.1254 45.7409C80.0217 45.7402 80.0217 45.7402 79.916 45.7395C79.812 45.7391 79.812 45.7391 79.7059 45.7388C79.5339 45.7381 79.3619 45.7372 79.1899 45.736C79.2742 45.4658 79.3812 45.2131 79.4986 44.9563C79.5181 44.9132 79.5376 44.8701 79.5577 44.8257C79.6 44.7324 79.6423 44.6392 79.6846 44.546C79.799 44.2944 79.9128 44.0425 80.0265 43.7905C80.05 43.7383 80.0736 43.6861 80.0978 43.6323C80.351 43.0703 80.5984 42.5058 80.8454 41.941C81.1151 41.3248 81.3848 40.7087 81.6627 40.0961C81.6851 40.0465 81.7075 39.9969 81.7306 39.9458C81.9046 39.5646 81.9046 39.5646 82.08 39.5566Z" fill="white"/>
<path d="M117.855 39.5635C118.337 39.5635 118.818 39.5635 119.314 39.5635C119.617 40.2077 119.912 40.8546 120.205 41.5031C120.228 41.5536 120.251 41.6041 120.274 41.6562C120.616 42.4124 120.957 43.1693 121.296 43.9267C121.325 43.992 121.325 43.992 121.355 44.0586C122.064 45.6404 122.064 45.6404 122.064 45.7365C121.564 45.7365 121.064 45.7365 120.549 45.7365C120.339 45.2989 120.185 44.9162 120.044 44.4458C119.081 44.4458 118.118 44.4458 117.126 44.4458C117.07 44.6124 117.015 44.7791 116.957 44.9508C116.85 45.2149 116.735 45.4751 116.621 45.7365C116.139 45.7365 115.658 45.7365 115.162 45.7365C115.201 45.5393 115.228 45.4133 115.308 45.2397C115.326 45.199 115.345 45.1583 115.364 45.1163C115.394 45.0508 115.394 45.0508 115.425 44.9839C115.446 44.9375 115.467 44.8911 115.489 44.8432C115.535 44.7431 115.58 44.643 115.626 44.5429C115.749 44.2762 115.87 44.0091 115.992 43.7421C116.016 43.6879 116.041 43.6337 116.066 43.5779C116.3 43.0653 116.529 42.5511 116.757 42.0362C116.794 41.9536 116.831 41.8711 116.867 41.7885C116.938 41.6293 117.008 41.47 117.079 41.3107C117.244 40.9386 117.409 40.5667 117.575 40.1948C117.667 39.9865 117.76 39.7781 117.855 39.5635Z" fill="white"/>
<path d="M141.818 39.5635C143.54 39.5635 145.262 39.5635 147.037 39.5635C147.037 40.6184 147.037 40.6184 146.726 40.9419C146.68 40.987 146.635 41.0322 146.588 41.0787C146.487 41.1949 146.388 41.3116 146.29 41.4294C146.25 41.4755 146.25 41.4755 146.21 41.5224C146.024 41.7418 145.845 41.9663 145.669 42.194C145.422 42.5125 145.162 42.817 144.896 43.1198C144.632 43.422 144.383 43.7343 144.138 44.0516C144.02 44.2029 143.901 44.3525 143.782 44.5019C145.476 44.5297 145.476 44.5297 147.205 44.558C147.205 44.9469 147.205 45.3358 147.205 45.7365C145.409 45.7365 143.612 45.7365 141.761 45.7365C141.761 44.6753 141.761 44.6753 141.975 44.4507C142.005 44.4236 142.036 44.3965 142.067 44.3686C142.129 44.3043 142.192 44.2399 142.254 44.1755C142.285 44.1452 142.316 44.1148 142.348 44.0836C142.469 43.9628 142.574 43.8321 142.68 43.6987C143.157 43.1119 143.637 42.5274 144.127 41.9513C144.449 41.5722 144.762 41.1863 145.072 40.7981C143.998 40.7796 142.924 40.761 141.818 40.742C141.818 40.3531 141.818 39.9642 141.818 39.5635Z" fill="white"/>
<path d="M74.1953 39.5635C75.9546 39.5635 77.7139 39.5635 79.5265 39.5635C79.5265 39.9524 79.5265 40.3413 79.5265 40.742C78.8784 40.742 78.2302 40.742 77.5624 40.742C77.5624 42.3902 77.5624 44.0383 77.5624 45.7365C77.0809 45.7365 76.5994 45.7365 76.1033 45.7365C76.1033 44.0883 76.1033 42.4401 76.1033 40.742C75.4737 40.742 74.844 40.742 74.1953 40.742C74.1953 40.3531 74.1953 39.9642 74.1953 39.5635Z" fill="white"/>
<path d="M88.3933 39.5635C88.8748 39.5635 89.3563 39.5635 89.8524 39.5635C89.8524 41.2117 89.8524 42.8599 89.8524 44.558C90.8709 44.558 91.8895 44.558 92.9389 44.558C92.9389 44.9469 92.9389 45.3358 92.9389 45.7365C91.4388 45.7365 89.9388 45.7365 88.3933 45.7365C88.3933 43.6994 88.3933 41.6623 88.3933 39.5635Z" fill="white"/>
<path d="M148.047 39.5635C148.528 39.5635 149.01 39.5635 149.506 39.5635C149.506 41.6006 149.506 43.6377 149.506 45.7365C149.024 45.7365 148.543 45.7365 148.047 45.7365C148.047 43.6994 148.047 41.6623 148.047 39.5635Z" fill="white"/>
<path d="M93.7244 39.5635C94.2059 39.5635 94.6874 39.5635 95.1834 39.5635C95.1834 41.6006 95.1834 43.6377 95.1834 45.7365C94.7019 45.7365 94.2205 45.7365 93.7244 45.7365C93.7244 43.6994 93.7244 41.6623 93.7244 39.5635Z" fill="white"/>
<path d="M124.141 40.7422C124.379 40.7376 124.617 40.733 124.863 40.7282C124.937 40.7262 125.011 40.7241 125.087 40.722C125.527 40.7179 125.961 40.7467 126.309 41.046C126.546 41.3119 126.635 41.5632 126.623 41.9181C126.583 42.2639 126.419 42.4724 126.167 42.6917C125.766 42.9317 125.326 42.8879 124.874 42.8817C124.511 42.8783 124.511 42.8783 124.141 42.8747C124.141 42.171 124.141 41.4673 124.141 40.7422Z" fill="#22BBEA"/>
<path d="M86.0923 39.5635C86.4812 39.5635 86.8701 39.5635 87.2708 39.5635C87.264 39.842 87.2571 40.1204 87.2499 40.3989C87.2475 40.4934 87.2451 40.5879 87.2429 40.6825C87.2396 40.8192 87.236 40.9558 87.2324 41.0925C87.231 41.1549 87.231 41.1549 87.2296 41.2185C87.2215 41.5112 87.1938 41.7981 87.1585 42.0888C86.8252 42.0888 86.4918 42.0888 86.1484 42.0888C86.1023 41.2457 86.0871 40.4079 86.0923 39.5635Z" fill="white"/>
<path d="M82.6129 41.0225C82.7721 41.1816 82.8355 41.3768 82.9203 41.5817C82.9388 41.626 82.9573 41.6702 82.9764 41.7159C83.0155 41.8095 83.0545 41.9033 83.0933 41.9971C83.1528 42.1407 83.213 42.2841 83.2732 42.4275C83.3111 42.5185 83.349 42.6095 83.3868 42.7005C83.4048 42.7435 83.4229 42.7865 83.4415 42.8307C83.567 43.1356 83.567 43.1356 83.567 43.3233C82.9373 43.3233 82.3077 43.3233 81.6589 43.3233C81.9185 42.6744 81.9185 42.6744 82.0028 42.4639C82.1124 42.19 82.222 41.9161 82.3304 41.6417C82.3459 41.6027 82.3613 41.5636 82.3773 41.5234C82.4174 41.4219 82.4574 41.3204 82.4974 41.2189C82.5568 41.0786 82.5568 41.0786 82.6129 41.0225Z" fill="#22BBEA"/>
<path d="M138.002 41.0781C138.039 41.0781 138.076 41.0781 138.114 41.0781C138.242 41.3797 138.37 41.6813 138.498 41.9831C138.541 42.0858 138.585 42.1884 138.628 42.2911C138.691 42.4383 138.753 42.5857 138.815 42.7332C138.835 42.7792 138.855 42.8253 138.875 42.8728C139.012 43.1978 139.012 43.1978 139.012 43.3229C138.382 43.3229 137.752 43.3229 137.104 43.3229C137.21 43.0035 137.317 42.6961 137.448 42.3879C137.464 42.35 137.48 42.3121 137.496 42.2731C137.547 42.1541 137.597 42.0352 137.647 41.9164C137.682 41.8349 137.716 41.7534 137.751 41.6719C137.834 41.4739 137.918 41.276 138.002 41.0781Z" fill="#22BBEA"/>
<path d="M118.529 41.0781C118.566 41.0781 118.603 41.0781 118.641 41.0781C118.769 41.3797 118.897 41.6813 119.025 41.9831C119.068 42.0858 119.112 42.1884 119.155 42.2911C119.218 42.4383 119.28 42.5857 119.342 42.7332C119.362 42.7792 119.382 42.8253 119.402 42.8728C119.539 43.1978 119.539 43.1978 119.539 43.3229C118.909 43.3229 118.28 43.3229 117.631 43.3229C117.737 43.0035 117.844 42.6961 117.975 42.3879C117.991 42.35 118.007 42.3121 118.024 42.2731C118.074 42.1541 118.124 42.0352 118.175 41.9164C118.209 41.8349 118.243 41.7534 118.278 41.6719C118.361 41.4739 118.445 41.276 118.529 41.0781Z" fill="#22BBEA"/>
</svg>
