<svg width="19" height="19" viewBox="0 0 19 19" fill="none" xmlns="http://www.w3.org/2000/svg">
<path fill-rule="evenodd" clip-rule="evenodd" d="M10 0.25C9.58579 0.25 9.25 0.585786 9.25 1C9.25 1.41421 9.58579 1.75 10 1.75C10.9521 1.75 11.8948 1.93753 12.7745 2.30187C13.6541 2.66622 14.4533 3.20025 15.1265 3.87348C15.7997 4.5467 16.3338 5.34593 16.6981 6.22554C17.0625 7.10516 17.25 8.04792 17.25 9C17.25 9.41421 17.5858 9.75 18 9.75C18.4142 9.75 18.75 9.41421 18.75 9C18.75 7.85093 18.5237 6.71312 18.0839 5.65152C17.6442 4.58992 16.9997 3.62533 16.1872 2.81282C15.3747 2.0003 14.4101 1.35578 13.3485 0.916054C12.2869 0.476325 11.1491 0.25 10 0.25ZM18 17V15.3541C18 14.5363 17.5021 13.8008 16.7428 13.4971L14.7086 12.6835C13.7429 12.2971 12.6422 12.7156 12.177 13.646L12 14C12 14 9.5 13.5 7.5 11.5C5.5 9.5 5 7 5 7L5.35402 6.82299C6.28438 6.35781 6.70285 5.25714 6.31654 4.29136L5.50289 2.25722C5.19916 1.4979 4.46374 1 3.64593 1H2C0.895431 1 0 1.89543 0 3C0 11.8366 7.16344 19 16 19C17.1046 19 18 18.1046 18 17ZM9.25 5C9.25 4.58579 9.58579 4.25 10 4.25C10.6238 4.25 11.2414 4.37286 11.8177 4.61157C12.394 4.85028 12.9177 5.20016 13.3588 5.64124C13.7998 6.08232 14.1497 6.60596 14.3884 7.18225C14.6271 7.75855 14.75 8.37622 14.75 9C14.75 9.41421 14.4142 9.75 14 9.75C13.5858 9.75 13.25 9.41421 13.25 9C13.25 8.5732 13.1659 8.15059 13.0026 7.75628C12.8393 7.36197 12.5999 7.00369 12.2981 6.7019C11.9963 6.40011 11.638 6.16072 11.2437 5.99739C10.8494 5.83406 10.4268 5.75 10 5.75C9.58579 5.75 9.25 5.41421 9.25 5Z" fill="white"/>
</svg>
