<svg width="285" height="164" viewBox="0 0 285 164" fill="none" xmlns="http://www.w3.org/2000/svg">
<g opacity="0.5">
<path fill-rule="evenodd" clip-rule="evenodd" d="M256.439 92.7192C256.305 92.7012 256.173 92.6728 256.04 92.6313C254.666 92.221 253.883 90.7777 254.297 89.404C257.871 77.4589 250.93 53.8391 242.587 37.6798C241.928 36.405 242.43 34.8417 243.703 34.1861C244.984 33.529 246.55 34.0307 247.201 35.3018C256.235 52.7926 263.28 77.4999 259.27 90.8915C258.901 92.1297 257.683 92.8869 256.439 92.7192ZM15.9062 45.6195C43.8942 27.6535 89.3138 18.7654 135.125 24.9426C161.299 28.4718 187.601 36.9202 210.843 51.4021C212.076 52.1725 213.675 51.7892 214.433 50.5728C214.604 50.3042 214.714 50.0169 214.777 49.7259C231.998 64.5808 238.874 88.5167 230.414 109.384C217.139 142.129 167.509 165.688 68.0146 134.668C69.9248 132.199 71.4828 129.77 72.5377 127.46C73.1321 126.152 72.5489 124.609 71.2294 124.014C69.8929 123.427 68.3551 123.999 67.7584 125.304C66.6384 127.759 64.876 130.351 62.6994 132.973C58.2217 131.508 53.94 129.997 49.8595 128.444C49.7158 126.297 49.4964 124.178 49.2816 122.103L49.2816 122.103L49.2816 122.103L49.2789 122.078C48.9091 118.541 48.5655 115.201 48.6147 112.031C48.6395 110.591 47.4594 109.393 46.0373 109.382C44.5883 109.354 43.3942 110.498 43.3727 111.932C43.3156 115.417 43.6939 119.068 44.0619 122.599L44.0622 122.603C44.1909 123.844 44.3189 125.078 44.4306 126.304C12.8987 113.435 -5.30571 97.923 -7.42699 81.7527C-9.07742 69.1708 -0.792726 56.3393 15.9062 45.6195ZM44.7777 132.076C0.968163 114.802 -10.8306 95.9015 -12.5966 82.4295C-14.5256 67.7374 -5.40652 53.1087 13.0839 41.2409C55.6077 13.942 137.089 6.9086 201.227 39.9605C201.088 39.3875 201.141 38.7642 201.42 38.195C202.059 36.9074 203.626 36.3884 204.913 37.0112C233.178 50.9253 246.503 83.5771 235.25 111.339C223.898 139.344 188.317 161.28 121.531 152.278C104.537 149.986 85.5215 145.69 64.37 138.982C51.7409 152.835 30.8971 166.486 27.8991 166.245L27.8914 166.245C27.8621 166.243 27.8338 166.24 27.8053 166.237C27.7905 166.236 27.7757 166.234 27.7607 166.232C26.7159 166.091 25.8015 165.317 25.5224 164.306C24.9464 162.24 26.2131 161.264 31.6622 157.451C42.7803 149.685 44.9382 141.126 44.7777 132.076ZM50.01 134.075C49.9097 138.632 49.1746 143.243 47.0714 147.751C51.1626 144.481 55.3072 140.865 58.8807 137.195C55.7975 136.163 52.8423 135.123 50.01 134.075ZM274.791 86.3038C274.909 86.3356 275.028 86.3596 275.146 86.3755C276.434 86.5491 277.683 85.7582 278.039 84.4821C280.522 75.5584 278.439 50.0187 269.071 38.5325C268.148 37.4116 266.49 37.2357 265.356 38.1399C264.223 39.0471 264.049 40.6992 264.968 41.8248C273.351 52.0999 274.896 76.0764 272.947 83.0766C272.562 84.4704 273.385 85.9161 274.791 86.3038Z" fill="url(#paint0_linear_6_4025)"/>
</g>
<defs>
<linearGradient id="paint0_linear_6_4025" x1="-2.59399" y1="0.502258" x2="99.1248" y2="261.723" gradientUnits="userSpaceOnUse">
<stop stop-color="#3A2E83"/>
<stop offset="0.500371" stop-color="#9585FF"/>
<stop offset="1" stop-color="#A799FF"/>
</linearGradient>
</defs>
</svg>
