<svg width="301" height="321" viewBox="0 0 301 321" fill="none" xmlns="http://www.w3.org/2000/svg">
<path fill-rule="evenodd" clip-rule="evenodd" d="M85.5549 42.2311C98.5527 38.2033 107.296 40.2908 116.771 49.2433C115.665 44.3039 115.606 39.8068 116.619 35.4735C118.14 28.9779 121.914 23.3533 128.323 17.5478C121.911 18.7749 116.126 18.6384 110.737 16.9021C104.514 14.8952 99.1814 10.994 94.0183 4.76503C97.3333 19.6907 95.5428 30.8825 85.5549 42.2311ZM147.146 97.1503C145.398 98.1593 143.147 97.674 142.005 95.9918C141.627 95.4416 141.259 94.894 140.892 94.3494L140.852 94.2896L137.468 89.2992C102.727 38.0232 102.727 38.0232 49.2889 68.8759C47.4268 69.951 45.06 69.3277 43.9941 67.4814C42.9282 65.6352 43.5718 63.2739 45.4339 62.1988C98.6263 31.4882 95.0145 22.6187 71.512 -35.0954L71.5115 -35.0965L67.8733 -44.0576C67.0811 -46.0129 67.9553 -48.2626 69.975 -49.0725C71.9325 -49.9045 74.1835 -49.0229 75.0315 -47.0954C90.3904 -12.0944 100.017 5.30321 113.177 9.55041C124.145 13.0871 138.933 8.21721 167.74 -8.41451C169.602 -9.48959 171.969 -8.86628 173.035 -7.02007C174.1 -5.17385 173.457 -2.81251 171.595 -1.73743C144.03 14.1769 127.083 24.7402 124.176 37.1692C121.477 48.7249 129.816 64.1018 147.289 89.9323L148.438 91.6279C148.493 91.7074 148.545 91.789 148.591 91.8691C149.593 93.6051 149.087 95.847 147.389 96.9964C147.309 97.0517 147.23 97.1017 147.146 97.1503ZM217.783 108.027C259.328 90.0493 279.701 95.5019 306.499 127.42C299.941 111.045 297.913 97.3373 300.828 84.8354C304.687 68.2716 316.493 54.4282 337.917 38.663C318.024 45.5021 301.188 47.1847 286.188 42.333C269.07 36.8035 255.282 23.5976 240.812 0.259151C256.511 48.0515 254.338 76.2584 217.783 108.027ZM357.096 206.08C355.351 207.088 353.1 206.598 351.961 204.92L350.866 203.309C350.489 202.753 350.114 202.2 349.74 201.649L342.72 191.291L342.719 191.289C337.852 184.104 333.309 177.397 329.033 171.161C325.64 173.069 321.915 175.219 317.795 177.598C315.949 178.663 313.589 178.034 312.521 176.185C311.456 174.34 312.089 171.977 313.935 170.912C317.822 168.667 321.332 166.567 324.488 164.569C271.146 87.6826 259.315 89.9056 157.979 148.412C156.12 149.485 153.755 148.861 152.689 147.015C151.626 145.173 152.265 142.81 154.125 141.736C265.341 77.5253 256.711 56.3342 208.796 -61.2821L207.646 -64.1061C205.624 -69.0744 203.535 -74.2062 201.387 -79.5113C200.593 -81.4607 201.496 -83.7177 203.484 -84.5225C205.439 -85.353 207.688 -84.4707 208.536 -82.5436C240.306 -10.1836 260.395 25.8615 288.619 34.9882C312.171 42.6016 343.134 32.6112 402.865 -1.87417C404.721 -2.94578 407.091 -2.32008 408.155 -0.477542C409.22 1.36834 408.575 3.73009 406.719 4.8017C349.709 37.7166 314.642 59.6402 308.376 86.5343C304.066 105.026 312.436 127.441 331.824 159.633C355.31 142.628 350.59 131.07 334.661 92.0608L334.654 92.0445L331.653 84.6843C330.857 82.7276 331.735 80.4957 333.724 79.6775C335.669 78.8534 337.914 79.7458 338.761 81.6769C351.33 110.235 359.161 124.43 369.672 127.874C378.423 130.738 390.335 126.802 413.619 113.359C415.408 112.326 417.685 112.888 418.795 114.61C418.829 114.661 418.862 114.718 418.892 114.772C419.96 116.62 419.328 118.978 417.479 120.045C395.175 132.922 381.466 141.461 379.192 151.373C377.087 160.553 384.215 173.585 398.183 194.258L399.072 195.567C399.127 195.647 399.179 195.728 399.225 195.808C400.229 197.547 399.73 199.787 398.048 200.928C397.968 200.982 397.887 201.034 397.807 201.08C396.068 202.084 393.83 201.589 392.687 199.904C392.369 199.437 392.052 198.974 391.743 198.515L388.957 194.4C365.607 159.885 361.617 153.987 336.426 167.13C342.178 176.342 348.743 186.317 356.088 197.174L358.382 200.558C358.439 200.641 358.489 200.719 358.535 200.799C359.537 202.535 359.035 204.779 357.339 205.927C357.259 205.982 357.18 206.032 357.096 206.08ZM371.458 159.328C364.612 153.461 357.996 151.847 348.912 154.127C355.522 145.871 356.984 137.57 355.041 127.023C358.816 131.084 362.759 133.737 367.267 135.213C371.157 136.484 375.276 136.762 379.753 136.17C375.409 140.474 372.786 144.757 371.668 149.646C370.959 152.734 370.895 155.913 371.458 159.328Z" fill="url(#paint0_linear_6_4002)"/>
<defs>
<linearGradient id="paint0_linear_6_4002" x1="0" y1="-8.71863" x2="502.436" y2="103.121" gradientUnits="userSpaceOnUse">
<stop stop-color="#007E72"/>
<stop offset="0.500371" stop-color="#4DE4A7"/>
<stop offset="1" stop-color="#95FCD2"/>
</linearGradient>
</defs>
</svg>
