<svg width="218" height="221" viewBox="0 0 218 221" fill="none" xmlns="http://www.w3.org/2000/svg">
<path opacity="0.64" d="M8.50273 164.11C7.04692 163.319 5.22547 163.857 4.43441 165.313C3.64335 166.769 4.18223 168.591 5.63804 169.382L8.50273 164.11ZM114.036 97.8746L112.65 95.2139L112.649 95.2143L114.036 97.8746ZM125.955 171.175L126.665 168.26L126.665 168.26L125.955 171.175ZM184.354 45.0126C183.638 43.5185 181.846 42.8878 180.352 43.604C178.858 44.3201 178.227 46.1118 178.944 47.6059L184.354 45.0126ZM8.78415 183.433C9.35838 184.987 11.0838 185.782 12.6379 185.207C14.1921 184.633 14.9865 182.908 14.4123 181.354L8.78415 183.433ZM5.56367 166.061L4.17378 163.402C2.83646 164.101 2.22661 165.685 2.7496 167.1L5.56367 166.061ZM22.5633 160.14C23.9441 159.224 24.3212 157.363 23.4055 155.982C22.4899 154.601 20.6282 154.224 19.2474 155.139L22.5633 160.14ZM7.07039 166.746C5.63804 169.382 5.63912 169.382 5.64047 169.383C5.64129 169.383 5.64291 169.384 5.64455 169.385C5.64782 169.387 5.65218 169.389 5.65764 169.392C5.66855 169.398 5.68383 169.406 5.70343 169.417C5.74262 169.438 5.79909 169.468 5.87242 169.507C6.01909 169.585 6.23327 169.697 6.51178 169.841C7.06876 170.129 7.88328 170.543 8.92988 171.054C11.0226 172.075 14.046 173.487 17.796 175.065C25.2877 178.216 35.7213 182.044 47.4551 184.726C70.7427 190.049 100.086 191.054 121.278 171.928L117.258 167.474C98.3288 184.557 71.573 184.084 48.7921 178.877C37.4917 176.294 27.3987 172.595 20.1224 169.534C16.4884 168.005 13.5673 166.641 11.5617 165.662C10.5591 165.172 9.7859 164.78 9.26748 164.512C9.0083 164.378 8.81286 164.275 8.68433 164.207C8.62006 164.173 8.57253 164.147 8.54213 164.131C8.52694 164.123 8.51602 164.117 8.50944 164.113C8.50614 164.111 8.50394 164.11 8.50282 164.11C8.50226 164.109 8.50224 164.109 8.50196 164.109C8.50221 164.109 8.50273 164.11 7.07039 166.746ZM121.278 171.928C142.101 153.135 146.313 131.407 142.236 115.49C140.215 107.6 136.118 101.03 130.872 97.1266C125.547 93.1629 118.939 91.938 112.65 95.2139L115.422 100.535C119.308 98.5108 123.458 99.0877 127.29 101.94C131.203 104.852 134.665 110.112 136.423 116.978C139.905 130.571 136.556 150.057 117.258 167.474L121.278 171.928ZM112.649 95.2143C106.745 98.292 102.135 104.274 99.1032 111.282C96.0511 118.337 94.4584 126.734 94.8127 135.086C95.5229 151.83 104.18 168.963 125.246 174.09L126.665 168.26C108.914 163.94 101.439 149.725 100.807 134.832C100.491 127.365 101.925 119.871 104.61 113.664C107.315 107.411 111.154 102.76 115.422 100.535L112.649 95.2143ZM125.245 174.09C136.068 176.726 147.017 173.258 156.674 166.126C166.329 158.996 174.932 148.054 181.345 135.115C194.152 109.278 198.587 74.7077 184.354 45.0126L178.944 47.6059C192.186 75.235 188.177 107.823 175.969 132.45C169.876 144.744 161.829 154.86 153.11 161.3C144.394 167.737 135.245 170.35 126.665 168.26L125.245 174.09ZM14.4123 181.354L8.37774 165.021L2.7496 167.1L8.78415 183.433L14.4123 181.354ZM5.56367 166.061C6.95356 168.719 6.95364 168.719 6.95377 168.719C6.95388 168.719 6.95405 168.719 6.95426 168.719C6.95469 168.719 6.9553 168.718 6.9561 168.718C6.9577 168.717 6.96006 168.716 6.96315 168.714C6.96935 168.711 6.97851 168.706 6.99055 168.7C7.01463 168.687 7.05025 168.669 7.09672 168.644C7.18965 168.596 7.32602 168.524 7.50042 168.433C7.84918 168.249 8.35016 167.986 8.96007 167.664C10.1795 167.02 11.8363 166.141 13.5839 165.203C17.0052 163.365 20.9916 161.182 22.5633 160.14L19.2474 155.139C17.965 155.99 14.2806 158.018 10.7446 159.917C9.0135 160.847 7.37006 161.719 6.15886 162.358C5.55346 162.678 5.05653 162.939 4.71123 163.12C4.53859 163.211 4.40388 163.282 4.3125 163.329C4.26681 163.353 4.23196 163.372 4.20861 163.384C4.19694 163.39 4.18814 163.394 4.18231 163.398C4.17939 163.399 4.17722 163.4 4.17579 163.401C4.17508 163.401 4.17455 163.402 4.17422 163.402C4.17405 163.402 4.17394 163.402 4.17385 163.402C4.17379 163.402 4.17378 163.402 5.56367 166.061Z" fill="white"/>
</svg>
