<svg width="138" height="48" viewBox="0 0 138 48" fill="none" xmlns="http://www.w3.org/2000/svg">
<path d="M9.03137 0C17.1542 0 25.2771 0 33.6461 0C33.6461 1.59272 33.6461 3.18544 33.6461 4.82642C36.6564 4.82642 39.6666 4.82642 42.7681 4.82642C42.7739 9.79881 42.7739 9.79881 42.7752 11.8834C42.7754 12.3604 42.7757 12.8375 42.776 13.3145C42.7761 13.4042 42.7761 13.4042 42.7761 13.4956C42.7768 14.4575 42.7779 15.4194 42.7793 16.3813C42.7806 17.3703 42.7814 18.3593 42.7817 19.3483C42.7819 19.9573 42.7825 20.5664 42.7837 21.1754C42.7845 21.5945 42.7847 22.0135 42.7845 22.4326C42.7844 22.6735 42.7846 22.9143 42.7853 23.1552C42.793 25.6056 42.5752 28.0985 41.8353 30.4477C41.8046 30.5454 41.7753 30.6433 41.7464 30.7415C41.4376 31.7691 41.0491 32.7644 40.5962 33.7367C40.5651 33.8036 40.5651 33.8036 40.5333 33.8718C39.6703 35.703 38.5034 37.4402 37.1306 38.9296C37.0421 39.0266 36.9562 39.1249 36.8704 39.2242C36.7019 39.417 36.526 39.6004 36.3452 39.7816C36.3137 39.8133 36.2822 39.8449 36.2498 39.8775C36.1837 39.9438 36.1175 40.0102 36.0512 40.0764C35.9514 40.1763 35.852 40.2766 35.7526 40.3769C35.4379 40.6929 35.1237 40.9978 34.7721 41.2729C34.6511 41.3693 34.5378 41.4716 34.4244 41.5766C34.1744 41.8035 33.9106 42.0093 33.6405 42.2113C33.5786 42.2577 33.5169 42.3044 33.4553 42.3512C31.8788 43.5506 30.1794 44.5951 28.3974 45.4602C28.2748 45.52 28.1528 45.5809 28.0307 45.6418C26.3899 46.4522 24.6736 47.0976 22.9194 47.6157C22.8858 47.6257 22.8522 47.6356 22.8176 47.6459C21.4202 48.0576 21.4202 48.0576 20.8571 47.9106C20.8017 47.8961 20.7464 47.8817 20.6894 47.8668C20.63 47.8506 20.5705 47.8345 20.5092 47.8178C20.4628 47.8053 20.4628 47.8053 20.4153 47.7925C19.2399 47.4748 18.0746 47.082 16.9467 46.6233C16.9015 46.605 16.8562 46.5867 16.8096 46.5679C13.9536 45.4063 11.2135 43.9145 8.82102 41.9581C8.74845 41.8988 8.67557 41.8399 8.60265 41.781C7.6501 41.009 7.6501 41.009 7.27199 40.6168C7.1922 40.5368 7.10849 40.4643 7.02237 40.3911C6.63181 40.0539 6.26339 39.681 5.92945 39.2877C5.82589 39.1673 5.71823 39.051 5.61065 38.9342C5.39604 38.6983 5.19043 38.4573 4.99195 38.2077C4.94761 38.1522 4.90298 38.0968 4.85814 38.0417C4.14765 37.1666 3.50191 36.2163 2.95008 35.2329C2.91554 35.1717 2.91554 35.1717 2.8803 35.1093C2.25682 33.9991 1.74425 32.8576 1.30909 31.6613C1.29212 31.6151 1.27516 31.5689 1.25767 31.5213C1.0302 30.8951 0.852996 30.2588 0.690709 29.6131C0.677013 29.559 0.677013 29.559 0.66304 29.5037C0.548967 29.0497 0.452753 28.5953 0.375447 28.1336C0.353146 28.0006 0.330082 27.8681 0.305832 27.7355C0.0875678 26.5389 -0.00215319 25.3167 0.000155593 24.1015C0.000134499 24.0178 9.19187e-05 23.9342 3.03958e-05 23.8506C-7.66746e-05 23.6227 0.000114943 23.3949 0.000358118 23.1671C0.000567716 22.9206 0.000495579 22.6742 0.000459012 22.4277C0.000433779 22.0014 0.000584527 21.5751 0.000856697 21.1488C0.00124995 20.5324 0.00137501 19.916 0.00143555 19.2997C0.00154103 18.2995 0.00186144 17.2993 0.00231856 16.2992C0.00276198 15.3279 0.00310287 14.3567 0.00330835 13.3855C0.00332129 13.325 0.00333406 13.2644 0.00334738 13.202C0.00344775 12.7286 0.00354202 12.2551 0.0036346 11.7816C0.00408942 9.46321 0.00506087 7.14482 0.00595959 4.82642C2.98435 4.82642 5.96273 4.82642 9.03137 4.82642C9.03137 3.2337 9.03137 1.64098 9.03137 0Z" fill="url(#paint0_linear_1_11379)"/>
<path d="M11.2032 2.31671C14.102 2.31671 17.0007 2.31671 19.9873 2.31671C19.9873 5.43844 19.9873 8.56017 19.9873 11.7765C19.3423 11.896 19.3423 11.896 18.6842 12.0178C15.9591 12.6916 13.3983 14.2032 11.7341 16.5064C11.693 16.5618 11.6517 16.6172 11.6105 16.6725C10.3265 18.4125 9.5725 20.4459 9.32094 22.5877C9.31453 22.6401 9.30812 22.6926 9.30152 22.7466C9.18176 23.9623 9.26196 25.2168 9.56226 26.4006C9.57545 26.4545 9.58864 26.5085 9.60223 26.564C9.64831 26.6952 9.64831 26.6952 9.75758 26.7607C10.6077 27.0481 11.487 26.9143 12.2832 26.5484C13.3523 26.0574 14.6893 25.8871 15.82 26.3029C16.1197 26.4222 16.4126 26.5551 16.7054 26.6902C17.3119 26.968 18.1388 27.0134 18.773 26.7918C18.9237 26.7312 19.0691 26.6648 19.2151 26.5936C20.2818 26.0876 21.5807 25.8925 22.7261 26.2649C23.1087 26.4024 23.4782 26.5713 23.8485 26.7384C24.1916 26.8904 24.5286 26.8933 24.8982 26.8953C24.9435 26.8963 24.9888 26.8973 25.0355 26.8983C25.4972 26.9008 25.8685 26.7705 26.2848 26.581C27.5476 26.0064 28.8295 25.9242 30.1424 26.4136C30.2824 26.4704 30.4198 26.5309 30.5572 26.5936C30.6585 26.6384 30.7601 26.6826 30.8619 26.7264C30.9065 26.746 30.9511 26.7657 30.9971 26.7859C31.2998 26.8924 31.6096 26.892 31.9267 26.8923C31.9653 26.8929 32.0039 26.8934 32.0436 26.8941C32.4353 26.895 32.7904 26.8013 33.1635 26.6902C33.1688 26.6544 33.1741 26.6186 33.1795 26.5817C33.2319 26.2335 33.2898 25.8867 33.354 25.5404C33.4247 25.1507 33.4607 24.7655 33.4646 24.3695C33.4653 24.3084 33.4653 24.3084 33.466 24.2461C33.4976 20.8304 32.3219 17.7962 29.9309 15.3379C29.6416 15.0458 29.3377 14.7799 29.0128 14.5276C28.9642 14.489 28.9157 14.4504 28.8657 14.4107C28.2156 13.8974 27.5266 13.4631 26.7926 13.0796C26.7576 13.0613 26.7225 13.0429 26.6864 13.024C25.4211 12.3716 24.0872 12.0094 22.6901 11.7765C22.6901 8.65477 22.6901 5.53304 22.6901 2.31671C25.5889 2.31671 28.4876 2.31671 31.4742 2.31671C31.4742 3.04936 31.4742 3.78201 31.4742 4.53687C29.3081 4.53687 27.142 4.53687 24.9103 4.53687C24.9103 6.30479 24.9103 8.07271 24.9103 9.8942C25.0059 9.91013 25.1014 9.92605 25.1999 9.94246C25.7462 10.0746 26.2815 10.2391 26.7926 10.4734C26.865 10.505 26.9374 10.5365 27.0098 10.568C28.1578 11.0703 29.2348 11.6724 30.2194 12.4522C30.2625 12.4861 30.3057 12.52 30.3502 12.555C31.1623 13.2053 31.9499 13.9431 32.5843 14.7689C32.6216 14.8155 32.6588 14.8622 32.6972 14.9103C33.2233 15.5768 33.6835 16.2869 34.0805 17.0373C34.0966 17.0677 34.1128 17.0982 34.1294 17.1295C35.5708 19.8711 36.1265 23.0442 35.625 26.111C35.609 26.1428 35.5931 26.1747 35.5767 26.2075C35.5707 26.2682 35.5647 26.329 35.5586 26.3915C35.3511 28.3487 34.3657 30.5538 33.1635 32.0958C33.092 32.1922 33.0206 32.2888 32.9493 32.3853C32.2078 33.3689 31.3505 34.3429 30.3641 35.0881C30.3058 35.1334 30.2475 35.1786 30.1892 35.2239C28.9295 36.1937 27.5284 36.9693 26.0174 37.4698C25.9303 37.4992 25.844 37.5307 25.7577 37.5624C22.4692 38.7446 18.5137 38.4064 15.3783 36.9295C15.2411 36.8635 15.1044 36.7965 14.9679 36.7291C14.9273 36.7094 14.8868 36.6897 14.845 36.6694C13.9715 36.2418 13.1666 35.6975 12.4098 35.0881C12.3453 35.0375 12.3453 35.0375 12.2794 34.9858C11.8848 34.6713 11.5197 34.3261 11.155 33.9781C11.0972 33.9234 11.0972 33.9234 11.0383 33.8676C10.8234 33.6592 10.6345 33.4344 10.4474 33.2009C10.3349 33.0615 10.2188 32.9257 10.1022 32.7896C9.60137 32.1871 9.18203 31.5389 8.80278 30.8543C8.74619 30.7523 8.68854 30.651 8.63072 30.5498C8.10975 29.6205 7.74397 28.6135 7.47153 27.5861C7.44278 27.478 7.41274 27.3703 7.38207 27.2627C7.08453 26.1676 6.99323 25.0419 6.99219 23.9119C6.99211 23.8659 6.99203 23.8199 6.99194 23.7725C6.99187 23.0703 7.02451 22.3868 7.13132 21.6916C7.14686 21.5886 7.16005 21.4859 7.17167 21.3824C7.31901 20.1485 7.75346 18.824 8.30739 17.713C8.32478 17.678 8.34217 17.6429 8.36008 17.6068C8.77427 16.7803 9.247 15.9901 9.80358 15.2515C9.82473 15.2234 9.84587 15.1953 9.86766 15.1664C10.1413 14.8051 10.4291 14.4623 10.7393 14.1318C10.8554 14.0074 10.9676 13.8804 11.0796 13.7523C11.7697 12.9867 12.6096 12.3363 13.4717 11.7765C13.5224 11.7435 13.5732 11.7106 13.6255 11.6766C13.7817 11.5782 13.9396 11.4832 14.0991 11.3904C14.1331 11.3705 14.1672 11.3506 14.2023 11.3301C16.5975 9.94246 16.5975 9.94246 17.7189 9.94246C17.7189 8.17454 17.7189 6.40662 17.7189 4.58513C15.5687 4.58513 13.4186 4.58513 11.2032 4.58513C11.2032 3.83655 11.2032 3.08797 11.2032 2.31671Z" fill="#FDFEFE"/>
<path d="M82.5379 9.26675C82.5737 9.27321 82.6096 9.27968 82.6466 9.28634C83.8749 9.51658 85.0848 10.0823 86.0611 10.8595C86.0875 10.8804 86.1138 10.9013 86.1409 10.9228C87.704 12.1763 88.7558 13.9023 89.2315 15.8458C89.2453 15.9014 89.2453 15.9014 89.2593 15.9581C89.4411 16.7409 89.5119 17.5133 89.5068 18.3159C89.506 18.461 89.5068 18.6061 89.5077 18.7512C89.5083 19.3665 89.4547 19.9558 89.3431 20.5606C89.333 20.6165 89.333 20.6165 89.3226 20.6735C88.9039 22.952 87.5607 25.1074 85.6533 26.4321C83.7762 27.7056 81.4651 28.2037 79.2259 27.7923C77.6588 27.4762 76.1863 26.7674 75.0335 25.6507C74.958 25.5778 74.8816 25.506 74.8052 25.4341C73.4098 24.1025 72.548 22.2104 72.2576 20.3193C72.2468 20.2509 72.2468 20.2509 72.2359 20.1812C71.8534 17.6592 72.2484 14.8231 73.7901 12.7266C73.8199 12.6863 73.8199 12.6863 73.8503 12.6452C73.8696 12.6183 73.889 12.5913 73.9089 12.5635C75.2003 10.7709 77.1779 9.57606 79.3524 9.21849C79.4125 9.20853 79.4725 9.19858 79.5343 9.18832C80.5291 9.04022 81.5514 9.08512 82.5379 9.26675Z" fill="#212831"/>
<path d="M2.1297 6.90186C6.15928 6.90186 10.1889 6.90186 14.3406 6.90186C13.4268 8.12014 12.1404 8.86736 10.6419 9.12557C10.0602 9.20592 9.46995 9.18208 8.88406 9.1797C8.75301 9.17947 8.62196 9.17938 8.49091 9.17929C8.18291 9.17899 7.87491 9.1782 7.56691 9.17723C7.21581 9.17614 6.8647 9.17562 6.51359 9.17513C5.79235 9.17413 5.0711 9.17243 4.34986 9.17027C4.35382 11.08 4.35827 12.9897 4.36337 14.8993C4.36398 15.1257 4.36458 15.352 4.36517 15.5783C4.36529 15.6234 4.36541 15.6684 4.36554 15.7148C4.36744 16.4408 4.36903 17.1668 4.37049 17.8927C4.372 18.6396 4.37387 19.3866 4.37605 20.1335C4.37739 20.593 4.37846 21.0526 4.37917 21.5121C4.37968 21.8288 4.38055 22.1455 4.38167 22.4621C4.38231 22.6439 4.3828 22.8256 4.38288 23.0073C4.38329 23.7523 4.39823 24.4943 4.44399 25.2379C4.44604 25.2713 4.44809 25.3047 4.45021 25.3391C4.4819 25.8441 4.52832 26.3441 4.60626 26.844C4.61689 26.915 4.62752 26.986 4.63815 27.0571C4.72363 27.6175 4.83324 28.1689 4.97729 28.7173C4.98909 28.7633 5.00089 28.8094 5.01304 28.8568C5.94939 32.4824 8.033 35.8735 10.9803 38.2208C11.1163 38.3294 11.2487 38.4416 11.3814 38.5541C12.6119 39.5788 13.9868 40.4268 15.4024 41.1695C15.4714 41.206 15.4714 41.206 15.5418 41.2433C17.0266 42.0247 18.5843 42.6371 20.1805 43.1483C20.2345 43.1659 20.2885 43.1834 20.3442 43.2015C20.4833 43.2464 20.6228 43.2898 20.7627 43.3323C20.8005 43.3443 20.8384 43.3563 20.8774 43.3687C21.3032 43.4914 21.7014 43.3983 22.1171 43.275C22.1596 43.2626 22.2021 43.2501 22.2458 43.2373C24.9589 42.4253 27.6022 41.2467 29.9299 39.625C29.9567 39.6065 29.9836 39.5879 30.0112 39.5689C30.7574 39.052 31.4706 38.4892 32.1501 37.8875C32.1951 37.8479 32.2401 37.8082 32.2866 37.7674C32.9058 37.2113 33.5321 36.6289 34.0429 35.9701C34.1272 35.8626 34.2166 35.7641 34.3099 35.6643C34.6186 35.3205 34.8778 34.9353 35.1424 34.5573C35.1751 34.5108 35.1751 34.5108 35.2085 34.4633C35.7404 33.702 36.1924 32.8859 36.5904 32.0475C36.6068 32.0136 36.6232 31.9797 36.6402 31.9448C37.5031 30.1574 37.9811 28.2447 38.2056 26.2794C38.2207 26.1487 38.2377 26.0189 38.2565 25.8886C38.3521 25.1744 38.3429 24.4576 38.3432 23.7385C38.3433 23.5425 38.3441 23.3465 38.3447 23.1505C38.3458 22.8118 38.3465 22.4732 38.347 22.1346C38.3477 21.6451 38.349 21.1555 38.3503 20.6659C38.3525 19.8714 38.3543 19.0769 38.3558 18.2824C38.3572 17.5111 38.3589 16.7399 38.3608 15.9686C38.3609 15.921 38.3611 15.8734 38.3612 15.8243C38.3618 15.5853 38.3624 15.3463 38.363 15.1073C38.368 13.1283 38.3723 11.1493 38.3761 9.17027C38.3298 9.17054 38.3298 9.17054 38.2825 9.17081C37.5257 9.1751 36.769 9.17828 36.0122 9.18028C35.6462 9.18127 35.2802 9.18261 34.9142 9.18484C34.5947 9.18678 34.2752 9.18801 33.9557 9.18844C33.787 9.18869 33.6183 9.18926 33.4496 9.19069C32.3768 9.1994 31.4026 9.11924 30.4125 8.68763C30.3622 8.66586 30.3119 8.64408 30.26 8.62165C29.4645 8.25061 28.7354 7.63682 28.1924 6.95012C28.1924 6.93419 28.1924 6.91827 28.1924 6.90186C32.3016 6.90186 36.4108 6.90186 40.6446 6.90186C40.6504 11.3835 40.6504 11.3835 40.6516 13.2625C40.6519 13.6925 40.6522 14.1224 40.6525 14.5524C40.6526 14.6333 40.6526 14.6333 40.6526 14.7157C40.6533 15.5827 40.6544 16.4496 40.6557 17.3166C40.6571 18.208 40.6579 19.0995 40.6582 19.9909C40.6584 20.5398 40.659 21.0888 40.6602 21.6377C40.661 22.0154 40.6612 22.3932 40.661 22.7709C40.6609 22.988 40.661 23.2051 40.6618 23.4222C40.6654 24.457 40.6238 25.469 40.4998 26.4971C40.4938 26.5477 40.4877 26.5982 40.4815 26.6502C40.3479 27.7595 40.1448 28.8531 39.8241 29.9239C39.8076 29.9789 39.8076 29.9789 39.7908 30.0349C39.724 30.2562 39.6547 30.4765 39.5828 30.6961C39.5617 30.7611 39.5617 30.7611 39.5402 30.8275C38.7493 33.24 37.4551 35.5052 35.7699 37.4049C35.7105 37.4732 35.6512 37.5416 35.5919 37.61C35.5387 37.6704 35.4854 37.7307 35.432 37.791C35.4017 37.8254 35.3714 37.8598 35.3402 37.8952C35.0799 38.1879 34.81 38.4688 34.5324 38.7451C34.4634 38.8139 34.3947 38.8828 34.326 38.9519C34.0751 39.2024 33.8203 39.444 33.5497 39.6733C33.4987 39.7173 33.4478 39.7614 33.3968 39.8054C33.0667 40.0869 32.7312 40.3591 32.3842 40.6196C32.3221 40.6664 32.26 40.7133 32.1981 40.7604C31.1727 41.54 30.0882 42.2299 28.9646 42.8587C28.913 42.8877 28.8615 42.9167 28.8083 42.9465C26.9402 43.989 24.9688 44.7722 22.9316 45.4167C22.8709 45.4359 22.8102 45.4552 22.7477 45.475C20.3695 46.2165 17.5002 44.7129 15.3541 43.6792C15.2761 43.6418 15.2761 43.6418 15.1965 43.6036C14.1495 43.0988 13.1449 42.524 12.1687 41.8934C12.1248 41.8651 12.1248 41.8651 12.0801 41.8363C11.3352 41.3529 10.6187 40.8311 9.93142 40.2689C9.85839 40.2094 9.7848 40.1506 9.71115 40.0918C9.41018 39.8503 9.12616 39.5942 8.84446 39.3309C8.71461 39.2096 8.58241 39.0912 8.4493 38.9734C8.07027 38.6333 7.70567 38.2741 7.37561 37.886C7.28246 37.7776 7.18566 37.6729 7.08885 37.5677C6.81924 37.2685 6.57348 36.9522 6.32869 36.6326C6.30483 36.6016 6.28097 36.5706 6.25639 36.5386C3.93116 33.5079 2.49821 29.8148 2.19464 26.0036C2.19158 25.9658 2.18852 25.928 2.18536 25.889C2.11718 25.0285 2.10974 24.1705 2.1129 23.3077C2.11354 23.0863 2.11331 22.8649 2.1132 22.6435C2.11312 22.2622 2.11357 21.8809 2.11439 21.4996C2.11558 20.9483 2.11595 20.3971 2.11613 19.8459C2.11644 18.9509 2.1174 18.056 2.11878 17.1611C2.12011 16.2931 2.12113 15.4251 2.12175 14.5571C2.12179 14.5029 2.12183 14.4486 2.12187 14.3927C2.12217 13.968 2.12245 13.5433 2.12273 13.1186C2.12409 11.0464 2.127 8.97411 2.1297 6.90186Z" fill="#FDFEFE"/>
<path d="M104.981 9.36332C106.104 9.36106 107.227 9.35936 108.35 9.35832C108.872 9.35782 109.393 9.35715 109.915 9.35604C110.37 9.35507 110.825 9.35445 111.28 9.35424C111.521 9.35411 111.761 9.35382 112.002 9.35312C112.229 9.35245 112.456 9.35226 112.683 9.3524C112.766 9.35238 112.849 9.35219 112.931 9.35182C113.672 9.34862 114.422 9.38392 115.143 9.56241C115.185 9.57256 115.227 9.58271 115.27 9.59317C116.122 9.81416 116.909 10.2421 117.578 10.8112C117.611 10.8385 117.645 10.8658 117.68 10.8938C118.424 11.5105 118.902 12.4284 119.074 13.3693C119.087 13.4364 119.087 13.4364 119.1 13.505C119.24 14.4851 119.035 15.4807 118.456 16.2904C117.701 17.2761 116.703 17.8441 115.551 18.2439C115.551 18.2599 115.551 18.2758 115.551 18.2922C115.624 18.3086 115.624 18.3086 115.698 18.3254C117.151 18.693 118.635 19.4353 119.431 20.7567C119.972 21.7524 120.133 22.9322 119.845 24.0387C119.678 24.6025 119.419 25.1409 119.026 25.5801C118.995 25.6179 118.965 25.6556 118.933 25.6945C118.439 26.2866 117.792 26.6703 117.095 26.9798C117.065 26.9934 117.034 27.007 117.003 27.021C115.384 27.7367 113.592 27.6704 111.859 27.6653C111.616 27.6646 111.373 27.6646 111.131 27.6645C110.673 27.6642 110.216 27.6634 109.759 27.6624C109.237 27.6613 108.715 27.6608 108.194 27.6603C107.123 27.6593 106.052 27.6576 104.981 27.6555C105.01 27.412 105.045 27.1854 105.111 26.9485C105.128 26.8879 105.144 26.8273 105.161 26.7648C105.195 26.6419 105.229 26.5192 105.263 26.3965C105.542 25.3768 105.637 24.3536 105.632 23.2999C105.633 23.1841 105.633 23.0684 105.633 22.9526C105.634 22.6424 105.633 22.3322 105.632 22.022C105.632 21.7282 105.632 21.4344 105.632 21.1406C105.633 20.5583 105.632 19.9761 105.631 19.3939C105.63 18.8322 105.629 18.2705 105.63 17.7088C105.63 17.0933 105.63 16.4777 105.63 15.8622C105.63 15.7963 105.629 15.7303 105.629 15.6644C105.629 15.632 105.629 15.5996 105.629 15.5662C105.629 15.3404 105.629 15.1147 105.629 14.8889C105.63 14.5838 105.629 14.2787 105.628 13.9735C105.628 13.8626 105.628 13.7516 105.628 13.6406C105.63 12.53 105.5 11.4826 105.213 10.4101C105.179 10.2817 105.146 10.1532 105.113 10.0247C105.092 9.94615 105.072 9.86762 105.051 9.78915C105.012 9.6432 104.981 9.51497 104.981 9.36332Z" fill="#212831"/>
<path d="M125.734 9.41156C127.263 9.41156 128.792 9.41156 130.368 9.41156C130.589 9.96368 130.805 10.5112 131.009 11.0691C131.102 11.3238 131.201 11.5764 131.301 11.8283C131.378 12.022 131.449 12.217 131.517 12.4137C131.737 13.0439 131.974 13.6676 132.21 14.2919C132.247 14.3898 132.284 14.4877 132.321 14.5856C132.639 15.4274 132.959 16.2681 133.284 17.1072C133.456 17.5527 133.625 17.9988 133.779 18.4513C133.858 18.6842 133.944 18.914 134.034 19.1428C134.19 19.5398 134.34 19.9386 134.49 20.3379C134.501 20.3691 134.513 20.4003 134.525 20.4324C134.574 20.5622 134.622 20.692 134.671 20.8217C134.874 21.3674 135.079 21.9128 135.284 22.4581C135.356 22.6506 135.429 22.8431 135.501 23.0356C136.073 24.5615 136.671 26.0601 137.564 27.4321C137.607 27.5107 137.607 27.5107 137.607 27.6072C135.6 27.6072 133.594 27.6072 131.526 27.6072C131.58 27.1243 131.58 27.1243 131.611 26.9304C131.86 25.304 131.595 23.9577 130.995 22.4429C130.946 22.3178 130.897 22.1927 130.848 22.0675C130.818 21.9916 130.788 21.9158 130.758 21.84C130.657 21.5848 130.657 21.5848 130.657 21.4776C128.475 21.4776 126.293 21.4776 124.045 21.4776C123.997 21.6369 123.949 21.7962 123.9 21.9603C123.859 22.0774 123.819 22.1945 123.777 22.3114C123.361 23.5003 123.249 24.6714 123.466 25.9179C123.477 25.9908 123.489 26.0637 123.5 26.1366C123.562 26.5137 123.641 26.8714 123.767 27.2339C123.804 27.3659 123.804 27.3659 123.804 27.6072C122.625 27.6072 121.447 27.6072 120.232 27.6072C120.278 27.4225 120.34 27.2856 120.425 27.1164C120.456 27.0548 120.487 26.9932 120.518 26.9315C120.534 26.8987 120.55 26.8659 120.567 26.8322C121.276 25.4078 121.855 23.9283 122.398 22.4343C122.508 22.1315 122.622 21.8302 122.736 21.5289C122.871 21.169 123.002 20.8079 123.128 20.4445C123.28 20.0074 123.436 19.5722 123.593 19.1368C123.607 19.0962 123.622 19.0557 123.637 19.0139C123.91 18.2536 124.184 17.4937 124.459 16.7339C124.552 16.4763 124.645 16.2185 124.738 15.9608C124.791 15.8118 124.845 15.6629 124.899 15.514C124.912 15.4776 124.925 15.4413 124.938 15.4038C125.11 14.9288 125.283 14.4548 125.46 13.9816C125.612 13.5725 125.762 13.1626 125.906 12.7508C125.922 12.7053 125.939 12.6598 125.955 12.6129C126.09 12.2262 126.129 11.8828 126.129 11.4749C126.13 11.4319 126.131 11.3889 126.131 11.3446C126.132 11.0429 126.093 10.7666 126.024 10.4734C126.012 10.4199 126 10.3665 125.988 10.3114C125.936 10.1007 125.886 9.89659 125.798 9.69813C125.734 9.55635 125.734 9.55635 125.734 9.41156Z" fill="#212831"/>
<path d="M82.2773 10.6301C82.4924 10.7874 82.6859 10.9623 82.8757 11.1491C82.931 11.2034 82.931 11.2034 82.9873 11.2588C83.5336 11.8298 83.8618 12.5583 84.1788 13.2727C84.2138 13.3513 84.2138 13.3513 84.2495 13.4315C84.4435 13.9011 84.5566 14.3968 84.679 14.8886C84.7031 14.9838 84.7288 15.0786 84.7552 15.1731C84.8773 15.613 84.9278 16.0657 84.9829 16.5178C84.9977 16.6376 85.0137 16.7571 85.0299 16.8767C85.1868 18.1148 85.1188 19.3767 84.9511 20.6089C84.9411 20.6895 84.9311 20.77 84.9211 20.8506C84.6966 22.5451 84.1255 24.4724 82.9722 25.7732C82.9378 25.8129 82.9033 25.8527 82.8678 25.8936C82.3226 26.4815 81.5737 26.8334 80.7732 26.8651C79.8983 26.831 79.2276 26.3782 78.6424 25.76C78.4043 25.4974 78.2223 25.2126 78.0493 24.9044C78.0198 24.8532 78.0198 24.8532 77.9898 24.8009C77.6862 24.2696 77.4521 23.7327 77.2689 23.1491C77.2285 23.021 77.1859 22.8938 77.1432 22.7665C76.9498 22.1685 76.8286 21.5658 76.7281 20.9467C76.7219 20.9093 76.7158 20.8718 76.7094 20.8333C76.3552 18.6491 76.5057 16.3584 77.1323 14.238C77.143 14.2009 77.1537 14.1637 77.1647 14.1254C77.6046 12.6169 78.3956 11.1685 79.7989 10.3859C80.586 10.046 81.5668 10.1714 82.2773 10.6301Z" fill="#FEFEFE"/>
<path d="M67.4395 9.43079C67.5945 9.46378 67.7498 9.49506 67.9052 9.5264C68.5146 9.65122 69.1146 9.79227 69.7102 9.97171C69.9781 10.0499 70.2494 10.1161 70.5201 10.1838C70.5201 11.7128 70.5201 13.2418 70.5201 14.8172C70.4564 14.8172 70.3927 14.8172 70.3271 14.8172C70.2383 14.7071 70.1639 14.6012 70.0888 14.4823C70.0419 14.4112 69.9948 14.3402 69.9476 14.2693C69.9229 14.2323 69.8983 14.1954 69.873 14.1573C68.8081 12.6 67.2949 10.7465 65.34 10.3454C64.4219 10.2259 63.5598 10.4343 62.819 10.9832C62.7309 11.0538 62.6433 11.1251 62.5565 11.1974C62.525 11.2216 62.4936 11.2458 62.4611 11.2707C61.4999 12.0322 60.8821 13.3865 60.5294 14.5276C60.5129 14.5794 60.4963 14.6312 60.4793 14.6846C59.5937 17.6016 59.7479 21.1835 61.1529 23.9103C61.8243 25.1663 62.7003 26.2285 64.1014 26.6674C64.6461 26.7966 65.1631 26.7627 65.6937 26.5937C65.7427 26.5784 65.7918 26.563 65.8423 26.5473C67.1604 26.0895 68.2934 24.9269 69.1205 23.8426C69.1727 23.7765 69.2251 23.7106 69.2775 23.6446C69.5885 23.2516 69.8882 22.8564 70.1557 22.4321C70.2158 22.34 70.2158 22.34 70.3271 22.2016C70.3908 22.2016 70.4545 22.2016 70.5201 22.2016C70.5201 23.7306 70.5201 25.2596 70.5201 26.835C70.2334 26.9146 69.9467 26.9942 69.6514 27.0763C69.4625 27.132 69.4625 27.132 69.2737 27.1882C66.438 28.0285 63.112 28.4413 60.3846 27.0763C60.3371 27.0531 60.3371 27.0531 60.2886 27.0294C59.8207 26.7994 59.3988 26.524 58.985 26.2075C58.9174 26.1563 58.9174 26.1563 58.8485 26.104C57.9637 25.4068 57.2552 24.54 56.7166 23.553C56.6917 23.5076 56.6917 23.5076 56.6663 23.4613C55.3891 21.0994 55.1376 18.0955 55.8608 15.5229C56.2616 14.1851 56.8991 12.9123 57.864 11.8925C57.9733 11.7774 57.9733 11.7774 58.0719 11.6502C58.2127 11.4753 58.3784 11.3406 58.5506 11.1974C58.5886 11.1653 58.5886 11.1653 58.6274 11.1326C61.0989 9.05657 64.3744 8.77692 67.4395 9.43079Z" fill="#212831"/>
<path d="M91.0325 9.36328C92.7685 9.36328 94.5046 9.36328 96.2933 9.36328C96.261 9.68577 96.2251 9.95063 96.1364 10.2532C96.0321 10.6322 95.9478 11.0133 95.874 11.3994C95.8593 11.4727 95.8593 11.4727 95.8444 11.5474C95.659 12.5472 95.6513 13.5653 95.6504 14.5787C95.6501 14.7102 95.6495 14.8416 95.649 14.973C95.6479 15.2533 95.6472 15.5336 95.6467 15.8139C95.646 16.2191 95.6447 16.6244 95.6434 17.0296C95.6412 17.6874 95.6394 18.3453 95.6379 19.0031C95.6365 19.6413 95.6348 20.2795 95.6329 20.9177C95.6328 20.9572 95.6327 20.9966 95.6325 21.0373C95.6319 21.2354 95.6313 21.4336 95.6307 21.6317C95.6258 23.2696 95.6214 24.9075 95.6176 26.5454C96.0221 26.5435 96.4266 26.5406 96.8311 26.5365C97.0189 26.5346 97.2068 26.533 97.3947 26.5323C97.5765 26.5315 97.7584 26.5299 97.9402 26.5276C98.009 26.5269 98.0779 26.5265 98.1467 26.5264C99.447 26.5249 100.435 25.8352 101.34 24.97C101.439 24.8768 101.542 24.7881 101.645 24.6992C101.806 24.5562 101.949 24.4057 102.088 24.2409C102.202 24.108 102.322 23.98 102.441 23.8516C102.653 23.6225 102.853 23.386 103.047 23.1414C103.155 23.0125 103.263 22.8932 103.388 22.7807C103.436 22.7807 103.484 22.7807 103.533 22.7807C103.533 24.3735 103.533 25.9662 103.533 27.6072C99.4078 27.6072 95.2826 27.6072 91.0325 27.6072C91.0866 27.1198 91.0866 27.1198 91.142 26.9354C91.1599 26.8738 91.1599 26.8738 91.1782 26.811C91.1908 26.7681 91.2034 26.7253 91.2165 26.6811C91.3218 26.3096 91.4108 25.9391 91.4789 25.559C91.4862 25.5185 91.4935 25.4781 91.5009 25.4365C91.5231 25.3076 91.5432 25.1784 91.5634 25.0492C91.5715 25.0014 91.5797 24.9536 91.5881 24.9044C91.676 24.337 91.6739 23.7741 91.6732 23.201C91.6734 23.0889 91.6736 22.9769 91.6739 22.8649C91.6746 22.5624 91.6746 22.2599 91.6745 21.9575C91.6744 21.6718 91.6747 21.3861 91.675 21.1004C91.6755 20.4996 91.6754 19.8989 91.6751 19.2981C91.6748 18.751 91.6754 18.2038 91.6763 17.6567C91.6772 17.0924 91.6776 16.5281 91.6775 15.9638C91.6774 15.648 91.6775 15.3322 91.6782 15.0164C91.6788 14.719 91.6787 14.4217 91.678 14.1243C91.6779 14.016 91.6781 13.9077 91.6785 13.7994C91.6816 12.8879 91.5857 12.0086 91.4005 11.1159C91.3904 11.0662 91.3804 11.0165 91.37 10.9653C91.2951 10.6034 91.2074 10.2459 91.106 9.89048C91.0533 9.70264 91.0325 9.56188 91.0325 9.36328Z" fill="#212831"/>
<path d="M20.3253 14.3828C21.0261 14.3828 21.7269 14.3828 22.4489 14.3828C22.4649 16.4214 22.4808 18.4601 22.4972 20.5606C23.9147 19.1431 25.3322 17.7255 26.7927 16.2651C26.9471 16.3422 27.0178 16.3817 27.1317 16.4966C27.1588 16.5236 27.1858 16.5507 27.2137 16.5786C27.2423 16.6076 27.2708 16.6367 27.3002 16.6666C27.33 16.6965 27.3597 16.7263 27.3903 16.7571C27.4849 16.8523 27.5792 16.9478 27.6735 17.0433C27.7377 17.108 27.802 17.1727 27.8662 17.2373C28.0235 17.3956 28.1804 17.5542 28.3372 17.713C28.1178 17.976 27.8852 18.2198 27.6425 18.4614C27.6023 18.5016 27.5621 18.5418 27.5207 18.5833C27.3914 18.7125 27.2619 18.8416 27.1325 18.9707C27.0522 19.0508 26.972 19.131 26.8918 19.2112C26.5955 19.5073 26.2989 19.8031 26.0024 20.099C25.0079 21.092 25.0079 21.092 23.9934 22.105C26.0321 22.121 28.0708 22.1369 30.1712 22.1533C30.1712 22.8541 30.1712 23.5549 30.1712 24.2769C29.3795 24.2802 28.5878 24.2829 27.7961 24.2844C27.4285 24.2852 27.0609 24.2862 26.6933 24.2878C26.3727 24.2893 26.0521 24.2902 25.7316 24.2905C25.562 24.2907 25.3924 24.2912 25.2227 24.2922C25.033 24.2934 24.8433 24.2934 24.6536 24.2934C24.5979 24.2939 24.5421 24.2944 24.4847 24.2949C24.0607 24.2933 23.6904 24.2473 23.375 23.9421C23.3144 23.8849 23.3144 23.8849 23.2526 23.8265C23.1629 23.7363 23.0755 23.6456 22.9891 23.5524C22.5734 23.1081 22.1513 22.7771 21.5224 22.7483C20.8662 22.7441 20.4495 22.9044 19.9803 23.3654C19.894 23.4521 19.8085 23.5397 19.7231 23.6274C19.1507 24.2146 19.1507 24.2146 18.7616 24.2346C18.7154 24.2346 18.6693 24.2345 18.6218 24.2345C18.5688 24.2345 18.5158 24.2346 18.4612 24.2347C18.403 24.2345 18.3449 24.2343 18.285 24.2341C18.2238 24.2341 18.1625 24.2342 18.0995 24.2342C17.9316 24.2342 17.7636 24.2339 17.5957 24.2336C17.4203 24.2332 17.2448 24.2332 17.0693 24.2332C16.737 24.233 16.4048 24.2326 16.0725 24.2321C15.6942 24.2316 15.3159 24.2313 14.9376 24.2311C14.1594 24.2306 13.3812 24.2297 12.603 24.2287C12.603 23.5438 12.603 22.8589 12.603 22.1533C14.6417 22.1374 16.6804 22.1214 18.7809 22.105C17.3474 20.6716 15.914 19.2381 14.4371 17.7612C14.5142 17.6069 14.5537 17.5361 14.6686 17.4222C14.6957 17.3952 14.7227 17.3681 14.7506 17.3403C14.7796 17.3117 14.8087 17.2831 14.8386 17.2537C14.8685 17.224 14.8984 17.1943 14.9291 17.1637C15.0243 17.069 15.1198 16.9747 15.2153 16.8804C15.28 16.8162 15.3447 16.752 15.4093 16.6877C15.5676 16.5305 15.7262 16.3736 15.885 16.2168C16.148 16.4361 16.3919 16.6688 16.6334 16.9114C16.6736 16.9516 16.7138 16.9919 16.7553 17.0333C16.8845 17.1626 17.0136 17.292 17.1427 17.4215C17.2228 17.5017 17.303 17.5819 17.3832 17.6621C17.6793 17.9585 17.9752 18.255 18.2711 18.5516C18.933 19.2145 19.595 19.8775 20.277 20.5606C20.3009 17.5026 20.3009 17.5026 20.3253 14.3828Z" fill="#FDFEFE"/>
<path d="M15.9212 28.4755C16.081 28.5472 16.2462 28.6006 16.4127 28.6539C16.4444 28.6642 16.4761 28.6746 16.5088 28.6853C17.7864 29.0807 19.1549 28.7722 20.317 28.2023C20.9117 27.9523 21.7061 27.9293 22.3064 28.1699C22.3534 28.1913 22.4004 28.2126 22.4488 28.2346C22.5108 28.2617 22.5728 28.2888 22.6349 28.3158C22.7349 28.3596 22.8348 28.4035 22.9345 28.4478C23.6097 28.7472 24.1999 28.8224 24.9344 28.8228C25.0261 28.8237 25.0261 28.8237 25.1197 28.8246C25.4498 28.8251 25.7515 28.8113 26.0686 28.7172C26.1259 28.7006 26.1832 28.684 26.2422 28.6669C26.6033 28.5476 26.9517 28.4135 27.2973 28.2544C27.9333 27.9643 28.679 27.9313 29.3406 28.1699C29.5561 28.2599 29.7704 28.3524 29.9835 28.4478C30.6177 28.7311 31.1748 28.8144 31.8633 28.8409C31.9143 28.843 31.9653 28.8451 32.0178 28.8472C32.1423 28.8523 32.2667 28.8572 32.3912 28.862C32.2122 29.4665 31.8482 30.0321 31.5074 30.5573C31.4837 30.5947 31.46 30.6322 31.4356 30.6707C31.2704 30.9186 31.2704 30.9186 31.1182 30.9949C30.9345 30.9815 30.7843 30.9102 30.6205 30.8318C30.551 30.8002 30.4815 30.7685 30.412 30.737C30.3478 30.7073 30.2835 30.6776 30.2193 30.6478C29.2157 30.1888 27.9304 30.1523 26.8861 30.5203C26.6094 30.6253 26.3424 30.7515 26.0746 30.877C25.8495 30.9807 25.6377 31.0453 25.3929 31.0822C25.3346 31.0919 25.3346 31.0919 25.2751 31.1018C24.6446 31.1845 24.0783 31.0622 23.5106 30.7926C23.0121 30.5769 23.0121 30.5769 22.497 30.4065C22.4616 30.3965 22.4261 30.3866 22.3896 30.3763C21.327 30.1334 20.1485 30.3402 19.1793 30.8082C18.4409 31.1646 17.6831 31.2303 16.8984 30.9856C16.7155 30.9139 16.5383 30.8306 16.3605 30.7472C16.1081 30.6302 15.8564 30.5356 15.5892 30.4578C15.5567 30.4481 15.5242 30.4385 15.4906 30.4286C14.2939 30.0942 13.0772 30.3527 11.9918 30.8978C11.8596 30.9441 11.815 30.9386 11.6859 30.8891C11.614 30.8125 11.614 30.8125 11.5467 30.7126C11.5215 30.6756 11.4962 30.6386 11.4702 30.6004C11.4438 30.5603 11.4174 30.5202 11.3902 30.4789C11.3491 30.4174 11.3491 30.4174 11.3071 30.3548C11.1259 30.0815 10.9515 29.8044 10.7839 29.5226C10.7642 29.4895 10.7444 29.4564 10.724 29.4223C10.6181 29.24 10.5384 29.0659 10.4792 28.862C10.54 28.8602 10.6007 28.8584 10.6633 28.8565C11.6829 28.8205 12.462 28.5857 13.3862 28.1633C14.2544 27.815 15.1358 28.0592 15.9212 28.4755Z" fill="#2DCAEE"/>
<path d="M109.614 18.9196C113.8 18.9196 113.8 18.9196 114.781 19.8336C115.541 20.6437 115.849 21.5955 115.849 22.6887C115.849 22.7887 115.85 22.8886 115.851 22.9886C115.855 23.9572 115.629 24.894 114.946 25.6116C113.542 26.9486 111.372 26.5454 109.614 26.5454C109.614 24.0289 109.614 21.5124 109.614 18.9196Z" fill="#FDFDFD"/>
<path d="M15.7661 32.5446C16.3666 32.8515 16.9567 32.9697 17.6224 33.0128C17.6885 33.0172 17.6885 33.0172 17.7559 33.0216C17.8735 33.025 17.9877 33.0206 18.1051 33.0128C18.1636 33.0095 18.2222 33.0062 18.2825 33.0028C19.0256 32.9462 19.7154 32.6834 20.3773 32.3497C20.713 32.2047 21.023 32.1758 21.384 32.1772C21.4247 32.1764 21.4653 32.1757 21.5072 32.1749C21.9364 32.1745 22.2771 32.3205 22.6632 32.4945C23.4004 32.8251 24.0309 32.9808 24.841 32.9856C24.9032 32.9861 24.9655 32.9866 25.0297 32.9872C25.6667 32.9813 26.2455 32.8769 26.8228 32.6056C26.9102 32.5668 26.9977 32.5282 27.0852 32.4898C27.1264 32.4716 27.1676 32.4535 27.2101 32.4348C27.9092 32.1302 28.6362 32.076 29.3622 32.329C29.5065 32.39 29.6457 32.4583 29.785 32.5301C29.6016 32.7541 29.4117 32.9555 29.1908 33.1425C29.1618 33.1671 29.1328 33.1916 29.103 33.217C28.2563 33.923 27.3039 34.4726 26.31 34.9434C26.2363 34.9794 26.2363 34.9794 26.1611 35.0161C23.6678 36.1654 20.6119 36.2982 18.0086 35.4743C17.9752 35.4637 17.9418 35.4532 17.9074 35.4423C16.151 34.8699 14.476 33.7934 13.1821 32.4819C13.2529 32.3403 13.3384 32.3337 13.4868 32.2828C14.2795 32.0494 15.0448 32.1714 15.7661 32.5446Z" fill="#27C2EB"/>
<path d="M109.614 10.4734C113.11 10.4734 113.11 10.4734 113.975 11.2993C114.744 12.1413 115.017 13.2398 114.988 14.3579C114.938 15.3896 114.531 16.474 113.765 17.1821C112.556 18.1378 111.134 17.8578 109.614 17.8578C109.614 15.421 109.614 12.9841 109.614 10.4734Z" fill="#FDFDFD"/>
<path d="M111.062 34.0263C111.476 34.0263 111.89 34.0263 112.317 34.0263C112.333 34.8227 112.349 35.619 112.365 36.4395C112.588 36.2006 112.811 35.9617 113.041 35.7155C113.279 35.4772 113.279 35.4772 113.382 35.376C113.471 35.285 113.555 35.1912 113.638 35.0941C113.818 34.8843 114.014 34.6925 114.211 34.4997C114.34 34.3784 114.34 34.3784 114.4 34.2733C114.47 34.1647 114.525 34.099 114.634 34.0263C114.873 33.9845 115.109 33.9944 115.351 34.0052C115.418 34.0069 115.484 34.0084 115.55 34.0098C115.711 34.0138 115.872 34.0193 116.033 34.0263C115.708 34.407 115.379 34.7822 115.035 35.1454C114.766 35.4299 114.498 35.7155 114.234 36.004C114.128 36.1194 114.022 36.2336 113.91 36.343C113.985 36.5978 114.151 36.7721 114.32 36.9704C114.382 37.0441 114.443 37.1179 114.505 37.1918C114.535 37.228 114.566 37.2643 114.597 37.3016C114.751 37.4884 114.896 37.6813 115.043 37.874C115.208 38.0903 115.379 38.3019 115.55 38.5138C115.573 38.5426 115.596 38.5714 115.62 38.601C115.64 38.6264 115.661 38.6517 115.682 38.6778C115.752 38.7671 115.82 38.858 115.888 38.9492C116.12 38.4998 116.327 38.0422 116.531 37.5797C116.599 37.4258 116.667 37.2718 116.735 37.1178C116.753 37.0783 116.77 37.0388 116.788 36.9981C117.003 36.5118 117.221 36.0266 117.439 35.5414C117.665 35.0375 117.888 34.5325 118.109 34.0263C118.523 34.0263 118.937 34.0263 119.363 34.0263C119.556 34.4063 119.738 34.7884 119.909 35.1786C119.96 35.2934 120.011 35.4082 120.062 35.5231C120.082 35.5687 120.082 35.5687 120.102 35.6152C120.21 35.8595 120.319 36.1033 120.428 36.3469C120.445 36.3847 120.462 36.4224 120.48 36.4613C120.515 36.5387 120.549 36.6161 120.584 36.6935C120.872 37.3367 121.159 37.9808 121.442 38.6265C121.457 38.6601 121.471 38.6937 121.487 38.7283C121.528 38.8218 121.569 38.9154 121.609 39.009C121.633 39.0618 121.656 39.1146 121.679 39.1689C121.728 39.2871 121.728 39.2871 121.728 39.3354C121.298 39.3354 120.868 39.3354 120.425 39.3354C120.245 38.959 120.112 38.6299 119.991 38.2253C119.163 38.2253 118.334 38.2253 117.481 38.2253C117.433 38.3846 117.386 38.5438 117.336 38.7079C117.288 38.8237 117.237 38.9385 117.183 39.0518C117.157 39.1057 117.131 39.1596 117.105 39.2151C117.086 39.2548 117.067 39.2945 117.047 39.3354C116.718 39.3489 116.389 39.3581 116.06 39.3645C115.948 39.3672 115.837 39.3708 115.725 39.3754C114.744 39.4149 114.744 39.4149 114.517 39.2236C114.406 39.0885 114.328 38.9589 114.247 38.8045C114.181 38.7196 114.113 38.6359 114.042 38.5541C113.966 38.4606 113.889 38.3671 113.813 38.2735C113.787 38.2418 113.761 38.21 113.734 38.1773C113.649 38.0727 113.564 37.968 113.478 37.8633C113.451 37.8298 113.423 37.7962 113.395 37.7616C113.369 37.73 113.344 37.6983 113.317 37.6657C113.294 37.6375 113.271 37.6093 113.247 37.5802C113.191 37.5083 113.14 37.4325 113.089 37.3565C112.785 37.4965 112.505 37.671 112.365 37.984C112.283 38.428 112.304 38.8859 112.317 39.3354C111.903 39.3354 111.489 39.3354 111.062 39.3354C111.062 37.5834 111.062 35.8314 111.062 34.0263Z" fill="#212831"/>
<path d="M127.231 12.5004C127.262 12.5004 127.294 12.5004 127.327 12.5004C127.338 12.531 127.35 12.5615 127.362 12.593C127.663 13.4014 127.663 13.4014 127.976 14.2052C128.065 14.4303 128.145 14.6579 128.225 14.8863C128.425 15.4562 128.64 16.0201 128.853 16.5848C128.897 16.6991 128.94 16.8134 128.983 16.9277C129.215 17.5413 129.448 18.1543 129.686 18.7657C129.709 18.8242 129.731 18.8826 129.755 18.9428C129.796 19.0488 129.837 19.1547 129.878 19.2606C129.958 19.4645 130.036 19.6684 130.114 19.8728C130.136 19.9293 130.158 19.9858 130.18 20.044C130.223 20.1744 130.223 20.1744 130.223 20.3192C128.328 20.3192 126.432 20.3192 124.479 20.3192C124.588 19.8855 124.588 19.8855 124.653 19.7123C124.668 19.673 124.682 19.6337 124.697 19.5932C124.721 19.53 124.721 19.53 124.745 19.4656C124.891 19.0701 125.031 18.6731 125.167 18.274C125.829 16.3406 126.533 14.4214 127.231 12.5004Z" fill="#FCFCFC"/>
<path d="M105.512 34.0263C105.953 34.0233 106.394 34.0204 106.848 34.0173C106.986 34.016 107.124 34.0146 107.266 34.0133C107.377 34.0129 107.488 34.0125 107.6 34.0122C107.656 34.0115 107.712 34.0107 107.77 34.0099C108.449 34.0097 109.033 34.162 109.581 34.5723C109.978 34.9696 110.149 35.3986 110.163 35.9569C110.149 36.4789 110.008 36.8635 109.662 37.26C109.54 37.3685 109.414 37.4614 109.276 37.5496C109.229 37.5815 109.181 37.6133 109.132 37.6462C109.21 37.8875 109.352 38.0736 109.5 38.2766C109.552 38.3495 109.604 38.4225 109.656 38.4955C109.682 38.5313 109.707 38.5672 109.734 38.6041C110.193 39.253 110.193 39.253 110.193 39.3354C109.851 39.3621 109.51 39.3775 109.166 39.3708C109.11 39.37 109.054 39.3691 108.996 39.3682C108.798 39.3261 108.725 39.248 108.598 39.0941C108.563 39.0131 108.528 38.932 108.497 38.8494C108.415 38.6628 108.287 38.5022 108.169 38.3369C108.123 38.2704 108.078 38.2039 108.032 38.1373C107.94 37.9967 107.94 37.9967 107.877 37.9357C107.794 37.9281 107.712 37.9236 107.629 37.9205C107.584 37.9186 107.539 37.9168 107.493 37.9149C107.435 37.9128 107.378 37.9107 107.319 37.9086C107.136 37.9016 106.954 37.8947 106.767 37.8875C106.767 38.3812 106.767 38.875 106.767 39.3837C106.352 39.3837 105.938 39.3837 105.512 39.3837C105.512 37.6157 105.512 35.8478 105.512 34.0263Z" fill="#212831"/>
<path d="M83.0688 34.0264C83.4192 34.0264 83.7696 34.0264 84.1307 34.0264C84.3089 34.234 84.387 34.3288 84.4795 34.5651C84.54 34.7091 84.6249 34.8367 84.7085 34.9683C84.7743 35.0766 84.8401 35.1849 84.9059 35.2933C84.9413 35.3515 84.9766 35.4096 85.012 35.4678C85.192 35.7642 85.371 36.0612 85.548 36.3595C85.5815 36.4157 85.6149 36.4719 85.6483 36.528C85.7114 36.6343 85.7743 36.7406 85.837 36.8471C85.8651 36.8945 85.8933 36.9419 85.9223 36.9907C85.9469 37.0324 85.9715 37.0741 85.9968 37.117C86.0543 37.2181 86.0543 37.2181 86.1578 37.2601C86.1708 37.2252 86.1839 37.1903 86.1973 37.1543C86.2534 37.0209 86.318 36.9039 86.3932 36.7804C86.4214 36.7339 86.4496 36.6874 86.4786 36.6395C86.5091 36.5895 86.5396 36.5394 86.571 36.4878C86.6364 36.3799 86.7017 36.2718 86.7669 36.1638C86.7924 36.1215 86.7924 36.1215 86.8185 36.0784C87.0572 35.6823 87.2896 35.2825 87.5225 34.883C87.5391 34.8545 87.5557 34.826 87.5729 34.7966C87.6178 34.7196 87.6627 34.6426 87.7075 34.5657C87.8156 34.3842 87.9281 34.2055 88.0401 34.0264C88.3905 34.0264 88.7409 34.0264 89.1019 34.0264C89.1019 35.7784 89.1019 37.5304 89.1019 39.3354C88.7037 39.3354 88.3055 39.3354 87.8953 39.3354C87.8793 38.3479 87.8634 37.3605 87.847 36.3431C87.7236 36.5541 87.6001 36.7651 87.473 36.9826C87.19 37.4658 86.9054 37.9479 86.6159 38.4272C86.5941 38.4633 86.5724 38.4994 86.5499 38.5366C86.5311 38.5676 86.5123 38.5987 86.493 38.6306C86.4595 38.6874 86.4285 38.7456 86.3991 38.8045C86.3089 38.8163 86.2183 38.8247 86.1276 38.8317C86.0772 38.8367 86.0268 38.8418 85.9749 38.8469C85.724 38.7783 85.6551 38.5871 85.5303 38.3701C85.4657 38.2648 85.401 38.1594 85.3361 38.0542C85.2659 37.9384 85.196 37.8225 85.1261 37.7065C85.0735 37.6195 85.0209 37.5325 84.9683 37.4455C84.9203 37.366 84.8723 37.2866 84.8244 37.2071C84.6586 36.9345 84.4909 36.6631 84.3237 36.3913C84.3078 37.3629 84.2919 38.3344 84.2755 39.3354C83.8773 39.3354 83.4791 39.3354 83.0688 39.3354C83.0688 37.5834 83.0688 35.8315 83.0688 34.0264Z" fill="#212831"/>
<path d="M92.4802 34.0264C92.8147 34.0264 93.1492 34.0264 93.4938 34.0264C93.8372 34.454 93.8372 34.454 93.9342 34.6634C94.081 34.9655 94.2536 35.2484 94.4289 35.5346C94.4898 35.6363 94.5506 35.738 94.6112 35.8399C94.8952 36.3151 95.184 36.7875 95.4726 37.2601C95.7727 36.782 96.0701 36.3026 96.3539 35.8146C96.4101 35.7181 96.4668 35.6219 96.524 35.526C96.6688 35.2813 96.8018 35.0373 96.9205 34.7788C96.9571 34.7047 96.9571 34.7047 96.9944 34.6292C97.0665 34.4872 97.0665 34.4872 97.1211 34.345C97.186 34.2179 97.186 34.2179 97.4032 34.0264C97.7536 34.0264 98.104 34.0264 98.465 34.0264C98.465 35.7784 98.465 37.5304 98.465 39.3354C98.0827 39.3354 97.7005 39.3354 97.3066 39.3354C97.2907 38.332 97.2748 37.3286 97.2584 36.2948C97.1369 36.4939 97.0155 36.693 96.8904 36.8981C96.8297 36.9967 96.8297 36.9967 96.7679 37.0973C96.5872 37.3919 96.4133 37.6874 96.2533 37.9938C96.2105 38.0739 96.2105 38.0739 96.1668 38.1555C96.1133 38.2564 96.0615 38.3583 96.0118 38.4611C95.938 38.598 95.8775 38.7 95.7622 38.8045C95.5568 38.864 95.389 38.8602 95.183 38.8045C95.0618 38.6941 95.0235 38.6435 94.9568 38.5029C94.9184 38.4327 94.8799 38.3627 94.8412 38.2927C94.8091 38.2322 94.8091 38.2322 94.7764 38.1706C94.6871 38.0082 94.5916 37.85 94.4947 37.692C94.4765 37.6623 94.4582 37.6325 94.4394 37.6019C94.4022 37.5413 94.3649 37.4807 94.3277 37.4201C94.2383 37.2745 94.1497 37.1285 94.0613 36.9824C94.031 36.9324 94.0007 36.8825 93.9695 36.8311C93.8732 36.6696 93.7801 36.5063 93.6868 36.3431C93.6709 37.3305 93.655 38.318 93.6386 39.3354C93.2563 39.3354 92.8741 39.3354 92.4802 39.3354C92.4802 37.5834 92.4802 35.8315 92.4802 34.0264Z" fill="#212831"/>
<path d="M70.5926 34.0208C70.6449 34.0211 70.6972 34.0213 70.7511 34.0216C70.8076 34.0217 70.864 34.0219 70.9222 34.0221C70.9816 34.0225 71.0411 34.0229 71.1023 34.0233C71.1918 34.0236 71.1918 34.0236 71.283 34.0239C71.4309 34.0245 71.5788 34.0253 71.7268 34.0263C71.7458 34.0693 71.7649 34.1124 71.7846 34.1567C71.8769 34.3646 71.9692 34.5725 72.0616 34.7804C72.0788 34.8191 72.096 34.8579 72.1137 34.8978C72.362 35.4566 72.6112 36.015 72.8613 36.573C73.1364 37.1873 73.4113 37.8018 73.684 38.4171C73.7163 38.4899 73.7486 38.5626 73.781 38.6352C73.8255 38.7351 73.8697 38.835 73.9139 38.9349C73.939 38.9915 73.9641 39.0481 73.99 39.1063C74.0434 39.2388 74.0434 39.2388 74.0434 39.3354C73.6134 39.3354 73.1834 39.3354 72.7403 39.3354C72.6686 39.1701 72.597 39.0049 72.5231 38.8346C72.4891 38.7566 72.4891 38.7566 72.4544 38.6769C72.4368 38.636 72.4191 38.5951 72.4009 38.553C72.3827 38.511 72.3645 38.469 72.3458 38.4258C72.3059 38.3218 72.3059 38.3218 72.3059 38.2253C71.0875 38.2492 71.0875 38.2492 69.8444 38.2735C69.7011 38.608 69.5578 38.9425 69.4101 39.2871C69.3618 39.3354 69.3618 39.3354 69.2411 39.3408C69.1888 39.3406 69.1365 39.3403 69.0826 39.3401C68.9979 39.3398 68.9979 39.3398 68.9115 39.3396C68.8223 39.339 68.8223 39.339 68.7314 39.3384C68.6419 39.338 68.6419 39.338 68.5506 39.3377C68.4027 39.3371 68.2548 39.3363 68.1069 39.3354C68.1794 39.103 68.2714 38.8856 68.3724 38.6648C68.3892 38.6277 68.406 38.5906 68.4233 38.5524C68.4596 38.4722 68.496 38.3921 68.5324 38.3119C68.6307 38.0955 68.7286 37.8788 68.8264 37.6621C68.8466 37.6172 68.8669 37.5723 68.8878 37.5261C69.1055 37.0427 69.3183 36.5572 69.5307 36.0715C69.7627 35.5415 69.9946 35.0117 70.2336 34.4848C70.2529 34.4421 70.2722 34.3995 70.292 34.3555C70.4417 34.0277 70.4417 34.0277 70.5926 34.0208Z" fill="#212831"/>
<path d="M101.361 34.0264C101.775 34.0264 102.189 34.0264 102.616 34.0264C102.876 34.5804 103.13 35.1368 103.382 35.6945C103.402 35.738 103.421 35.7814 103.441 35.8262C103.735 36.4766 104.028 37.1275 104.32 37.7789C104.345 37.8351 104.345 37.8351 104.371 37.8924C104.981 39.2528 104.981 39.2528 104.981 39.3354C104.551 39.3354 104.121 39.3354 103.678 39.3354C103.497 38.9591 103.365 38.6299 103.243 38.2254C102.415 38.2254 101.587 38.2254 100.733 38.2254C100.686 38.3687 100.638 38.512 100.589 38.6597C100.496 38.8869 100.397 39.1107 100.299 39.3354C99.885 39.3354 99.4708 39.3354 99.0442 39.3354C99.0781 39.1659 99.1015 39.0575 99.1699 38.9082C99.1858 38.8732 99.2016 38.8382 99.218 38.8021C99.2441 38.7457 99.2441 38.7457 99.2706 38.6882C99.2888 38.6483 99.307 38.6083 99.3257 38.5672C99.365 38.481 99.4044 38.3949 99.4439 38.3089C99.5491 38.0796 99.6535 37.8498 99.758 37.6202C99.7792 37.5736 99.8005 37.5269 99.8223 37.4789C100.023 37.0381 100.22 36.5958 100.417 36.153C100.448 36.082 100.48 36.011 100.511 35.94C100.572 35.803 100.633 35.6661 100.693 35.5291C100.835 35.209 100.977 34.8892 101.12 34.5693C101.199 34.3902 101.279 34.211 101.361 34.0264Z" fill="#212831"/>
<path d="M121.97 34.0264C123.451 34.0264 124.932 34.0264 126.458 34.0264C126.458 34.9336 126.458 34.9336 126.191 35.2119C126.152 35.2507 126.113 35.2895 126.072 35.3295C125.986 35.4294 125.9 35.5298 125.816 35.6312C125.782 35.6708 125.782 35.6708 125.748 35.7112C125.587 35.8998 125.433 36.0929 125.282 36.2888C125.069 36.5627 124.846 36.8246 124.617 37.085C124.39 37.3449 124.176 37.6135 123.965 37.8864C123.864 38.0165 123.762 38.1452 123.659 38.2736C125.116 38.2975 125.116 38.2975 126.603 38.3219C126.603 38.6564 126.603 38.9908 126.603 39.3354C125.058 39.3354 123.513 39.3354 121.921 39.3354C121.921 38.4227 121.921 38.4227 122.105 38.2296C122.131 38.2063 122.157 38.183 122.184 38.159C122.238 38.1037 122.292 38.0483 122.345 37.9929C122.372 37.9668 122.399 37.9407 122.426 37.9139C122.53 37.81 122.62 37.6976 122.712 37.5828C123.122 37.0782 123.535 36.5755 123.956 36.08C124.233 35.754 124.502 35.4221 124.769 35.0882C123.845 35.0723 122.921 35.0563 121.97 35.0399C121.97 34.7054 121.97 34.371 121.97 34.0264Z" fill="#212831"/>
<path d="M63.8113 34.0264C65.3244 34.0264 66.8374 34.0264 68.3964 34.0264C68.3964 34.3608 68.3964 34.6953 68.3964 35.0399C67.8389 35.0399 67.2815 35.0399 66.7071 35.0399C66.7071 36.4574 66.7071 37.875 66.7071 39.3354C66.293 39.3354 65.8789 39.3354 65.4523 39.3354C65.4523 37.9179 65.4523 36.5004 65.4523 35.0399C64.9107 35.0399 64.3692 35.0399 63.8113 35.0399C63.8113 34.7054 63.8113 34.371 63.8113 34.0264Z" fill="#212831"/>
<path d="M76.0222 34.0264C76.4363 34.0264 76.8504 34.0264 77.2771 34.0264C77.2771 35.4439 77.2771 36.8614 77.2771 38.3219C78.1531 38.3219 79.0291 38.3219 79.9316 38.3219C79.9316 38.6564 79.9316 38.9908 79.9316 39.3354C78.6415 39.3354 77.3514 39.3354 76.0222 39.3354C76.0222 37.5834 76.0222 35.8315 76.0222 34.0264Z" fill="#212831"/>
<path d="M127.327 34.0264C127.741 34.0264 128.155 34.0264 128.582 34.0264C128.582 35.7784 128.582 37.5304 128.582 39.3354C128.168 39.3354 127.754 39.3354 127.327 39.3354C127.327 37.5834 127.327 35.8315 127.327 34.0264Z" fill="#212831"/>
<path d="M80.6072 34.0264C81.0213 34.0264 81.4354 34.0264 81.862 34.0264C81.862 35.7784 81.862 37.5304 81.862 39.3354C81.4479 39.3354 81.0338 39.3354 80.6072 39.3354C80.6072 37.5834 80.6072 35.8315 80.6072 34.0264Z" fill="#212831"/>
<path d="M106.767 35.0398C106.972 35.0359 107.177 35.0319 107.388 35.0278C107.452 35.026 107.515 35.0243 107.581 35.0224C107.959 35.0189 108.332 35.0437 108.632 35.3011C108.835 35.5298 108.912 35.7459 108.902 36.0511C108.867 36.3485 108.726 36.5279 108.509 36.7165C108.164 36.9229 107.786 36.8852 107.397 36.8799C107.085 36.8769 107.085 36.8769 106.767 36.8739C106.767 36.2686 106.767 35.6634 106.767 35.0398Z" fill="#FCFCFC"/>
<path d="M74.0433 34.0264C74.3778 34.0264 74.7123 34.0264 75.0569 34.0264C75.0511 34.2659 75.0451 34.5054 75.0389 34.7449C75.0368 34.8262 75.0348 34.9075 75.0329 34.9888C75.03 35.1063 75.027 35.2238 75.0239 35.3414C75.0227 35.395 75.0227 35.395 75.0214 35.4498C75.0145 35.7015 74.9907 35.9482 74.9603 36.1983C74.6736 36.1983 74.387 36.1983 74.0916 36.1983C74.052 35.4732 74.0388 34.7526 74.0433 34.0264Z" fill="#212831"/>
<path d="M71.051 35.2812C71.1878 35.418 71.2424 35.586 71.3153 35.7621C71.3312 35.8002 71.3471 35.8383 71.3636 35.8775C71.3972 35.9581 71.4307 36.0387 71.4641 36.1194C71.5153 36.2429 71.567 36.3663 71.6188 36.4896C71.6514 36.5678 71.684 36.6461 71.7165 36.7244C71.732 36.7614 71.7475 36.7983 71.7635 36.8364C71.8715 37.0986 71.8715 37.0986 71.8715 37.26C71.3299 37.26 70.7884 37.26 70.2305 37.26C70.4537 36.702 70.4537 36.702 70.5262 36.5209C70.6205 36.2853 70.7147 36.0498 70.8079 35.8138C70.8212 35.7802 70.8346 35.7466 70.8483 35.712C70.8828 35.6247 70.9172 35.5374 70.9516 35.4501C71.0027 35.3295 71.0027 35.3295 71.051 35.2812Z" fill="#FBFBFB"/>
<path d="M118.688 35.3295C118.72 35.3295 118.751 35.3295 118.784 35.3295C118.894 35.5888 119.004 35.8482 119.114 36.1078C119.152 36.1961 119.189 36.2844 119.227 36.3726C119.28 36.4993 119.334 36.6261 119.388 36.7529C119.404 36.7925 119.421 36.8321 119.439 36.8729C119.557 37.1525 119.557 37.1525 119.557 37.26C119.015 37.26 118.473 37.26 117.916 37.26C118.007 36.9854 118.099 36.721 118.212 36.4559C118.225 36.4234 118.239 36.3908 118.253 36.3572C118.296 36.2549 118.34 36.1526 118.383 36.0504C118.413 35.9803 118.442 35.9102 118.472 35.8401C118.544 35.6698 118.616 35.4996 118.688 35.3295Z" fill="#FBFBFB"/>
<path d="M101.94 35.3295C101.972 35.3295 102.004 35.3295 102.037 35.3295C102.147 35.5888 102.257 35.8482 102.367 36.1078C102.404 36.1961 102.442 36.2844 102.479 36.3726C102.533 36.4993 102.586 36.6261 102.64 36.7529C102.657 36.7925 102.674 36.8321 102.691 36.8729C102.809 37.1525 102.809 37.1525 102.809 37.26C102.267 37.26 101.726 37.26 101.168 37.26C101.26 36.9854 101.351 36.721 101.464 36.4559C101.478 36.4234 101.492 36.3908 101.506 36.3572C101.549 36.2549 101.592 36.1526 101.636 36.0504C101.665 35.9803 101.695 35.9102 101.724 35.8401C101.796 35.6698 101.868 35.4996 101.94 35.3295Z" fill="#FBFBFB"/>
<defs>
<linearGradient id="paint0_linear_1_11379" x1="0" y1="0" x2="47.6843" y2="42.5042" gradientUnits="userSpaceOnUse">
<stop stop-color="#008CDA"/>
<stop offset="0.500371" stop-color="#34D4F2"/>
<stop offset="1" stop-color="#ACE2E1"/>
</linearGradient>
</defs>
</svg>
