<svg width="439" height="493" fill="none" xmlns="http://www.w3.org/2000/svg"><path d="M92.722.65h252.373v49.486h93.526c.06 50.981.06 50.981.073 72.354l.009 14.673.001 1.858c.006 9.862.018 19.724.032 29.586.014 10.14.022 20.28.025 30.421.002 6.244.008 12.488.02 18.732.008 4.297.011 8.594.009 12.891-.001 2.469 0 4.939.008 7.408.078 25.124-2.155 50.683-9.741 74.77a174.034 174.034 0 0 0-.911 3.012c-3.166 10.536-7.15 20.741-11.793 30.71l-.645 1.384c-8.849 18.775-20.813 36.587-34.888 51.858-.906.994-1.788 2.002-2.667 3.021-1.728 1.976-3.531 3.857-5.385 5.715l-.978.982c-.678.681-1.357 1.361-2.036 2.04-1.024 1.024-2.043 2.053-3.062 3.081-3.226 3.24-6.448 6.366-10.053 9.187-1.24.988-2.402 2.037-3.565 3.114-2.563 2.326-5.268 4.436-8.037 6.507-.635.476-1.267.954-1.899 1.434a307.774 307.774 0 0 1-51.858 31.876c-1.257.614-2.508 1.238-3.76 1.862-16.823 8.31-34.42 14.927-52.406 20.239l-1.044.309c-14.327 4.222-14.327 4.222-20.101 2.714l-1.718-.449-1.848-.502-.963-.259a307.92 307.92 0 0 1-35.563-11.989l-1.406-.568c-29.282-11.909-57.376-27.204-81.906-47.263a515.444 515.444 0 0 0-2.24-1.816c-9.766-7.916-9.766-7.916-13.642-11.936-.818-.82-1.677-1.564-2.56-2.314a103.593 103.593 0 0 1-11.205-11.314c-1.062-1.234-2.166-2.427-3.269-3.624a147.321 147.321 0 0 1-6.343-7.448c-.455-.57-.913-1.137-1.372-1.703a205.448 205.448 0 0 1-19.563-28.798l-.716-1.267c-6.392-11.383-11.648-23.087-16.11-35.352l-.527-1.436c-2.332-6.421-4.149-12.944-5.813-19.564l-.283-1.122a178.384 178.384 0 0 1-2.949-14.048 280.87 280.87 0 0 0-.714-4.081c-2.238-12.269-3.158-24.8-3.134-37.26l-.001-2.572c-.001-2.336 0-4.672.003-7.008.002-2.527.002-5.054.001-7.58 0-4.371.002-8.742.004-13.113.004-6.32.006-12.64.006-18.959.001-10.255.005-20.509.01-30.764l.01-29.874v-1.881l.003-14.563c.004-23.77.014-47.54.024-71.311h92.537V.65Z" fill="url(#a)"/><path d="M114.99 24.404h90.062v96.99l-13.361 2.474c-27.94 6.909-54.196 22.407-71.258 46.021l-1.268 1.703C106 189.433 98.27 210.281 95.69 232.24c-.065.538-.13 1.076-.199 1.63-1.228 12.464-.405 25.326 2.674 37.463l.41 1.676c.472 1.346.472 1.346 1.592 2.016 8.717 2.948 17.732 1.575 25.895-2.176 10.961-5.034 24.669-6.78 36.263-2.517 3.072 1.223 6.076 2.586 9.077 3.97 6.219 2.85 14.697 3.315 21.2 1.042a69.61 69.61 0 0 0 4.533-2.031c10.937-5.188 24.254-7.188 35.998-3.37 3.922 1.409 7.711 3.141 11.507 4.854 3.519 1.558 6.973 1.588 10.763 1.609l1.407.031c4.735.026 8.542-1.311 12.81-3.254 12.947-5.891 26.09-6.734 39.552-1.716 1.435.582 2.843 1.203 4.252 1.846 1.039.459 2.08.912 3.124 1.361l1.386.61c3.104 1.092 6.28 1.088 9.532 1.091l1.198.018c4.016.01 7.657-.951 11.482-2.091l.164-1.111a321.146 321.146 0 0 1 1.789-10.677 70.468 70.468 0 0 0 1.134-12.005l.015-1.265c.324-35.022-11.731-66.131-36.245-91.335-2.967-2.995-6.082-5.722-9.414-8.309l-1.508-1.198c-6.665-5.263-13.73-9.715-21.255-13.647l-1.089-.57c-12.973-6.69-26.649-10.404-40.973-12.791v-96.99h90.062v22.763h-67.299v54.928l2.969.495c5.601 1.355 11.089 3.041 16.33 5.443.742.324 1.484.648 2.227.97 11.771 5.15 22.812 11.323 32.907 19.319l1.342 1.053c8.326 6.669 16.402 14.233 22.906 22.7l1.158 1.449a143.133 143.133 0 0 1 14.182 21.809l.502.945c14.778 28.109 20.476 60.643 15.333 92.086l-.494.99-.186 1.887c-2.127 20.067-12.23 42.675-24.557 58.485l-2.196 2.969c-7.602 10.084-16.392 20.071-26.505 27.711l-1.794 1.392c-12.916 9.943-27.281 17.896-42.773 23.027-.893.301-1.778.625-2.662.95-33.717 12.121-74.273 8.653-106.42-6.49a441.607 441.607 0 0 1-4.208-2.054l-1.259-.612c-8.957-4.384-17.21-9.965-24.968-16.213l-1.338-1.049c-4.046-3.224-7.789-6.764-11.528-10.332l-1.197-1.133c-2.202-2.137-4.14-4.441-6.058-6.835a189.737 189.737 0 0 0-3.539-4.218c-5.135-6.176-9.435-12.823-13.323-19.842a297.384 297.384 0 0 0-1.764-3.122c-5.342-9.528-9.092-19.852-11.885-30.386a192.57 192.57 0 0 0-.918-3.316c-3.05-11.229-3.986-22.77-3.997-34.355l-.002-1.43c-.001-7.2.333-14.207 1.429-21.335a84.31 84.31 0 0 0 .413-3.17c1.51-12.652 5.965-26.232 11.645-37.622l.54-1.089c4.247-8.474 9.093-16.576 14.8-24.149l.657-.873a131.062 131.062 0 0 1 8.937-10.607 162.672 162.672 0 0 0 3.489-3.891c7.075-7.85 15.687-14.518 24.526-20.258l1.577-1.024a160.459 160.459 0 0 1 4.856-2.935l1.057-.618c24.558-14.227 24.558-14.227 36.056-14.227V47.661H114.99V24.404Z" fill="#FDFEFE"/><path d="M21.958 71.414h125.197c-9.368 12.491-22.559 20.153-37.922 22.8-5.964.824-12.016.58-18.023.555-1.344-.003-2.688-.003-4.031-.004a4273.8 4273.8 0 0 1-9.474-.022c-3.6-.01-7.2-.016-10.8-.021-7.394-.01-14.79-.028-22.184-.05.04 19.58.086 39.16.139 58.74l.018 6.961.004 1.4c.02 7.443.035 14.886.05 22.33.016 7.658.035 15.316.058 22.974.013 4.712.024 9.423.032 14.135.005 3.247.014 6.494.025 9.741.007 1.863.012 3.726.013 5.589.004 7.638.157 15.246.626 22.87l.064 1.038c.325 5.178.8 10.304 1.6 15.43l.327 2.184c.876 5.746 2 11.4 3.477 17.022l.367 1.431c9.6 37.173 30.963 71.941 61.182 96.008a178.888 178.888 0 0 1 4.111 3.418c12.617 10.505 26.714 19.2 41.227 26.814l1.43.757c15.223 8.012 31.195 14.291 47.561 19.532l1.677.546c1.427.46 2.857.905 4.292 1.341l1.175.373c4.367 1.258 8.449.303 12.711-.961l1.32-.386c27.817-8.325 54.918-20.41 78.784-37.037l.834-.576c7.651-5.299 14.962-11.07 21.929-17.238l1.4-1.232c6.349-5.702 12.77-11.672 18.008-18.427.863-1.103 1.781-2.113 2.737-3.135 3.165-3.526 5.823-7.475 8.536-11.351l.677-.963c5.454-7.806 10.088-16.173 14.168-24.769l.511-1.054c8.848-18.325 13.748-37.936 16.05-58.087.155-1.339.329-2.67.522-4.006.981-7.323.886-14.672.889-22.045.001-2.01.009-4.019.016-6.029.011-3.472.018-6.944.023-10.415.007-5.02.02-10.039.034-15.059.022-8.146.041-16.292.056-24.438a37518.987 37518.987 0 0 1 .055-25.203l.019-7.351c.051-20.291.095-40.581.135-60.872l-.96.006c-7.76.044-15.518.076-23.278.097-3.752.01-7.505.024-11.257.047-3.276.02-6.552.032-9.828.037-1.729.002-3.459.008-5.189.023-10.999.089-20.987-.733-31.138-5.158l-1.564-.677c-8.157-3.804-15.632-10.097-21.199-17.138v-.495h127.671c.06 45.95.06 45.95.072 65.215l.009 13.226.001 1.674c.007 8.889.019 17.778.032 26.667.014 9.139.022 18.279.025 27.419.002 5.628.009 11.256.021 16.884.008 3.873.01 7.746.008 11.619-.001 2.226.001 4.452.009 6.678.036 10.61-.391 20.986-1.662 31.527l-.187 1.57c-1.37 11.373-3.453 22.585-6.741 33.564l-.34 1.139a304.141 304.141 0 0 1-2.134 6.779l-.437 1.347c-8.109 24.735-21.377 47.96-38.656 67.437l-1.825 2.103-1.639 1.856-.942 1.069c-2.668 3-5.436 5.881-8.282 8.714-.707.704-1.412 1.412-2.116 2.119-2.573 2.57-5.185 5.047-7.959 7.397l-1.568 1.355c-3.385 2.886-6.824 5.677-10.382 8.348-.637.479-1.273.961-1.908 1.444-10.513 7.993-21.633 15.066-33.153 21.513l-1.603.9c-19.153 10.688-39.366 18.719-60.253 25.327l-1.885.597c-24.384 7.603-53.803-7.813-75.806-18.411l-1.616-.775c-10.735-5.177-21.035-11.069-31.044-17.535l-.908-.586a247.593 247.593 0 0 1-22.031-16.07c-.748-.61-1.503-1.213-2.258-1.816-3.086-2.475-5.998-5.102-8.886-7.801a199.611 199.611 0 0 0-4.052-3.665c-3.886-3.488-7.624-7.171-11.008-11.15-.955-1.112-1.948-2.184-2.94-3.263-2.765-3.068-5.284-6.311-7.794-9.587l-.742-.964c-23.84-31.074-38.532-68.94-41.644-108.015l-.095-1.175c-.7-8.822-.776-17.62-.743-26.466.006-2.27.004-4.54.003-6.81-.001-3.91.003-7.819.012-11.728.012-5.652.016-11.304.018-16.956.003-9.175.013-18.351.027-27.526a32109.821 32109.821 0 0 0 .032-28.385l.008-13.063c.014-21.246.044-42.493.072-63.74Z" fill="#FDFEFE"/><path d="M208.516 148.116h21.774l.494 63.341 44.042-44.042c1.582.791 2.308 1.196 3.476 2.374l.84.84.888.903.923.928c.97.976 1.937 1.955 2.904 2.935l1.976 1.989c1.612 1.623 3.221 3.249 4.828 4.877-2.249 2.696-4.634 5.196-7.122 7.673l-1.249 1.249c-1.326 1.326-2.653 2.649-3.981 3.973l-2.467 2.465c-3.038 3.036-6.079 6.07-9.119 9.104l-20.598 20.567 63.34.495v21.773c-8.117.034-16.234.061-24.351.077-3.769.008-7.538.018-11.308.035-3.286.015-6.573.024-9.86.028-1.739.002-3.478.006-5.217.017-1.945.012-3.89.012-5.835.012l-1.732.016c-4.348-.017-8.143-.489-11.377-3.618l-1.255-1.185c-.92-.925-1.816-1.855-2.702-2.81-4.262-4.555-8.59-7.95-15.038-8.245-6.728-.042-11 1.601-15.811 6.327-.885.89-1.761 1.788-2.637 2.687-5.869 6.021-5.869 6.021-9.859 6.225l-1.433-.001-1.646.002-1.807-.006-1.902.001c-1.722 0-3.443-.003-5.165-.007-1.799-.003-3.598-.003-5.397-.004a8705.75 8705.75 0 0 1-10.221-.01c-3.878-.006-7.757-.008-11.636-.011-7.978-.005-15.957-.014-23.936-.025v-21.278l63.341-.495-44.536-44.537c.791-1.582 1.195-2.308 2.374-3.476l.84-.84.903-.887.928-.924c.975-.97 1.955-1.937 2.934-2.904l1.989-1.975c1.623-1.612 3.249-3.221 4.877-4.829 2.697 2.249 5.197 4.634 7.673 7.122l1.25 1.25a5736.857 5736.857 0 0 0 6.438 6.447c3.036 3.039 6.069 6.079 9.103 9.12 6.787 6.797 13.575 13.594 20.567 20.598l.495-63.341Z" fill="#FDFEFE"/><path d="M163.363 292.608c1.638.735 3.332 1.283 5.039 1.829l.985.322c13.1 4.054 27.13.89 39.046-4.952 6.097-2.564 14.242-2.8 20.397-.332l1.46.663 1.907.833c1.026.448 2.05.898 3.073 1.353 6.922 3.069 12.974 3.841 20.504 3.845l1.9.018c3.384.005 6.478-.137 9.729-1.101l1.781-.516c3.702-1.223 7.273-2.597 10.817-4.229 6.521-2.975 14.167-3.313 20.95-.866 2.209.923 4.406 1.871 6.592 2.849 6.501 2.905 12.214 3.759 19.273 4.03l1.584.065c1.276.052 2.552.103 3.829.152-1.836 6.198-5.568 11.997-9.062 17.381l-.737 1.164c-1.693 2.54-1.693 2.54-3.253 3.323-1.884-.138-3.424-.869-5.103-1.672l-2.138-.973-1.976-.914c-10.29-4.705-23.468-5.08-34.175-1.307-2.837 1.077-5.574 2.371-8.32 3.658-2.308 1.062-4.48 1.725-6.99 2.103l-1.208.201c-6.464.848-12.27-.406-18.091-3.17-5.111-2.212-5.111-2.212-10.392-3.959l-1.101-.309c-10.896-2.491-22.978-.371-32.916 4.428-7.57 3.654-15.339 4.328-23.385 1.819-1.875-.735-3.692-1.589-5.515-2.444a55.341 55.341 0 0 0-7.908-2.968l-1.011-.299c-12.269-3.429-24.745-.779-35.873 4.81-1.355.476-1.813.419-3.137-.089-.737-.785-.737-.785-1.426-1.809l-.785-1.151-.82-1.246-.852-1.272a205.432 205.432 0 0 1-5.364-8.532l-.614-1.028c-1.086-1.869-1.904-3.655-2.51-5.745l1.887-.056c10.454-.37 18.442-2.777 27.918-7.108 8.902-3.571 17.938-1.067 25.991 3.201Z" fill="#2DCAEE"/><path d="M161.772 334.328c6.157 3.146 12.207 4.358 19.033 4.8l1.368.091a37.19 37.19 0 0 0 3.58-.091l1.819-.103c7.62-.579 14.692-3.275 21.478-6.696 3.442-1.486 6.621-1.782 10.322-1.768l1.263-.024c4.4-.004 7.893 1.492 11.852 3.277 7.558 3.389 14.023 4.986 22.329 5.035l1.934.016c6.532-.06 12.466-1.131 18.385-3.912.896-.398 1.793-.794 2.691-1.187l1.28-.564c7.168-3.123 14.622-3.679 22.065-1.085 1.48.626 2.907 1.326 4.336 2.062-1.881 2.296-3.828 4.362-6.093 6.279l-.901.763c-8.681 7.239-18.445 12.874-28.635 17.701l-1.527.746c-25.564 11.784-56.896 13.145-83.587 4.697l-1.037-.327c-18.009-5.869-35.183-16.906-48.448-30.354.726-1.451 1.602-1.519 3.123-2.041 8.128-2.392 15.974-1.141 23.37 2.685Z" fill="#27C2EB"/><defs><linearGradient id="a" x1=".124" y1=".651" x2="489.027" y2="436.443" gradientUnits="userSpaceOnUse"><stop stop-color="#008CDA"/><stop offset=".5" stop-color="#34D4F2"/><stop offset="1" stop-color="#ACE2E1"/></linearGradient></defs></svg>